<svg xmlns="http://www.w3.org/2000/svg" xmlns:xlink="http://www.w3.org/1999/xlink" viewBox="0 0 805.46 600"><defs><style>.cls-1{fill:#f7df1e;}.cls-1,.cls-10,.cls-11,.cls-12,.cls-13,.cls-14,.cls-15,.cls-16,.cls-17,.cls-18,.cls-19,.cls-2,.cls-20,.cls-21,.cls-25,.cls-6,.cls-7,.cls-8,.cls-9{fill-rule:evenodd;}.cls-2{fill:#323232;}.cls-3{fill:#599636;}.cls-4{fill:#6cac48;}.cls-5{fill:#c2bfbf;}.cls-6{fill:#8cc84b;}.cls-7{fill:#e44d26;}.cls-21,.cls-26,.cls-8{fill:#fff;}.cls-9{fill:#ebebeb;}.cls-10{fill:#f16529;}.cls-11{fill:#1572b6;}.cls-12{fill:#33a9dc;}.cls-13{fill:#99424f;}.cls-14{fill:#4e8ef7;}.cls-15{fill:#ffa000;}.cls-16{fill:#f57f17;}.cls-17{fill:#ffca28;}.cls-18{fill:#cb3837;}.cls-19{fill:url(#radial-gradient);}.cls-20{fill:#6f95db;}.cls-21{fill-opacity:0.1;}.cls-22{fill:#212529;}.cls-23{fill:#f2f2f2;}.cls-24,.cls-25{fill:#00d8ff;}.cls-27{fill:#00746b;}.cls-28{fill:#2a5953;}.cls-29{fill:#f26d7d;}.cls-30{fill:#b25963;}.cls-31{fill:#ffd064;}.cls-32{fill:#2f211e;}.cls-33{fill:#7cc576;}.cls-34{fill:#6f9b64;}.cls-35{fill:#fff356;}.cls-36{fill:#cbbb4e;}.cls-37{fill:#6f4d4a;}.cls-38{fill:#c25e69;}.cls-39{fill:#c6996d;}.cls-40{fill:#8f6c5e;}.cls-41{fill:#9ddff9;}.cls-42{fill:#86adc0;}.cls-43{fill:#543e3c;}.cls-44{fill:#3a2b29;}.cls-45{fill:#cba357;}.cls-46{fill:#94625e;}.cls-47{fill:#74504d;}.cls-48{fill:#a3555c;}.cls-49{fill:#935a8c;}.cls-50{fill:#674654;}.cls-51{fill:#ffca6d;}.cls-52{fill:#716f75;}.cls-53{fill:#685f63;}.cls-54{fill:#76747a;}.cls-55{fill:#d8f5fc;}.cls-56{fill:#93cae0;}.cls-57{fill:red;}.cls-58{fill:#8ebed3;}.cls-59{fill:#fdf155;}.cls-60{fill:#f90;}.cls-61{fill:#89a9b9;}.cls-62{fill:#cbc4c4;}.cls-63{fill:#764abc;}</style><radialGradient id="radial-gradient" cx="7715.45" cy="8425.69" r="0.5" gradientTransform="translate(-538920.15 -672970.15) scale(69.85 79.88)" gradientUnits="userSpaceOnUse"><stop offset="0" stop-color="#93b4e7"/><stop offset="0.6" stop-color="#b9d1f8"/><stop offset="1" stop-color="#9cb6e0"/></radialGradient><symbol id="A_2" data-name="A 2" viewBox="0 0 35.93 80"><path class="cls-3" d="M17.72,79.78l2.13-4a12.38,12.38,0,0,1,1.61-2,54.9,54.9,0,0,0,5-5.67,48.88,48.88,0,0,0,7.8-15.73A38.32,38.32,0,0,0,35.93,41.7a37.68,37.68,0,0,0-11-27.8A32.19,32.19,0,0,0,21,10.55c-.74,0-1.09.56-1.39,1.09a8.79,8.79,0,0,0-1.09,3.13,15.1,15.1,0,0,0-.35,4v.61c-.06.15-.71,60.15-.45,60.43Z"/><path class="cls-4" d="M17.72,79.92c-.09.17-.18,0-.27,0a4,4,0,0,0-.74-2.4,10.79,10.79,0,0,0-1.91-1.91A41.74,41.74,0,0,1,5.43,63.62,48.05,48.05,0,0,1,0,44.1,65,65,0,0,1,1.6,30.33,41.74,41.74,0,0,1,12.53,13.12a41.26,41.26,0,0,1,3.88-3.31c.39,0,.43.35.5.61a12,12,0,0,1,.39,1.7l.88,6.53-.46,61.27Z"/><path class="cls-5" d="M19.85,7.89a6,6,0,0,0,1.09,2.66,2.94,2.94,0,0,0-1.22,1.13,8.47,8.47,0,0,0-.65,1.44,24.6,24.6,0,0,0-.91,5.62v1.13c-.22-.17-.27-1.65-.27-1.87a41.66,41.66,0,0,0-.78-5.89,5.28,5.28,0,0,0-.7-2.26.94.94,0,0,1,0-.31,25.7,25.7,0,0,0,1.13-7V1.61c0-1,0-.82.83-1.18A3.53,3.53,0,0,0,19.5,0c.26,0,.3.22.3.39l-.13,1.44v4a10.64,10.64,0,0,0,.18,2.05Z"/></symbol><symbol id="A_3" data-name="A 3" viewBox="0 0 70 80"><path class="cls-6" d="M31.84,79.15a6.31,6.31,0,0,0,6.32,0L67,62.25A6.19,6.19,0,0,0,70,57V23.05a6.25,6.25,0,0,0-3.22-5.42L38,.82A6.1,6.1,0,0,0,31.65,1L23,6.17a5.1,5.1,0,0,0-1.67,1.24c.37.51,1,.58,1.56.8a19.75,19.75,0,0,1,3.4,1.65.77.77,0,0,0,.89-.06l7.35-4.41c.53-.31,1.06.11,1.51.37L64.29,22.27a1,1,0,0,1,.51,1V56.77a1.06,1.06,0,0,1-.61,1L35.56,74.56a1,1,0,0,1-1.12,0L5.8,57.81a1,1,0,0,1-.61-1V23.22a1,1,0,0,1,.52-.94l7.65-4.48a5.71,5.71,0,0,1,4.78-.66,3.75,3.75,0,0,1,2.35,3.53V54a.83.83,0,0,0,.88.86h3.68a.88.88,0,0,0,.8-1V20.3c0-3-1.18-6.23-3.84-7.69a11.46,11.46,0,0,0-10.56.3C8.65,14.36,6,16.08,3.22,17.63A6.25,6.25,0,0,0,0,23.05V57a6.21,6.21,0,0,0,3.1,5.37ZM40.2,55.67c4.18.27,8.65.16,12.41-2a9.83,9.83,0,0,0,4.58-8.43.88.88,0,0,0-.95-.67c-1.22,0-2.43,0-3.64,0-.51,0-.81.47-.88.94a5.73,5.73,0,0,1-2.65,4c-2.23,1.16-4.83,1.1-7.26,1.08a9.68,9.68,0,0,1-5.21-1.34,3.5,3.5,0,0,1-1.09-3.82c.39-1,1.46-1.27,2.33-1.56,5-1.36,10.37-1.23,15.31-3a7.28,7.28,0,0,0,4.75-4.37,9.66,9.66,0,0,0-1.53-8.93,12,12,0,0,0-6.47-3.61,30,30,0,0,0-9.77-.43c-3.06.36-6.24,1.19-8.6,3.35a9.54,9.54,0,0,0-2.9,7.38.81.81,0,0,0,.89.74h3.66a.87.87,0,0,0,.88-.88,5.82,5.82,0,0,1,2.06-4c2.48-1.66,5.6-1.55,8.44-1.59,2.35.11,5,.14,6.91,1.75a4,4,0,0,1,1,3.79,3.3,3.3,0,0,1-2.39,2c-5,1.63-10.37,1-15.29,2.88a7.53,7.53,0,0,0-4.7,4.25,8.94,8.94,0,0,0,1.68,9.05c2.2,2.29,5.37,3.18,8.39,3.5Z"/></symbol><symbol id="A" data-name="A" viewBox="0 0 80 80"><path class="cls-1" d="M0,80H80V0H0Z"/><path class="cls-2" d="M36,17V43h7V17C43,7,29,1,21,13l6,4C30,11,36,13,36,17ZM66,34c-4,5.5-9,3-9-.5C57,28,73.5,29,73.5,17c-.5-14-20-13.5-26-3l6,3.5C58,10.5,66,13,66,17c-.5,7-16,3.5-16,16.5-.5,10,14.5,15.5,21.5,4L66,34"/></symbol><symbol id="A_4" data-name="A 4" viewBox="0 0 60 80"><path class="cls-7" d="M60,65H0L5,7.5,30,0,55,7.5,60,65"/><path class="cls-8" d="M7,80V69h3v4h4V69h3V80H14V76H10v4Zm24,0V69h3v6l2.5-4L39,75V69h3V80H39l-2.5-3.5L34,80Zm13,0V69h9v3H47v8Z"/><path class="cls-9" d="M22.37,14.79l-8.22,2.46L13.48,25l-.22,2.54h8l.44-5L30,20V12.5ZM30,47.5H19.52l.65-7.5H30V32.5H12.83L12.17,40l-.65,7.5L10.87,55H30Z"/><path class="cls-10" d="M51.74,27.5l.43,5,.66,7.5.65,7.5.65,7.5.44,5H30V5L45.18,9.55l5.13,1.54L51,18.8l.67,7.7Z"/><path class="cls-8" d="M19,80V77h3.5V69h3v8H29v3Z"/><path class="cls-8" d="M30,47.5H48.48l.65,7.5H30Zm9.17-15H30V40H47.83l-.66-7.5-.43-5L46.52,25l-.67-7.71-8.22-2.46L30,12.5V20l8.3,2.49.44,5Z"/></symbol><symbol id="A_5" data-name="A 5" viewBox="0 0 60 80"><path class="cls-11" d="M60,65H0L5,7.5,30,0,55,7.5,60,65"/><path class="cls-12" d="M51.74,27.5l.43,5,.66,7.5.65,7.5.65,7.5.44,5H30V5L45.18,9.55l5.13,1.54L51,18.8l.67,7.7Z"/><path class="cls-8" d="M22,80H13V69h9v3H16v5h6Zm13,0V77H30l5-5V69H25v3h5l-5,5v3Zm13,0V77H43l5-5V69H38v3h5l-5,5v3Z"/><path class="cls-9" d="M24.93,14l-2.56.77-8.22,2.46L13.48,25l-.22,2.55h8l.44-5,2.56-.77L30,20V12.5ZM11.52,47.5H30V55H10.87Z"/><path class="cls-8" d="M30,20l8.3,2.49.44,5,.43,5H30V40h9.83l.65,7.5H30V55H49.13l-.65-7.5L47.83,40l-.66-7.5-.43-5L46.52,25l-.67-7.71-8.22-2.46L30,12.5Z"/><path class="cls-9" d="M30,32.5H23.33L22.67,40H30Z"/></symbol><symbol id="B" data-name="B" viewBox="0 0 70 80"><path class="cls-19" d="M35,79.88.08,59.91V20L35,0,69.94,20V59.91Z"/><path class="cls-20" d="M35,59.62l-17.32-9.9V29.91L35,20l17.32,9.9V49.72Z"/><path class="cls-21" d="M35,80,0,59.9,35,41,70,59.77Zm0-41.57L0,20.06l35-20L69.88,20.18Z"/></symbol><symbol id="A_6" data-name="A 6" viewBox="0 0 75 80"><path class="cls-13" d="M72.73,40.6a10.46,10.46,0,0,1-8,10L75,80H24.11L34.4,50.54a10.25,10.25,0,0,1-3.2-18.42,28.59,28.59,0,0,0-12.49-9.63,6.86,6.86,0,0,0-3,8.15A10.33,10.33,0,0,1,12.6,50.91,10.56,10.56,0,0,1,1.9,40.53,10.14,10.14,0,0,1,5,33.26l-.5-1C2.9,29.07,1.09,25.45.4,21.4-1,13.29,1.28,6.79,6.75,3.1A17.88,17.88,0,0,1,16.87,0c6.28,0,12.66,3.06,18.82,6,4.39,2.11,8.93,4.31,13.4,5.38,1.65.39,3.36.62,5.18.88,3.68.51,7.47,1,10.89,3a14.64,14.64,0,0,1,6,19.87,10.1,10.1,0,0,1,1.6,5.49Zm-4.66,0a6,6,0,0,0-12,0,5.77,5.77,0,0,0,.78,2.9,6.76,6.76,0,0,0,.67.92,5.16,5.16,0,0,0,.84.77l0,0,.62.42s0,0,0,0,.19.12.28.16l.08,0a2,2,0,0,0,.33.14l.33.14s0,0,.08,0l.28.09.1,0,.33.07h0l.35.07s.08,0,.1,0,.19,0,.29,0h.12l.38,0h.31a1.18,1.18,0,0,0,.26,0h.05a5.67,5.67,0,0,0,.57-.1,5.92,5.92,0,0,0,4.8-5.74ZM30.77,75.37H68.33L59.71,50.7a9.06,9.06,0,0,1-1.07-.3L49.56,68.35l-9.1-17.83a9.64,9.64,0,0,1-1.12.25ZM47.85,42.62a10.26,10.26,0,0,1-3.23,5.56l4.94,9.68,5-9.89a10.35,10.35,0,0,1-3-5.35Zm-12,3.66.34.07h.07l.28,0h.1c.1,0,.17,0,.26,0h.93c.1,0,.17,0,.24,0a.16.16,0,0,0,.12,0,2.56,2.56,0,0,0,.27,0l.09,0,.33-.07h0a1.61,1.61,0,0,0,.29-.09s0,0,.09,0a.78.78,0,0,0,.24-.09l.07,0,.29-.12h0a1.14,1.14,0,0,0,.31-.16h0c.09,0,.19-.12.28-.16s0,0,0,0,.17-.12.27-.17l0,0c.28-.21.55-.44.81-.67l0,0a6.78,6.78,0,0,0,.66-.84,5.6,5.6,0,0,0,1-3.19,6,6,0,0,0-12,0,5.84,5.84,0,0,0,4.53,5.65Zm-23.5.16a5.84,5.84,0,1,0,0-11.68,5.84,5.84,0,1,0,0,11.68ZM67.93,26.36a10.24,10.24,0,0,0-5.18-7.11c-2.61-1.46-5.81-1.92-9.17-2.39-1.84-.25-3.78-.53-5.64-1-5-1.18-9.74-3.5-14.37-5.72-5.93-2.85-11.52-5.54-16.7-5.54a12.79,12.79,0,0,0-7.4,2.29c-5.25,3.52-5,10.13-4.37,13.74.57,3.38,2.17,6.55,3.7,9.59.1.18.17.34.26.53a11.07,11.07,0,0,1,1.65-.42c-.91-4.91,1.67-10,6.69-12.48l.91-.46,1,.34a32.83,32.83,0,0,1,11.47,6.91,31.33,31.33,0,0,1,5,5.72,9.17,9.17,0,0,1,1.65-.12A10.65,10.65,0,0,1,47.7,38h4a10.79,10.79,0,0,1,15.74-6.32,10.29,10.29,0,0,0,.48-5.35Z"/></symbol><symbol id="A_7" data-name="A 7" viewBox="0 0 80 80"><path class="cls-14" d="M73.33,67.71A5.56,5.56,0,0,0,72,64,40,40,0,1,0,64,72a5.56,5.56,0,0,0,3.67,1.38,5.62,5.62,0,0,0,5.62-5.62ZM40,1.35A38.64,38.64,0,0,1,71,63.13,5.61,5.61,0,0,0,63.13,71,38.65,38.65,0,1,1,40,1.35Zm0,22.32A16.33,16.33,0,1,0,56.33,40,16.33,16.33,0,0,0,40,23.67Z"/></symbol><symbol id="A_8" data-name="A 8" viewBox="0 0 60 80"><path class="cls-15" d="M39.4,51.1l-8.32-7.45-7.72,15,4,8.62C28.37,69,30,69,31,67.26L39.4,51.1Z"/><path class="cls-16" d="M31.08,43.65,0,15.82,23.36,58.64Z"/><path class="cls-17" d="M48.5,62.49c1.48,1.38,3,.91,3.41-1L60,16.19,33.18.71A13.47,13.47,0,0,0,29.76,0a13,13,0,0,0-3.14.72L0,15.82Z"/><path class="cls-15" d="M23.36,58.64,0,15.82,10.41,78.4c.38,1.95,1.53,2.14,2.56.42L23.36,58.64Z"/></symbol><symbol id="A_9" data-name="A 9" viewBox="0 0 205 80"><path class="cls-18" d="M0,80H205V11.43H102.5V0H56.94V11.43H0ZM11.39,22.86H34.17V57.14H45.56V22.86H56.94V68.57H11.39ZM68.33,68.57V11.43H91.11V22.86h22.78V68.57ZM91.11,57.14H102.5V34.28H91.11V57.14Zm34.17,11.43V22.86h22.78V57.14h11.39V22.86h11.38V57.14h11.39V22.86h11.39V68.57Z"/><path class="cls-8" d="M11.39,22.86H34.17V57.14H45.56V22.86H56.94V68.57H11.39ZM68.33,68.57V11.43H91.11V22.86h22.78V68.57ZM102.5,34.28H91.11V57.14H102.5Zm22.78,34.29V22.86h22.78V57.14h11.39V22.86h11.38V57.14h11.39V22.86h11.39V68.57Z"/></symbol></defs><g id="Layer_2" data-name="Layer 2"><g id="Layer_1-2" data-name="Layer 1"><rect class="cls-22" x="2.73" width="800" height="600"/><use width="35.93" height="80" transform="matrix(1.39, 0, 0, -1.39, 6.31, 110.93)" xlink:href="#A_2"/><g id="original-wordmark"><path id="path4" class="cls-23" d="M232.15,100V12.69h4.74V26.42a17.94,17.94,0,0,0,1.55-1.93,23.45,23.45,0,0,1,21.41-13.28c10.8-.33,19.56,3.67,24.72,13.28a42.66,42.66,0,0,1,1,39.14c-4.8,10.77-16.66,16.12-29.37,14.15a23.74,23.74,0,0,1-19-12.51V100Zm4.74-56.42c.42,4.26.58,7.29,1.07,10.26,1.86,11.67,8.76,18.6,19.6,19.86A22.29,22.29,0,0,0,282,59.53a38,38,0,0,0-.84-31.21,21.84,21.84,0,0,0-23-12.7,21.26,21.26,0,0,0-19,15.7A108.79,108.79,0,0,0,236.89,43.57Z" transform="translate(0 0)"/><path id="path6" class="cls-23" d="M386.51,55.44A25.54,25.54,0,0,1,361.56,78C341.7,79,332.38,65.82,330.9,50.6a43.88,43.88,0,0,1,3.87-24.18,27,27,0,0,1,28.08-15.05A25.78,25.78,0,0,1,385.74,31,134.13,134.13,0,0,1,388,45.51h-52.2c-1,13.8,6.45,24.89,17,27.56,13.09,3.23,24.27-2.45,28.34-14.89C382,55,383.61,54.54,386.51,55.44ZM335.77,41.09h46.65c-.29-14.7-9.45-25.34-21.86-25.5C346.51,15.36,336.38,25.62,335.77,41.09Z" transform="translate(0 0)"/><path id="path8" class="cls-23" d="M396.12,55.76h4.58a18.33,18.33,0,0,0,10.77,15.8,28.13,28.13,0,0,0,24.44-.65,11,11,0,0,0,6.44-10.8,10,10,0,0,0-6.7-10c-5-1.87-10.38-2.9-15.51-4.54a113.73,113.73,0,0,1-15.6-5.71c-8.26-4-8.77-19.73.58-24.7a32.9,32.9,0,0,1,31.46-.48A16.56,16.56,0,0,1,445,31.61H441c0-.19-.35-.35-.35-.54-.49-12.55-11-16.41-22.28-15.32a29.55,29.55,0,0,0-9.67,2.94,9.65,9.65,0,0,0-5.61,9.67,9.66,9.66,0,0,0,6.45,9.09c5,1.8,10.15,3,15.24,4.38,4.1,1.13,8.35,1.87,12.32,3.23a14.53,14.53,0,0,1,10,13.12,15.49,15.49,0,0,1-8.35,16.12c-10.76,6.09-28.5,4.48-36.39-3.23A21.47,21.47,0,0,1,396.12,55.76Z" transform="translate(0 0)"/><path id="path10" class="cls-23" d="M505.16,31.61h-4.29a11.43,11.43,0,0,0-.29-1.58,14,14,0,0,0-11.42-13.47,28.09,28.09,0,0,0-18.08.87,11,11,0,0,0-8,10.48,10.11,10.11,0,0,0,7.73,10.18c6.45,2,13.06,3.23,19.6,5a56.46,56.46,0,0,1,6.26,1.9,16.12,16.12,0,0,1,.87,30,35.89,35.89,0,0,1-29,.29,20.12,20.12,0,0,1-12.12-19.54h4.19a23.49,23.49,0,0,0,35.79,15A11.5,11.5,0,0,0,502.61,60a10,10,0,0,0-6.8-9.89c-5-1.87-10.39-2.87-15.51-4.52a113.38,113.38,0,0,1-15.7-5.64c-8.06-4-8.71-19.54.48-24.5a32.46,32.46,0,0,1,32-.36A16.88,16.88,0,0,1,505.16,31.61Z" transform="translate(0 0)"/><path id="path12" class="cls-23" d="M224.32,76.43a7.39,7.39,0,0,1-9.16-3.49c-5.25-7.86-11.06-15.37-16.63-23l-2.42-3.22c-6.64,8.9-13.28,17.44-19.35,26.31a7.08,7.08,0,0,1-8.7,3.41L193,43,169.8,12.75A7.71,7.71,0,0,1,179,16c5.38,7.86,11.35,15.38,17.28,23.34,6-7.9,11.86-15.44,17.38-23.25a6.93,6.93,0,0,1,8.64-3.22l-9,11.93c-4,5.32-8,10.67-12.18,15.86a3.23,3.23,0,0,0-.26,4.55,3.07,3.07,0,0,0,.26.25C208.81,55.66,216.45,65.92,224.32,76.43Z" transform="translate(0 0)"/><path id="path14" class="cls-23" d="M330.13,12.43v4.51a23.39,23.39,0,0,0-24.86,21.8,23,23,0,0,0,0,2.35V76.56h-4.61V12.69h4.51V25.78C310.72,16.24,319.33,12.69,330.13,12.43Z" transform="translate(0 0)"/><path id="path16" class="cls-23" d="M108.35,42.54c.68-3.22,1.1-6.74,2-10,5.58-19.83,28.31-28.08,44-15.8,9.15,7.19,11.44,17.38,11,28.85H113.74c-.84,20.51,14,32.89,32.88,26.57a19.64,19.64,0,0,0,12.48-13.9c1-3.22,2.61-3.77,5.67-2.83a26.15,26.15,0,0,1-12.51,19.11A30.29,30.29,0,0,1,117,70,31.73,31.73,0,0,1,109,51.38a15.17,15.17,0,0,0-.65-3.23Q108.35,45.29,108.35,42.54Zm5.45-1.38h46.65c-.29-14.87-9.67-25.41-22.18-25.51-13.93-.19-23.89,10.13-24.5,25.44Z" transform="translate(0 0)"/></g><circle class="cls-24" cx="598.87" cy="55.54" r="9.28"/><path class="cls-25" d="M547.18,55.47c0,11.78,23.09,21.26,51.77,21.26s51.77-9.48,51.77-21.26S627.63,34.21,599,34.21,547.18,43.69,547.18,55.47Zm4.63,0c0,9.22,21,16.64,47.14,16.64s47.15-7.42,47.15-16.64-21-16.64-47.15-16.64S551.81,46.25,551.81,55.47Z" transform="translate(0 0)"/><path class="cls-25" d="M573.07,100.3c10.2,5.89,30-9.36,44.3-34.2S635,16.52,624.84,10.64s-30,9.36-44.3,34.2S562.87,94.41,573.07,100.3Zm2.31-4c8,4.61,24.93-9.89,38-32.51s17.14-44.54,9.16-49.15-24.93,9.89-38,32.51S567.4,91.69,575.38,96.3Z" transform="translate(0 0)"/><path class="cls-25" d="M624.84,100.3c10.2-5.89,6.87-30.63-7.47-55.46s-34.1-40.1-44.3-34.21-6.87,30.63,7.47,55.47S614.64,106.19,624.84,100.3Zm-2.31-4c8-4.61,3.9-26.53-9.16-49.15s-30-37.12-38-32.51-3.89,26.53,9.17,49.15S614.55,100.91,622.53,96.3Z" transform="translate(0 0)"/><use width="70" height="80" transform="matrix(1.39, 0, 0, -1.39, 702.09, 110.93)" xlink:href="#A_3"/><use width="80" height="80" transform="matrix(3.71, 0, 0, -3.71, 254.5, 448.23)" xlink:href="#A"/><use width="60" height="80" transform="matrix(3.02, 0, 0, -3.02, 0, 420.95)" xlink:href="#A_4"/><use width="60" height="80" transform="matrix(3.02, 0, 0, -3.02, 624.04, 420.95)" xlink:href="#A_5"/><path class="cls-26" d="M508.44,504.85h0a5.33,5.33,0,0,0-3.69-.58h0a5.28,5.28,0,0,0-3.26,1.84h0a4,4,0,0,0-1,2.61,30.85,30.85,0,0,0-8.27,2.3,8.39,8.39,0,0,0-4.22-5.7l-.18-.1,3-2.44a4.14,4.14,0,0,0,2.26.73,4.66,4.66,0,0,0,1.81-.25,5.33,5.33,0,0,0,1.53-.86,4.66,4.66,0,0,0,1.76-3.08,4.13,4.13,0,0,0-1-3.32,4.34,4.34,0,0,0-3.16-1.53h0a4.84,4.84,0,0,0-3.38,1.13h0a4.63,4.63,0,0,0-1.76,3.07h0a4.15,4.15,0,0,0,.63,2.84l-3.57,2.89a15,15,0,0,0-5.06-.69,25.14,25.14,0,0,0-8.47,1.8c-.95.35-1.88.74-2.81,1.18a7.15,7.15,0,0,0-1.43-3q-1.44-1.69-3.09-.87c-.95.38-1.72,1.4-2.32,3h0a18.08,18.08,0,0,0-.88,5.56,57.06,57.06,0,0,0-7.28,6.64,44,44,0,0,0-14,2.68h66.86c-.22-.15-.44-.29-.68-.43a17.37,17.37,0,0,0-5.88-1.81,41.3,41.3,0,0,0-8.62-.33,24.24,24.24,0,0,0,.3-2.78,17.86,17.86,0,0,0,0-2.55,28.71,28.71,0,0,1,8.24-2.35,4.59,4.59,0,0,0,1.49,1.61l.18.11.21.12a5.27,5.27,0,0,0,3.69.59,5.33,5.33,0,0,0,3.26-1.85,4,4,0,0,0-1.14-6.24Zm-17.62-3.11-.06-.08.06.07Z" transform="translate(0 0)"/><path class="cls-26" d="M517.41,522.48a3.69,3.69,0,0,0-2.53.43h0a3.13,3.13,0,0,0-1,1,31.82,31.82,0,0,0-4.13-.27,5.41,5.41,0,0,0-2.29-2.85H440.56a41.31,41.31,0,0,0-7.83,3.87,8.31,8.31,0,0,1,.45-3.14,3.26,3.26,0,0,0,1.52-.44l.06,0,.09-.06.31-.2h-6.51a10.37,10.37,0,0,1-1,.76l0,0a8.77,8.77,0,0,1-4.41,1.31,21.46,21.46,0,0,0,1.48-2.11H397.3a7.78,7.78,0,0,0,.88,2.12,8.2,8.2,0,0,0,4.15,3.19,22.38,22.38,0,0,0,6.05,1.54c.58.09,1.17.14,1.74.18a18.49,18.49,0,0,0-3.82,2.86c-1.64,1.63-2.43,3.19-2.37,4.7l-.55.25-1.81.87,1.87.76a13.08,13.08,0,0,1,3.64,2.14,2.29,2.29,0,0,0,.18.86v0a2.52,2.52,0,0,0,1.21,1.31h0a2.45,2.45,0,0,0,1.77.22h0a2.12,2.12,0,0,0,1.6-2.42l0-.13-.08-.24a0,0,0,0,1,0,0l0-.08v0a0,0,0,0,0,0,0,2.43,2.43,0,0,0-.79-1h0a2.07,2.07,0,0,0-.41-.27h0a2.5,2.5,0,0,0-1.09-.29,3.55,3.55,0,0,1-.33-.78,1.63,1.63,0,0,1,0-.76c.41-1.19,2.21-2.19,5.42-3a.25.25,0,0,0,0,.07l.92,2.1,1.78,3.35c-.83.5-1.67,1-2.5,1.55l-.05,0a111.85,111.85,0,0,0-10.08,7.33H512.42a1.55,1.55,0,0,0,0-.22v-.32l-.23-.25a68.67,68.67,0,0,0-12.65-11l-1.14-.76-.29,1.58c-2.15-1-4.29-1.91-6.44-2.78a79.55,79.55,0,0,0,11-3q6.38-2.39,7.13-5a27.48,27.48,0,0,1,3.62.22,2.76,2.76,0,0,0,.77,1.68h0a3.63,3.63,0,0,0,2.27,1.2,3.69,3.69,0,0,0,2.55-.44h0a2.7,2.7,0,0,0,1.44-2h0a2.68,2.68,0,0,0-.74-2.37,3.65,3.65,0,0,0-2.28-1.21Zm-87.17,3.63.14.1c-.83.6-1.64,1.23-2.44,1.91l.14.19-.14-.19-.18-.24-.13-.16.13.16c.23-.12.46-.26.68-.39a11.28,11.28,0,0,0,1.8-1.38Z" transform="translate(0 0)"/><path class="cls-26" d="M448.39,502.87a2.54,2.54,0,0,0-.77-1.86,2.63,2.63,0,0,0-3.73,0h0a2.53,2.53,0,0,0-.76,1.86,1.28,1.28,0,0,0,0,.19l-.68.46a5.71,5.71,0,0,0-2.47-1.27,4.08,4.08,0,0,0-3.48.6h0a4.15,4.15,0,0,0-1.83,3.1l-.36.13-.27.11a2.44,2.44,0,0,0-.47.23h0a17.4,17.4,0,0,0-2.91,1.89l-.1.08a11.18,11.18,0,0,0-2.41,2.68,7.51,7.51,0,0,0-.78,1.51,11.82,11.82,0,0,0-.29-3.22A8.1,8.1,0,0,0,423,504a26.36,26.36,0,0,0-6.89-2.43h0l-3.84-.9c-1.5-.37-2.77-.72-3.83-1.06a18.76,18.76,0,0,1-6.62-3.52l-2.1-1.78.62,2.66a17.12,17.12,0,0,1,.09,6.87h0a61.58,61.58,0,0,1-1.77,6.72,39,39,0,0,0-1.53,6.36h0a10.91,10.91,0,0,0,.19,3.79h27.36c.36-.62.7-1.25,1-1.92a18.4,18.4,0,0,0,1.4-4,3.22,3.22,0,0,0,.52,1.33l0,.07.06.07a3.53,3.53,0,0,0,2.58,1.26,3,3,0,0,0-.1,1.52,11.72,11.72,0,0,1-1.52,1.67h6.51a3.6,3.6,0,0,0,1.13-1.48h0v0s0-.1.05-.15a3.05,3.05,0,0,0-.07-2.48,2.29,2.29,0,0,0-.31-.52l-.05-.06-.1-.11v0a17.08,17.08,0,0,0,2.95-2.4h0a10,10,0,0,0,.76-.86,4.2,4.2,0,0,0,5.07-4,5.79,5.79,0,0,0,0-.93,5.56,5.56,0,0,0-.2-1.14h0a5,5,0,0,0-.25-.68l.71-.56a2.58,2.58,0,0,0,.88.14,2.54,2.54,0,0,0,1.86-.76v0a2.48,2.48,0,0,0,.77-1.85Zm-10.45,2.67a1.11,1.11,0,0,1,.31-.3,1.55,1.55,0,0,1,1.34-.15,7.08,7.08,0,0,1-1.65.45Zm3.15,3.85-.1.06a4.49,4.49,0,0,1,.24-.42v0l0,0a.41.41,0,0,0,.05-.09h0l.35-.46a1.5,1.5,0,0,1-.58,1Zm-.09-.13v0a.11.11,0,0,0,0,0Z" transform="translate(0 0)"/><path class="cls-26" d="M401.13,550.09l-.28.24v.37a53.36,53.36,0,0,0,3,21.67.87.87,0,0,0,.26.39,1.11,1.11,0,0,0,.32.18h.08l2.5.63H491.1c.55-.89,1.06-1.79,1.52-2.72a24.94,24.94,0,0,0,1.4-3.13l1.66.28,1-1.14.65,6.71h2.34l3.17-.23h.11l.13,0,7.15-2.13-1.84-11.6,2.73-2.18h0v0a.78.78,0,0,0,.29-.46,33.94,33.94,0,0,0,1-9.75H404.59q-1.74,1.41-3.46,2.92Z" transform="translate(0 0)"/><path class="cls-26" d="M420.59,577.68h0a2.25,2.25,0,0,0-1.14,1.68h0a2.73,2.73,0,0,0,.36,2h0a2.59,2.59,0,0,0,.39.53l-.64,1.74a24,24,0,0,0-2.53-1.19h0c-.31-.13-.6-.25-.9-.35l-1.08-.4-.63,6.18a9.15,9.15,0,0,0-2.37,5h0a5.91,5.91,0,0,0,2.28,5.19,6.68,6.68,0,0,0,5.83,1.78,7.64,7.64,0,0,0,5-3.44l6.41-1.8-.81-1.06c-.56-.72-1.13-1.42-1.71-2.09l2.39-1.15a2.89,2.89,0,0,0,2.29.3h0a2.27,2.27,0,0,0,1.35-1,42.58,42.58,0,0,0,18.82,4.11,43.86,43.86,0,0,0,19.37-4.25l1.46-.73a45,45,0,0,0,8.66-6.07,40.87,40.87,0,0,0,7.76-9.11H407l9,2.29,1.95-2.15a32.7,32.7,0,0,0,2.58,4Zm3.55,4.08c.3.31.62.62.93.91s.81.76,1.23,1.13l-2.24,2.91h0l0,0a.53.53,0,0,1-.11-.09h0c-.65-.53-1.59-1.19-2.79-2l.65-1.8a2.21,2.21,0,0,0,1.59-.29h0a2.31,2.31,0,0,0,.79-.73Zm3.54,3.19c1,.79,2,1.52,3,2.22a1.77,1.77,0,0,0-.21.32h0a1.89,1.89,0,0,0-.18,1.37l-2.58,1.24-.05-.05c-.74-.77-1.5-1.5-2.26-2.18l2.24-2.93Z" transform="translate(0 0)"/><polygon class="cls-26" points="497.29 573.58 497.31 573.75 499.63 573.58 497.29 573.58 497.29 573.58"/><path class="cls-26" d="M428.08,528.31l-.15-.19h0l.15.18Zm-.32-.42-.13-.16h0l.12.16Z" transform="translate(0 0)"/><path d="M515.42,525.5h-.09a28.29,28.29,0,0,0-7.56-.45.45.45,0,0,1-.49-.41.46.46,0,0,1,.42-.48,28.92,28.92,0,0,1,7.81.46.45.45,0,0,1-.09.89Z" transform="translate(0 0)"/><path class="cls-27" d="M502.34,529.51c4.86-1.81,7.06-3.63,6.56-5.45a5,5,0,0,0-2.61-2.94,16.22,16.22,0,0,0-5.57-1.71c-4.92-.75-10.87-.46-17.89.87L481,534.39q14-2.14,21.39-4.88Z" transform="translate(0 0)"/><path class="cls-28" d="M508.32,524.29a4.09,4.09,0,0,0-2.51-2.34,16.65,16.65,0,0,0-5.37-1.11,59.56,59.56,0,0,0-17.22,1.79l-1.82,12.08q13.5-2.64,20.6-5.41t6.32-5Z" transform="translate(0 0)"/><path d="M481,534.84a.46.46,0,0,1-.45-.38.45.45,0,0,1,.38-.51c9.27-1.42,16.44-3.06,21.3-4.86,4.53-1.69,6.7-3.39,6.29-4.92a4.59,4.59,0,0,0-2.39-2.66,16.07,16.07,0,0,0-5.43-1.66c-4.85-.73-10.81-.44-17.73.87a.45.45,0,0,1-.53-.36.45.45,0,0,1,.36-.52c7-1.33,13.09-1.63,18-.88a17.09,17.09,0,0,1,5.73,1.76,5.46,5.46,0,0,1,2.82,3.22c.57,2.1-1.67,4.06-6.84,6-4.92,1.83-12.15,3.48-21.49,4.91Z" transform="translate(0 0)"/><path class="cls-29" d="M519,524.28a3.09,3.09,0,0,0-3.69-.58,1.89,1.89,0,0,0-.48,3,3.11,3.11,0,0,0,3.7.58,1.89,1.89,0,0,0,.47-3Z" transform="translate(0 0)"/><path class="cls-30" d="M518.89,525.17a2,2,0,0,0-1.15-.6,2,2,0,0,0-1.29.21,1.27,1.27,0,0,0-.66.92,1.23,1.23,0,0,0,.35,1.08,1.92,1.92,0,0,0,1.15.6,2,2,0,0,0,1.29-.22,1.25,1.25,0,0,0,.66-.91,1.29,1.29,0,0,0-.35-1.08Z" transform="translate(0 0)"/><path d="M517.12,528.13a4,4,0,0,1-.6,0,3.31,3.31,0,0,1-2-1.07,2.33,2.33,0,0,1,.58-3.7,3.57,3.57,0,0,1,4.26.67,2.34,2.34,0,0,1-.59,3.71A3.22,3.22,0,0,1,517.12,528.13Zm-.4-4.35a2.38,2.38,0,0,0-1.18.3,1.46,1.46,0,0,0-.36,2.34,2.62,2.62,0,0,0,3.13.49,1.44,1.44,0,0,0,.37-2.33,2.41,2.41,0,0,0-1.48-.76h0A2.74,2.74,0,0,0,516.72,523.78Z" transform="translate(0 0)"/><path class="cls-31" d="M503.63,523.7a2.33,2.33,0,0,0-1.07-1.91A4.16,4.16,0,0,0,500,521a4.21,4.21,0,0,0-2.58.79,2.24,2.24,0,0,0,0,3.81,4.21,4.21,0,0,0,2.58.79,4.16,4.16,0,0,0,2.57-.79,2.33,2.33,0,0,0,1.07-1.9Z" transform="translate(0 0)"/><path d="M500,526.66a4.48,4.48,0,0,1-2.74-.84,2.51,2.51,0,0,1,0-4.25,4.89,4.89,0,0,1,5.48,0h0a2.51,2.51,0,0,1,0,4.25A4.46,4.46,0,0,1,500,526.66Zm0-5.39a3.9,3.9,0,0,0-2.41.74,2,2,0,0,0-1,1.69,2.05,2.05,0,0,0,1,1.69,4,4,0,0,0,2.41.73,3.9,3.9,0,0,0,2.41-.73,2.07,2.07,0,0,0,1-1.69,2,2,0,0,0-1-1.69h0A3.84,3.84,0,0,0,500,521.27Z" transform="translate(0 0)"/><path class="cls-32" d="M500.67,523.5a.83.83,0,0,0-.4-.67,1.77,1.77,0,0,0-1.91,0,.82.82,0,0,0-.39.67.8.8,0,0,0,.39.66,1.77,1.77,0,0,0,1.91,0,.81.81,0,0,0,.4-.66Z" transform="translate(0 0)"/><path d="M499.32,524.71a1.86,1.86,0,0,1-1.12-.33,1,1,0,0,1,0-1.77,2,2,0,0,1,2.23,0,1.09,1.09,0,0,1,.51.89,1.06,1.06,0,0,1-.51.88A1.85,1.85,0,0,1,499.32,524.71Zm0-1.89a1.31,1.31,0,0,0-.8.23c-.25.18-.28.33-.28.45a.51.51,0,0,0,.28.44,1.49,1.49,0,0,0,1.59,0c.26-.18.29-.34.29-.44s0-.27-.29-.45h0A1.3,1.3,0,0,0,499.32,522.82Z" transform="translate(0 0)"/><path d="M491.54,512.77a.45.45,0,0,1-.2-.85,30.92,30.92,0,0,1,11.23-3,.44.44,0,0,1,.49.41.45.45,0,0,1-.42.48,30.23,30.23,0,0,0-10.91,2.88A.43.43,0,0,1,491.54,512.77Zm-6-6.43a.46.46,0,0,1-.35-.17.45.45,0,0,1,.06-.63l5.64-4.58a.46.46,0,0,1,.63.07.45.45,0,0,1-.06.63l-5.64,4.58A.42.42,0,0,1,485.56,506.34Z" transform="translate(0 0)"/><path class="cls-33" d="M480.89,504.64a24.38,24.38,0,0,0-8.18,1.73,35.74,35.74,0,0,0-3.76,1.68,7.82,7.82,0,0,0-1.47-3.77,1.63,1.63,0,0,0-2-.63,4,4,0,0,0-1.84,2.53,18.1,18.1,0,0,0-.84,5.72A56,56,0,0,0,455,519q9.9,11.64,31.34,14.14c.76-1.72,1.5-3.49,2.2-5.33a11.43,11.43,0,0,0,4.72-.48,3,3,0,0,0,2.05-1.7c.23-.71-.07-1.36-.89-2a8.43,8.43,0,0,0-4.07-1.25,32.41,32.41,0,0,0,1.29-7q.38-6.76-4.1-9.25a13,13,0,0,0-6.65-1.47Z" transform="translate(0 0)"/><path class="cls-34" d="M485.8,507.78q-5.12-1.83-11.74,1.32a26.37,26.37,0,0,0-11,9.93q9.41,3.86,23.26,12.76c.52-.86.93-1.57,1.22-2.15a16.73,16.73,0,0,0,.95-2.18,8.9,8.9,0,0,0,3.8-.47c1.18-.45,1.71-1.06,1.58-1.8-.15-.91-1.7-1.4-4.63-1.46a40.18,40.18,0,0,0,.67-4.62,22.83,22.83,0,0,0-.09-5.36,9.31,9.31,0,0,0-1-3.12,8,8,0,0,0-1.45-1.83,4.78,4.78,0,0,0-1.59-1Z" transform="translate(0 0)"/><path d="M486.34,533.55a.58.58,0,0,1-.18,0,.45.45,0,0,1-.23-.59c.8-1.81,1.52-3.55,2.19-5.31l.12-.32.34,0a10.91,10.91,0,0,0,4.53-.45c1-.36,1.59-.84,1.77-1.41.11-.33.14-.84-.72-1.45a7.9,7.9,0,0,0-3.86-1.17l-.53-.05.15-.52a32.29,32.29,0,0,0,1.27-6.93c.24-4.37-1-7.26-3.86-8.83a12.5,12.5,0,0,0-6.43-1.42,24.08,24.08,0,0,0-8,1.7,37.35,37.35,0,0,0-3.71,1.65l-.54.29-.11-.61a7.53,7.53,0,0,0-1.37-3.55c-.67-.78-1.18-.66-1.51-.51a3.69,3.69,0,0,0-1.61,2.27,17.82,17.82,0,0,0-.81,5.58v.22l-.18.13a56.26,56.26,0,0,0-7.7,7,.45.45,0,0,1-.64,0,.46.46,0,0,1,0-.64,57.16,57.16,0,0,1,7.65-7,18.41,18.41,0,0,1,.85-5.64,4.47,4.47,0,0,1,2.09-2.79,2,2,0,0,1,2.56.75,7.47,7.47,0,0,1,1.46,3.39,35.17,35.17,0,0,1,3.27-1.43,25.12,25.12,0,0,1,8.33-1.76,13.38,13.38,0,0,1,6.88,1.53c3.13,1.74,4.58,5,4.33,9.67a32,32,0,0,1-1.17,6.62,8.1,8.1,0,0,1,3.77,1.27,2.1,2.1,0,0,1,1.05,2.45,3.41,3.41,0,0,1-2.33,2,11.46,11.46,0,0,1-4.57.53c-.64,1.67-1.33,3.32-2.09,5A.44.44,0,0,1,486.34,533.55Z" transform="translate(0 0)"/><path class="cls-33" d="M477.9,520.17a5.62,5.62,0,0,1-.58,0,6.43,6.43,0,0,1-4.71-2.22,5.33,5.33,0,0,1-1.22-4.76,7,7,0,0,1,3-4.37,8.36,8.36,0,0,1,5.35-1.51h0a6.54,6.54,0,0,1,4.71,2.2,5.35,5.35,0,0,1,1.22,4.78,6.91,6.91,0,0,1-3,4.36A8.2,8.2,0,0,1,477.9,520.17Zm1.28-11.46a6.76,6.76,0,0,0-4,1.27,5.49,5.49,0,0,0-2.42,3.48,3.88,3.88,0,0,0,.9,3.53,5,5,0,0,0,3.71,1.73,6.76,6.76,0,0,0,4.44-1.27,5.43,5.43,0,0,0,2.41-3.47,3.93,3.93,0,0,0-.89-3.55,5.09,5.09,0,0,0-3.72-1.7Z" transform="translate(0 0)"/><path class="cls-35" d="M485,514a4.68,4.68,0,0,0-1.05-4.16,5.85,5.85,0,0,0-4.22-1.95,7.52,7.52,0,0,0-4.89,1.38,6.26,6.26,0,0,0-2.71,3.92,4.61,4.61,0,0,0,1.07,4.16,5.67,5.67,0,0,0,4.2,2,7.44,7.44,0,0,0,4.9-1.39A6.15,6.15,0,0,0,485,514Z" transform="translate(0 0)"/><path class="cls-36" d="M476,510.93a5.36,5.36,0,0,0-2.34,3.29,3.82,3.82,0,0,0,.82,3.48,4.65,4.65,0,0,0,3.49,1.64,6.33,6.33,0,0,0,4.13-1.16,5.31,5.31,0,0,0,2.32-3.28,3.83,3.83,0,0,0-.81-3.49,4.79,4.79,0,0,0-3.5-1.63,6.42,6.42,0,0,0-4.11,1.15Z" transform="translate(0 0)"/><path d="M477.94,519.63a4.87,4.87,0,0,1-.54,0,6,6,0,0,1-4.4-2.06,4.91,4.91,0,0,1-1.13-4.38,6.6,6.6,0,0,1,2.83-4.1,7.91,7.91,0,0,1,5.06-1.42h0a6.13,6.13,0,0,1,4.4,2,4.93,4.93,0,0,1,1.11,4.4,6.42,6.42,0,0,1-2.8,4.08A7.74,7.74,0,0,1,477.94,519.63Zm1.31-11.46a7.39,7.39,0,0,0-4.25,1.35,6,6,0,0,0-2.6,3.76,4.34,4.34,0,0,0,1,3.92,5.51,5.51,0,0,0,4,1.88,7.21,7.21,0,0,0,4.73-1.35,5.82,5.82,0,0,0,2.58-3.75,4.36,4.36,0,0,0-1-3.93,5.5,5.5,0,0,0-4-1.86Z" transform="translate(0 0)"/><path class="cls-35" d="M476.17,509.37a1.73,1.73,0,0,0-.73,1,1.21,1.21,0,0,0,.26,1.09,1.44,1.44,0,0,0,1.08.5,2,2,0,0,0,1.29-.36,1.65,1.65,0,0,0,.72-1,1.19,1.19,0,0,0-.25-1.08,1.45,1.45,0,0,0-1.09-.51,2,2,0,0,0-1.28.36Z" transform="translate(0 0)"/><path class="cls-37" d="M477.13,512a3.94,3.94,0,0,0-2.17.5,2.4,2.4,0,0,0-1.21,1.45,1.49,1.49,0,0,0,.48,1.52,2.86,2.86,0,0,0,1.87.73,4.11,4.11,0,0,0,2.18-.51,2.32,2.32,0,0,0,1.19-1.44,1.48,1.48,0,0,0-.47-1.53,2.78,2.78,0,0,0-1.87-.72Z" transform="translate(0 0)"/><path d="M476.3,516.48h-.21a3.12,3.12,0,0,1-2-.81,1.75,1.75,0,0,1-.55-1.77,2.66,2.66,0,0,1,1.33-1.62h0a4.19,4.19,0,0,1,2.32-.54,3.14,3.14,0,0,1,2,.79,1.75,1.75,0,0,1,.54,1.79,2.55,2.55,0,0,1-1.32,1.61A4.18,4.18,0,0,1,476.3,516.48Zm-1.21-3.73A2,2,0,0,0,474,514a1.18,1.18,0,0,0,.4,1.25,2.53,2.53,0,0,0,1.7.66,3.71,3.71,0,0,0,2-.48,2,2,0,0,0,1.07-1.27,1.23,1.23,0,0,0-.39-1.27,2.62,2.62,0,0,0-1.7-.64A3.74,3.74,0,0,0,475.09,512.75Z" transform="translate(0 0)"/><path class="cls-29" d="M494,495.38a4,4,0,0,0-2.79.94,3.78,3.78,0,0,0-1.43,2.49,3.25,3.25,0,0,0,.78,2.61,3.38,3.38,0,0,0,2.53,1.21,4,4,0,0,0,2.78-.92,3.72,3.72,0,0,0,1.44-2.5,3.26,3.26,0,0,0-.78-2.62,3.48,3.48,0,0,0-2.53-1.21Z" transform="translate(0 0)"/><path class="cls-38" d="M496.25,498a2.5,2.5,0,0,0-1.82-.87,2.87,2.87,0,0,0-2,.67,2.71,2.71,0,0,0-1,1.79,2.35,2.35,0,0,0,.56,1.89,2.49,2.49,0,0,0,1.82.86,2.86,2.86,0,0,0,2-.66,2.66,2.66,0,0,0,1-1.79,2.35,2.35,0,0,0-.56-1.89Z" transform="translate(0 0)"/><path d="M493.3,503.08h-.25a3.8,3.8,0,0,1-2.85-1.36,3.65,3.65,0,0,1-.88-3,4.18,4.18,0,0,1,1.59-2.78,4.43,4.43,0,0,1,3.09-1,3.92,3.92,0,0,1,2.85,1.37,3.64,3.64,0,0,1,.88,3,4.21,4.21,0,0,1-1.6,2.79A4.36,4.36,0,0,1,493.3,503.08Zm.48-7.25a3.52,3.52,0,0,0-2.3.83h0a3.28,3.28,0,0,0-1.26,2.2,2.78,2.78,0,0,0,.67,2.26,2.94,2.94,0,0,0,2.21,1.05,3.53,3.53,0,0,0,2.48-.82,3.26,3.26,0,0,0,1.27-2.21,2.76,2.76,0,0,0-.67-2.26,3,3,0,0,0-2.22-1.06Zm-2.59.49h0Z" transform="translate(0 0)"/><path class="cls-29" d="M504.91,505.15a4.46,4.46,0,0,0-2.73,1.54,3.15,3.15,0,0,0-.76,2.66,3.08,3.08,0,0,0,1.65,2.22,4.79,4.79,0,0,0,5.82-1.05,3.14,3.14,0,0,0,.77-2.67,3.1,3.1,0,0,0-1.66-2.21,4.4,4.4,0,0,0-3.09-.49Z" transform="translate(0 0)"/><path class="cls-38" d="M506,507a3.49,3.49,0,0,0-2.16.62,2.41,2.41,0,0,0-1.11,1.66,2,2,0,0,0,.6,1.73,2.92,2.92,0,0,0,2,.8,3.34,3.34,0,0,0,2.14-.6,2.45,2.45,0,0,0,1.12-1.67,2,2,0,0,0-.6-1.73,3,3,0,0,0-2-.81Z" transform="translate(0 0)"/><path d="M505.22,512.58a4.77,4.77,0,0,1-2.38-.62,3.53,3.53,0,0,1-1.86-2.53,3.62,3.62,0,0,1,.85-3h0a5.23,5.23,0,0,1,6.4-1.15,3.58,3.58,0,0,1,1.87,2.52,3.63,3.63,0,0,1-.86,3,5,5,0,0,1-3,1.68A6,6,0,0,1,505.22,512.58Zm-2.7-5.6a2.67,2.67,0,0,0-.65,2.29,2.63,2.63,0,0,0,1.42,1.91,4.38,4.38,0,0,0,5.26-.95,2.7,2.7,0,0,0,.66-2.3,2.62,2.62,0,0,0-1.43-1.9,4.31,4.31,0,0,0-5.26,1Z" transform="translate(0 0)"/><path class="cls-34" d="M466.93,506.8a.72.72,0,0,0-1-.22c-.82.55-1.38,2.13-1.67,4.76l3.55-2.4a4.86,4.86,0,0,0-.84-2.14Z" transform="translate(0 0)"/><path class="cls-39" d="M484.46,529.75Q473,518.93,456.3,518.94a42.07,42.07,0,0,0-28.89,10.81q-12.17,10.83-12.67,26.13T425.68,582q11.46,10.82,28.17,10.82A42,42,0,0,0,482.73,582q12.18-10.83,12.69-26.14t-11-26.13Z" transform="translate(0 0)"/><path class="cls-40" d="M463.05,519.11a62.71,62.71,0,0,1,8.06,4.68,37.82,37.82,0,0,1,5.48,4.62A40.89,40.89,0,0,0,455,523.79,36.54,36.54,0,0,0,437,530.07a37.89,37.89,0,0,0-12.11,13,29.62,29.62,0,0,0-4.16,15.73c0,.26,0,.6,0,1s0,.85,0,1.05L417,562.18l-1.44,5.12,4.49,8.09,2.74-3a33.47,33.47,0,0,0,2.94,4.82,46.16,46.16,0,0,0,3.92,4.57q9.7,9.95,24.17,10a36.07,36.07,0,0,0,25.25-10,45.43,45.43,0,0,0,5.43-5.92,37.68,37.68,0,0,0,3.9-6.46l3.67,1.11,2.07-5.76-4.12-1a35.47,35.47,0,0,0,.6-4.9,45.18,45.18,0,0,0-.95-13.21,24.46,24.46,0,0,0-4.22-8.91l1.22-4.85a39,39,0,0,0-23.64-12.77Z" transform="translate(0 0)"/><path d="M453.85,593.29c-11.21,0-20.79-3.68-28.48-10.95S414,566.16,414.29,555.87s4.65-19.18,12.82-26.45a42.68,42.68,0,0,1,29.19-10.93c11.21,0,20.79,3.68,28.47,10.94s11.43,16.18,11.1,26.47-4.66,19.18-12.84,26.45A42.61,42.61,0,0,1,453.85,593.29Zm2.45-73.9a41.79,41.79,0,0,0-28.59,10.7c-8,7.1-12.19,15.79-12.52,25.81s3.31,18.7,10.8,25.79,16.89,10.7,27.86,10.7a41.76,41.76,0,0,0,28.59-10.71c8-7.1,12.2-15.79,12.53-25.81s-3.31-18.7-10.82-25.79S467.27,519.39,456.3,519.39Z" transform="translate(0 0)"/><path class="cls-41" d="M442.78,505.27a5,5,0,0,0-2.78-2.09,3.33,3.33,0,0,0-3,.41,3.39,3.39,0,0,0-1.47,2.63,5,5,0,0,0,.94,3.35,4.93,4.93,0,0,0,2.77,2.08,3.32,3.32,0,0,0,4.44-3,4.92,4.92,0,0,0-.92-3.34Zm-6.06,1.12a2.36,2.36,0,0,1,3.16-2.16,4.06,4.06,0,0,1,2.72,4,2.32,2.32,0,0,1-1,1.9,2.39,2.39,0,0,1-2.15.25,3.72,3.72,0,0,1-2-1.54,3.81,3.81,0,0,1-.71-2.45Z" transform="translate(0 0)"/><polygon class="cls-42" points="443.63 506.76 443.08 505.59 442.24 506.38 442.49 507.79 443.63 506.76 443.63 506.76"/><path d="M440.43,512.1a4.32,4.32,0,0,1-1.25-.19,5.33,5.33,0,0,1-2.92-2.18,5.41,5.41,0,0,1-1-3.53,3.67,3.67,0,0,1,1.59-2.84,3.63,3.63,0,0,1,3.21-.44,5.67,5.67,0,0,1,3.89,5.72,3.67,3.67,0,0,1-1.56,2.85A3.5,3.5,0,0,1,440.43,512.1Zm-1.58-8.83a2.87,2.87,0,0,0-1.68.54,3.1,3.1,0,0,0-1.35,2.44,4.8,4.8,0,0,0,.89,3.17,4.71,4.71,0,0,0,2.62,2,3.06,3.06,0,0,0,4.11-2.8,5.12,5.12,0,0,0-3.51-5.15h0A3.9,3.9,0,0,0,438.85,503.27Zm1.47,7.52a3.41,3.41,0,0,1-1-.15,4,4,0,0,1-2.15-1.65,4.1,4.1,0,0,1-.76-2.62h0A2.6,2.6,0,0,1,440,504a4,4,0,0,1,2.17,1.65,4.06,4.06,0,0,1,.75,2.62,2.58,2.58,0,0,1-1.13,2.1A2.41,2.41,0,0,1,440.32,510.79ZM437,506.41a3.8,3.8,0,0,0,2.53,3.72,2.16,2.16,0,0,0,1.92-.22,2.08,2.08,0,0,0,.89-1.7,3.77,3.77,0,0,0-2.53-3.72,2.08,2.08,0,0,0-2.81,1.92Z" transform="translate(0 0)"/><path class="cls-43" d="M434.18,515.93a2.32,2.32,0,0,0-1.77.28,2.66,2.66,0,0,0-1.23,1.45,2.27,2.27,0,0,0,0,1.6,11,11,0,0,1-3,3,12,12,0,0,0,2,2.63,7.67,7.67,0,0,0,1.85,1.32,9.44,9.44,0,0,1,.58-5.7,2.22,2.22,0,0,0,1.7-.29,2.61,2.61,0,0,0,1.22-1.45,2.24,2.24,0,0,0-.05-1.78,1.85,1.85,0,0,0-1.28-1.08Z" transform="translate(0 0)"/><path class="cls-31" d="M413.73,527.07a20,20,0,0,0-6.8,4.22c-1.65,1.63-2.33,3.18-2,4.65a8.13,8.13,0,0,1,3.25-.39c.37-1.65,2.65-2.95,6.85-3.87a44.18,44.18,0,0,0,5.62,10.16l13.48-5.58a49.53,49.53,0,0,1-7.73-8.73,10.52,10.52,0,0,0,3.77-2.62,12,12,0,0,1-2-2.63,9.85,9.85,0,0,1-5.58,1.49,39.66,39.66,0,0,0,3,15,46.84,46.84,0,0,1-6.9-5.55,36.13,36.13,0,0,1-4.95-6.16Z" transform="translate(0 0)"/><path class="cls-43" d="M408,539a1.22,1.22,0,0,0,0,.86,1.63,1.63,0,0,0,.79.85,1.61,1.61,0,0,0,1.15.14,1.14,1.14,0,0,0,.82-.63,1.21,1.21,0,0,0,0-1.05,1.72,1.72,0,0,0-.79-.85,1.58,1.58,0,0,0-1.14-.14,3.3,3.3,0,0,1-.78-2.64,8.13,8.13,0,0,0-3.25.39,7,7,0,0,0-1.14.46A14.19,14.19,0,0,1,408,539Z" transform="translate(0 0)"/><path class="cls-43" d="M419.07,523.26l-4.59,2.06a13.09,13.09,0,0,1-.75,1.75,36.13,36.13,0,0,0,4.95,6.16,46.84,46.84,0,0,0,6.9,5.55,39.66,39.66,0,0,1-3-15,15.33,15.33,0,0,1-3.47-.51Z" transform="translate(0 0)"/><path class="cls-44" d="M408.47,539a1,1,0,0,0,.34,1.48,1.79,1.79,0,0,0,1.95,0c.49-1.46-.08-2.2-1.71-2.25a3.89,3.89,0,0,1-1-2.64h-1.59a5.74,5.74,0,0,0,2,3.45Z" transform="translate(0 0)"/><path class="cls-44" d="M435.08,516.32l-.81-.59-2.61,1.13,1,.44a2.35,2.35,0,0,0-.67,2.21,17.82,17.82,0,0,1-1.49,2.23,6.94,6.94,0,0,1-1.76,1.62l1.46,1.79c.33-.11.53-.1.58,0a11.07,11.07,0,0,1,1.48-5c2.9.58,3.84-.71,2.79-3.86Z" transform="translate(0 0)"/><path class="cls-45" d="M406.47,535.56h1.59c.17-1.8,2.46-3.14,6.84-4l3.53,7,1.12-.65,8.75-4.58a18.94,18.94,0,0,1-2.62-6c2.73-.63,4.25-1.36,4.55-2.22l-1.46-1.79a7.21,7.21,0,0,1-3.65,1.46,7.66,7.66,0,0,1-3.84-.68L414,527.42a22.93,22.93,0,0,0-5.62,4.17c-1.43,1.52-2.07,2.84-1.95,4Z" transform="translate(0 0)"/><path d="M434.29,515.5h0a2.67,2.67,0,0,0-2.1.32,3.09,3.09,0,0,0-1.42,1.68,2.68,2.68,0,0,0-.11,1.69,10.61,10.61,0,0,1-2.77,2.71,9.42,9.42,0,0,1-5.33,1.42,15.41,15.41,0,0,1-3.37-.49l-.15,0-4.91,2.2-.06.19a10.85,10.85,0,0,1-.66,1.53,20.17,20.17,0,0,0-6.78,4.26c-1.65,1.61-2.39,3.17-2.21,4.66-.27.1-.55.22-.83.35l-.9.44.93.39a13.42,13.42,0,0,1,3.93,2.35,1.7,1.7,0,0,0,.14.87h0a2.14,2.14,0,0,0,1,1.08h0a2.07,2.07,0,0,0,1.46.17,1.59,1.59,0,0,0,1.11-.88h0a1.64,1.64,0,0,0,.05-1.42h0a2.14,2.14,0,0,0-1-1.08,2.08,2.08,0,0,0-1.13-.23,2.78,2.78,0,0,1-.55-2.05q.56-2.14,6.14-3.44a44.4,44.4,0,0,0,5.53,9.89l.21.28,14.46-6-.52-.48a48.94,48.94,0,0,1-7.35-8.21,11,11,0,0,0,3.11-2.18,7.94,7.94,0,0,0,1.62,1.09l.8.42-.16-.9a9,9,0,0,1,.42-5.12,2.8,2.8,0,0,0,1.65-.39,3.15,3.15,0,0,0,1.41-1.7h0a2.66,2.66,0,0,0-.06-2.13h0a2.36,2.36,0,0,0-1.59-1.32Zm-27,16.11a19.37,19.37,0,0,1,6.65-4.12l.08,0,.07,0,.08-.16a12.47,12.47,0,0,0,.72-1.61l4.26-1.92a15.89,15.89,0,0,0,3.42.48h0a10.32,10.32,0,0,0,5.59-1.41,12.18,12.18,0,0,0,1.53,2,10.34,10.34,0,0,1-3.45,2.33l-.49.23.3.44a49.11,49.11,0,0,0,7.28,8.33l-12.51,5.17a43.93,43.93,0,0,1-5.35-9.77l-.14-.36-.38.08c-4.29.94-6.67,2.29-7.14,4a8.88,8.88,0,0,0-2.47.28c-.1-1.24.54-2.55,1.94-3.93Zm1.34,6.85.17.23.31-.06a1.09,1.09,0,0,1,.82.1h0a1.17,1.17,0,0,1,.58.62.81.81,0,0,1,0,.68h0a.74.74,0,0,1-.53.4,1.22,1.22,0,0,1-1.41-.73h0a.73.73,0,0,1,0-.54l.08-.3-.21-.18a14.84,14.84,0,0,0-3.56-2.34l.61-.26a8.41,8.41,0,0,1,2.29-.29,3.88,3.88,0,0,0,.91,2.67Zm24-21.86a1.86,1.86,0,0,1,1.44-.23,1.47,1.47,0,0,1,1,.83h0a1.79,1.79,0,0,1,0,1.42,2.2,2.2,0,0,1-1,1.23,1.93,1.93,0,0,1-1.39.24l-.36-.08-.15.33a9.74,9.74,0,0,0-.74,5,8.78,8.78,0,0,1-1.41-1,12.65,12.65,0,0,1-1.44-1.89,11.63,11.63,0,0,0,2.94-3l.13-.18-.08-.23a1.86,1.86,0,0,1,0-1.29h0a2.17,2.17,0,0,1,1-1.21Z" transform="translate(0 0)"/><path class="cls-43" d="M422.54,524.22h0a15.89,15.89,0,0,1-3.42-.48l-4.26,1.92a12.47,12.47,0,0,1-.72,1.61l-.08.16-.07,0a35.67,35.67,0,0,0,4.7,5.78,46.84,46.84,0,0,0,6.9,5.55,40.08,40.08,0,0,1-3-14.56Z" transform="translate(0 0)"/><path d="M425.58,538.87l-.05,0a46.72,46.72,0,0,1-6.91-5.55,36,36,0,0,1-4.72-5.8.09.09,0,0,1,0-.12.08.08,0,0,1,.12,0,35.57,35.57,0,0,0,4.69,5.77,46.17,46.17,0,0,0,6.66,5.38,40.05,40.05,0,0,1-2.95-14.33.09.09,0,0,1,.09-.09h0a.09.09,0,0,1,.09.09,40.1,40.1,0,0,0,3,14.53.1.1,0,0,1,0,.1Z" transform="translate(0 0)"/><path class="cls-46" d="M445.12,503.45l-.48-.4c-2.68,2.06-4.89,3.18-6.63,3.39a2.81,2.81,0,0,0,2.08,2.81c.71-1.59,2.44-3.37,5.2-5.32l-.17-.48Z" transform="translate(0 0)"/><path class="cls-29" d="M438,506.44c-.85,0-1.48.06-1.88.1a6.26,6.26,0,0,0-2.15.68,13.12,13.12,0,0,0-5.08,4.34q-1.56,2.45-.54,4.14c.87,1,2.25,1.24,4.12.72a12.85,12.85,0,0,0,5.65-3.55,6,6,0,0,0,1.3-1.84c.15-.39.37-1,.66-1.78a2.81,2.81,0,0,1-2.08-2.81Z" transform="translate(0 0)"/><path class="cls-47" d="M444.15,504.41v-.64a23.63,23.63,0,0,1-5.7,4.2l1.47,1.39a25.62,25.62,0,0,1,4.23-4.95Z" transform="translate(0 0)"/><path class="cls-48" d="M430.19,515.25c.65.75,1.69.94,3.11.55a8.51,8.51,0,0,0,3.61-1.88,10,10,0,0,0,1.71-1.86l.7-1.34a5,5,0,0,1,.6-1.36L438.45,508a2.93,2.93,0,0,1-1,.27,4.78,4.78,0,0,0-1.55.28,13.16,13.16,0,0,0-2.19,1.46,25.6,25.6,0,0,0-3,2.6c-.91.92-1.11,1.82-.59,2.67Z" transform="translate(0 0)"/><path d="M440.09,509.52a.15.15,0,0,1-.09,0,3,3,0,0,1-2.25-3.06.25.25,0,0,1,.26-.27h0a.27.27,0,0,1,.27.27,2.54,2.54,0,0,0,1.9,2.56.27.27,0,0,1,.17.34A.28.28,0,0,1,440.09,509.52Z" transform="translate(0 0)"/><path d="M430.74,517.13A3.44,3.44,0,0,1,428,516l0-.06c-.78-1.29-.6-2.85.54-4.62a13.62,13.62,0,0,1,5.25-4.5,6.52,6.52,0,0,1,2.31-.72c.41-.05,1.05-.08,1.9-.11,1.66-.21,3.8-1.31,6.39-3.3a.44.44,0,0,1,.56,0l.48.4a.5.5,0,0,1,.13.19l.17.48a.46.46,0,0,1-.16.52c-2.66,1.87-4.36,3.6-5,5.12-.32.88-.54,1.45-.67,1.78h0a6.72,6.72,0,0,1-1.39,2,13.45,13.45,0,0,1-5.85,3.67A7.32,7.32,0,0,1,430.74,517.13Zm-2-1.69c.76.83,1.95,1,3.64.55a12.54,12.54,0,0,0,5.45-3.43,5.57,5.57,0,0,0,1.2-1.7c.13-.33.35-.89.66-1.76v0c.72-1.62,2.43-3.4,5.07-5.31l0,0-.11-.1c-2.59,2-4.8,3.05-6.55,3.26h0c-.84,0-1.46.06-1.85.1a5.62,5.62,0,0,0-2,.63,12.7,12.7,0,0,0-4.91,4.18C428.34,513.27,428.16,514.46,428.72,515.44Z" transform="translate(0 0)"/><path class="cls-29" d="M432.1,515h0a.47.47,0,0,1-.39-.26l-.6-1.29-1-.43a.45.45,0,0,1-.27-.34.46.46,0,0,1,.14-.4l1.08-1a.45.45,0,1,1,.61.66l-.56.52.52.22a.41.41,0,0,1,.23.22l.3.65.48-.85a.44.44,0,0,1,.36-.24l1.33-.08-.47-.52a.46.46,0,0,1-.11-.3v-1l-.85.39a.45.45,0,0,1-.59-.22.44.44,0,0,1,.22-.6l1.48-.67a.45.45,0,0,1,.64.41v1.53l1,1.09a.43.43,0,0,1,.08.47.44.44,0,0,1-.39.28l-2,.12-.78,1.41A.45.45,0,0,1,432.1,515Z" transform="translate(0 0)"/><path class="cls-29" d="M447.49,502.87a1.74,1.74,0,0,0-3-1.23,1.71,1.71,0,0,0-.5,1.23,1.73,1.73,0,0,0,3,1.22,1.65,1.65,0,0,0,.51-1.22Z" transform="translate(0 0)"/><path d="M445.75,505.05a2.08,2.08,0,0,1-1.54-.64,2.2,2.2,0,0,1,0-3.09,2.19,2.19,0,0,1,1.55-.64,2.1,2.1,0,0,1,1.54.64h0a2.16,2.16,0,0,1,0,3.09A2.08,2.08,0,0,1,445.75,505.05Zm0-3.47a1.27,1.27,0,0,0-.91.38,1.23,1.23,0,0,0-.37.91,1.21,1.21,0,0,0,.37.9,1.23,1.23,0,0,0,.91.38,1.3,1.3,0,0,0,1.29-1.28,1.24,1.24,0,0,0-.38-.92h0A1.23,1.23,0,0,0,445.75,501.58Z" transform="translate(0 0)"/><polygon class="cls-31" points="434.13 509.82 433.38 510.17 430.58 512.71 431.39 513.05 432.06 514.5 432.96 512.87 435.21 512.74 434.13 511.52 434.13 509.82 434.13 509.82"/><polygon class="cls-26" points="433.38 510.17 432.65 510.49 431.39 509.77 431.3 511.57 430.22 512.56 430.58 512.71 433.38 510.17 433.38 510.17"/><path d="M432.06,514.68h0a.18.18,0,0,1-.16-.1l-.64-1.39-1.11-.47a.16.16,0,0,1-.11-.13.19.19,0,0,1,.06-.16l1-.94.09-1.73a.19.19,0,0,1,.09-.15.17.17,0,0,1,.18,0l1.18.67.64-.29.76-.35a.18.18,0,0,1,.25.17v1.64l1,1.16a.19.19,0,0,1,0,.19.21.21,0,0,1-.16.11l-2.15.13-.85,1.54A.19.19,0,0,1,432.06,514.68Zm-1.51-2.18.91.39a.16.16,0,0,1,.09.09l.53,1.12.73-1.31a.18.18,0,0,1,.14-.1l1.88-.11-.83-.94a.17.17,0,0,1-.05-.12V510.1l-.5.23h0l-.73.33a.18.18,0,0,1-.16,0l-1-.58-.08,1.51a.14.14,0,0,1-.06.12Zm2.83-2.33Z" transform="translate(0 0)"/><path class="cls-41" d="M443.7,508.61a4.29,4.29,0,0,0,0-.8h-1.1a3,3,0,0,1,0,.42,2.32,2.32,0,0,1-1,1.9,2.39,2.39,0,0,1-2.15.25,3.72,3.72,0,0,1-2-1.54,3.81,3.81,0,0,1-.71-2.45,2.36,2.36,0,0,1,3.16-2.16l.12,0v-1.1a3.33,3.33,0,0,0-3,.41,3.39,3.39,0,0,0-1.47,2.63,5,5,0,0,0,.94,3.35,4.93,4.93,0,0,0,2.77,2.08,3.32,3.32,0,0,0,4.44-3Z" transform="translate(0 0)"/><path d="M440.43,512.1a4.32,4.32,0,0,1-1.25-.19,5.33,5.33,0,0,1-2.92-2.18,5.41,5.41,0,0,1-1-3.53,3.67,3.67,0,0,1,1.59-2.84,3.63,3.63,0,0,1,3.21-.44.28.28,0,0,1,.18.34.27.27,0,0,1-.33.18,3.06,3.06,0,0,0-2.76.37,3.1,3.1,0,0,0-1.35,2.44,4.8,4.8,0,0,0,.89,3.17,4.71,4.71,0,0,0,2.62,2,3.06,3.06,0,0,0,4.11-2.8,4.82,4.82,0,0,0,0-.76.28.28,0,0,1,.26-.29.27.27,0,0,1,.28.25,4.79,4.79,0,0,1,0,.85,3.67,3.67,0,0,1-1.56,2.85A3.5,3.5,0,0,1,440.43,512.1Zm-.11-1.31a3.41,3.41,0,0,1-1-.15,4,4,0,0,1-2.15-1.65,4.1,4.1,0,0,1-.76-2.62,2.61,2.61,0,0,1,3.49-2.4l.14,0h0a.27.27,0,1,1-.2.5h0l-.05,0h0a2.08,2.08,0,0,0-2.81,1.92,3.8,3.8,0,0,0,2.53,3.72,2.16,2.16,0,0,0,1.92-.22,2.08,2.08,0,0,0,.89-1.7,2.41,2.41,0,0,0,0-.38.27.27,0,0,1,.25-.29.28.28,0,0,1,.29.25,3.26,3.26,0,0,1,0,.45,2.59,2.59,0,0,1-1.13,2.11A2.41,2.41,0,0,1,440.32,510.79Z" transform="translate(0 0)"/><path class="cls-49" d="M426.19,509.56a7.3,7.3,0,0,0-3.66-4.76,25.87,25.87,0,0,0-6.65-2.33c-1.69-.38-3-.69-3.84-.9-1.53-.36-2.83-.72-3.9-1.07a19.48,19.48,0,0,1-6.94-3.71,18.18,18.18,0,0,1,.09,7.23,62,62,0,0,1-1.79,6.84,37.35,37.35,0,0,0-1.5,6.2,8.49,8.49,0,0,0,.95,5.36,7.61,7.61,0,0,0,3.73,2.82,21.17,21.17,0,0,0,5.81,1.48,25.48,25.48,0,0,0,6,.12,10.07,10.07,0,0,0,4.4-1.27,17.25,17.25,0,0,0,5.95-7.11,13.46,13.46,0,0,0,1.33-8.9Z" transform="translate(0 0)"/><path d="M412.07,527.42a28.56,28.56,0,0,1-3.64-.25,21.77,21.77,0,0,1-5.93-1.52,8,8,0,0,1-3.94-3,9,9,0,0,1-1-5.64,38.82,38.82,0,0,1,1.52-6.28,58.5,58.5,0,0,0,1.77-6.79,17.44,17.44,0,0,0-.08-7l-.33-1.38,1.06.94a19.37,19.37,0,0,0,6.79,3.61c1.07.35,2.36.71,3.86,1.07l.36.08c.85.2,2,.48,3.48.81a26.44,26.44,0,0,1,6.77,2.38h0a7.75,7.75,0,0,1,3.88,5,13.92,13.92,0,0,1-1.36,9.19,17.73,17.73,0,0,1-6.11,7.29,10.3,10.3,0,0,1-4.6,1.35C413.75,527.37,412.92,527.42,412.07,527.42Zm-10.2-29.51a19.37,19.37,0,0,1-.14,6.19,60.5,60.5,0,0,1-1.8,6.89,38.37,38.37,0,0,0-1.49,6.12,8.09,8.09,0,0,0,.9,5.08,7.18,7.18,0,0,0,3.51,2.64,21.31,21.31,0,0,0,5.69,1.45,25.14,25.14,0,0,0,5.92.11,9.48,9.48,0,0,0,4.2-1.2,16.84,16.84,0,0,0,5.8-6.93,13.12,13.12,0,0,0,1.3-8.59,6.8,6.8,0,0,0-3.46-4.48h0a25.88,25.88,0,0,0-6.52-2.28l-3.48-.81-.37-.09c-1.52-.37-2.84-.73-3.93-1.09A21.77,21.77,0,0,1,401.87,497.91Z" transform="translate(0 0)"/><path class="cls-50" d="M425.22,512.61a7.43,7.43,0,0,0-2.87-5.3A9.34,9.34,0,0,0,417.5,505a41,41,0,0,1-4.75-.73,28.83,28.83,0,0,1-4.66-1.38,24,24,0,0,1-4.91-2.78,14.25,14.25,0,0,1-.2,6.16,48.49,48.49,0,0,1-1.9,5.76,31.56,31.56,0,0,0-1.61,5.24,6.82,6.82,0,0,0,.66,4.6,9.31,9.31,0,0,0,2.69,2.77,10.87,10.87,0,0,0,5,1.7,42.31,42.31,0,0,0,6,.34,9.94,9.94,0,0,0,5.16-1.54,14.8,14.8,0,0,0,4.47-5.39,12.5,12.5,0,0,0,1.85-7.17Z" transform="translate(0 0)"/><path class="cls-49" d="M414.24,524.42H414a22.24,22.24,0,0,1-5.95-1.13,12,12,0,0,1-6.35-4,5.08,5.08,0,0,1-.87-5.12,6,6,0,0,1,4.17-3.48,12.77,12.77,0,0,1,6.81.14,7.1,7.1,0,0,1,2.78-4.79,6.46,6.46,0,0,1,5.34-1.22,5.67,5.67,0,0,1,4.28,3.4c.9,2.05.76,4.56-.42,7.46a33.08,33.08,0,0,1-1.86,3.94c-.17.3-.33.57-.49.8A9.56,9.56,0,0,1,419,523a6,6,0,0,1-.66.42,8.11,8.11,0,0,1-3.64.95ZM408,511.94a9,9,0,0,0-2.49.33,4.41,4.41,0,0,0-3.13,2.52,3.53,3.53,0,0,0,.66,3.56,10.42,10.42,0,0,0,5.53,3.38,21.58,21.58,0,0,0,5.53,1.07c.21,0,.42,0,.61,0a6.51,6.51,0,0,0,2.93-.76,5.7,5.7,0,0,0,.5-.31,8.23,8.23,0,0,0,2-2.18c.14-.2.27-.42.43-.69a31.57,31.57,0,0,0,1.76-3.75c1-2.48,1.15-4.57.44-6.2a4,4,0,0,0-3.12-2.46h0a4.79,4.79,0,0,0-4,.92,5.77,5.77,0,0,0-2.24,4.59l-.06,1-1-.31A14.48,14.48,0,0,0,408,511.94Z" transform="translate(0 0)"/><path class="cls-51" d="M419.69,505.47a5.64,5.64,0,0,0-4.7,1.07,6.59,6.59,0,0,0-2.56,5.18,12.59,12.59,0,0,0-7.28-.4,5.19,5.19,0,0,0-3.65,3,4.3,4.3,0,0,0,.77,4.34,11.12,11.12,0,0,0,5.94,3.68,35.46,35.46,0,0,1,3.88-2.79,34.12,34.12,0,0,1,3.68-2,33.7,33.7,0,0,1,4-1.53c1-.32,2.1-.6,3.19-.82q1.65-4.07.43-6.83a4.86,4.86,0,0,0-3.7-2.93Z" transform="translate(0 0)"/><path class="cls-26" d="M423,515.23c-1.09.22-2.15.5-3.19.82l1.38,3a32.24,32.24,0,0,0,1.81-3.84Z" transform="translate(0 0)"/><path class="cls-26" d="M412.09,519.54a35.46,35.46,0,0,0-3.88,2.79,22.48,22.48,0,0,0,5.74,1.1h.67l-2.53-3.88Z" transform="translate(0 0)"/><path class="cls-26" d="M420.69,519.81a7.25,7.25,0,0,0,.46-.74l-1.38-3a33.7,33.7,0,0,0-4,1.53l2.71,4.61a8.66,8.66,0,0,0,2.21-2.38Z" transform="translate(0 0)"/><path class="cls-26" d="M417.9,522.56a4,4,0,0,0,.58-.37l-2.71-4.61a34.12,34.12,0,0,0-3.68,2l2.53,3.88a7.33,7.33,0,0,0,3.28-.86Z" transform="translate(0 0)"/><path d="M414.15,523.7h-.21a22.73,22.73,0,0,1-5.81-1.11h0a11.41,11.41,0,0,1-6.08-3.78,4.56,4.56,0,0,1-.8-4.6,5.47,5.47,0,0,1,3.83-3.15,12.6,12.6,0,0,1,7.11.31,6.77,6.77,0,0,1,2.64-5.05,5.91,5.91,0,0,1,4.91-1.12,5.16,5.16,0,0,1,3.9,3.09c.83,1.9.69,4.27-.43,7h0a33.58,33.58,0,0,1-1.82,3.87h0a8.88,8.88,0,0,1-.46.76,9,9,0,0,1-2.28,2.45h0c-.21.14-.41.27-.61.38a7.77,7.77,0,0,1-3.4.89h-.48Zm-5.38-1.48a21.56,21.56,0,0,0,5.19.94h.17L412,519.91A34.68,34.68,0,0,0,408.77,522.22Zm3.7-2.59,2.29,3.51a7.13,7.13,0,0,0,3-.81l.35-.22-2.46-4.18A30.74,30.74,0,0,0,412.47,519.63Zm-4.6-8.41a9.36,9.36,0,0,0-2.64.36,4.88,4.88,0,0,0-3.48,2.83,4,4,0,0,0,.73,4.08,10.78,10.78,0,0,0,5.67,3.54,35,35,0,0,1,3.8-2.72h0a34.83,34.83,0,0,1,3.7-2h0a31.89,31.89,0,0,1,4-1.54h0c1-.32,2.07-.59,3.07-.81,1-2.56,1.15-4.75.38-6.49a4.56,4.56,0,0,0-3.51-2.77,5.38,5.38,0,0,0-4.47,1,6.29,6.29,0,0,0-2.46,5l0,.34-.33-.1A14.92,14.92,0,0,0,407.87,511.22Zm8.28,6.48,2.41,4.1a9,9,0,0,0,1.91-2.14c.12-.17.24-.37.38-.61l-1.23-2.67A34.21,34.21,0,0,0,416.15,517.7Zm4-1.48,1,2.25a29.34,29.34,0,0,0,1.34-2.87C421.73,515.77,420.94,516,420.14,516.22Z" transform="translate(0 0)"/><path class="cls-37" d="M406.8,515.35a1.12,1.12,0,0,0-.43.88,1.11,1.11,0,0,0,.43.88,1.69,1.69,0,0,0,2.11,0,1.09,1.09,0,0,0,.44-.88,1.1,1.1,0,0,0-.44-.88,1.77,1.77,0,0,0-2.11,0Z" transform="translate(0 0)"/><path d="M407.86,517.74a1.89,1.89,0,0,1-1.23-.42,1.36,1.36,0,0,1-.53-1.09,1.39,1.39,0,0,1,.52-1.08,1.94,1.94,0,0,1,1.24-.42,1.91,1.91,0,0,1,1.22.41,1.37,1.37,0,0,1,0,2.18A1.86,1.86,0,0,1,407.86,517.74Zm0-2.47a1.4,1.4,0,0,0-.9.3.83.83,0,0,0,0,1.33,1.38,1.38,0,0,0,.89.31,1.32,1.32,0,0,0,.88-.31.82.82,0,0,0,.34-.67.84.84,0,0,0-.34-.67A1.37,1.37,0,0,0,407.86,515.27Z" transform="translate(0 0)"/><path class="cls-37" d="M419.69,511.67a1.57,1.57,0,0,0,.21-1.09,1.06,1.06,0,0,0-.54-.8,1.09,1.09,0,0,0-1-.07,1.7,1.7,0,0,0-1.05,1.81,1.09,1.09,0,0,0,1.51.88,1.7,1.7,0,0,0,.84-.73Z" transform="translate(0 0)"/><path d="M418.4,512.76a1.25,1.25,0,0,1-.65-.18,1.39,1.39,0,0,1-.68-1,1.94,1.94,0,0,1,1.23-2.11,1.38,1.38,0,0,1,1.87,1.08h0a1.87,1.87,0,0,1-.25,1.27,2,2,0,0,1-1,.84A1.58,1.58,0,0,1,418.4,512.76Zm.42-2.86a1.06,1.06,0,0,0-.34.06,1.37,1.37,0,0,0-.7.61,1.28,1.28,0,0,0-.17.91.85.85,0,0,0,.4.63.8.8,0,0,0,.74,0,1.3,1.3,0,0,0,.7-.61,1.27,1.27,0,0,0,.19-.9.83.83,0,0,0-.41-.62A.87.87,0,0,0,418.82,509.9Z" transform="translate(0 0)"/><path class="cls-48" d="M446.56,502.43a1,1,0,0,0-.71-.29,1,1,0,0,0-1,1,1,1,0,0,0,.29.72,1,1,0,0,0,.71.29,1,1,0,0,0,1-1,1,1,0,0,0-.3-.71Z" transform="translate(0 0)"/><path d="M427,591.94a.45.45,0,0,1-.2-.85l4.66-2.25a.44.44,0,0,1,.6.21.45.45,0,0,1-.21.6l-4.66,2.24A.32.32,0,0,1,427,591.94ZM423.76,589a.44.44,0,0,1-.27-.09.45.45,0,0,1-.09-.63l4.89-6.39a.46.46,0,0,1,.63-.08.45.45,0,0,1,.09.63l-4.89,6.38A.45.45,0,0,1,423.76,589Zm-4-2.92-.16,0a.45.45,0,0,1-.26-.58l1.46-4a.44.44,0,0,1,.58-.27.45.45,0,0,1,.27.57l-1.47,4A.46.46,0,0,1,419.76,586.1Z" transform="translate(0 0)"/><path class="cls-29" d="M423.44,587.36A26.8,26.8,0,0,0,415.8,583l-.54,5.3,2.18,1.74,5,4,2.09,1.66,5.44-1.53a40,40,0,0,0-6.57-6.78Z" transform="translate(0 0)"/><path class="cls-41" d="M424.57,595.67,422.48,594a4.89,4.89,0,0,1-2.6,2,3,3,0,0,1-2.64-.56,2.72,2.72,0,0,1-1.12-2.59,5,5,0,0,1,1.32-2.83l-2.18-1.74a8.66,8.66,0,0,0-2.34,4.74,5.15,5.15,0,0,0,2,4.44A5.8,5.8,0,0,0,420,599a7,7,0,0,0,4.6-3.33Z" transform="translate(0 0)"/><path class="cls-52" d="M417.44,590a5,5,0,0,0-1.32,2.83,2.72,2.72,0,0,0,1.12,2.59,3,3,0,0,0,2.64.56,4.89,4.89,0,0,0,2.6-2l-5-4Z" transform="translate(0 0)"/><path class="cls-42" d="M423.9,595l-1.72-1.37L418,590.31l-1.79-1.44a7.28,7.28,0,0,0-1.94,3.92,4.29,4.29,0,0,0,1.64,3.67,4.83,4.83,0,0,0,4.19,1.29A5.7,5.7,0,0,0,423.9,595Z" transform="translate(0 0)"/><path class="cls-38" d="M423.4,594.82l4.54-1.4a27.27,27.27,0,0,0-10.47-8.68l-.68,4.4,6.61,5.68Z" transform="translate(0 0)"/><path class="cls-41" d="M415,594.28a1,1,0,0,0,.32-.74,1.06,1.06,0,1,0-2.11,0,1,1,0,0,0,.31.74,1,1,0,0,0,1.48,0Z" transform="translate(0 0)"/><path class="cls-53" d="M417.44,590a5,5,0,0,0-1.32,2.83,2.72,2.72,0,0,0,1.12,2.59,3,3,0,0,0,2.64.56,4.89,4.89,0,0,0,2.6-2l-5-4Z" transform="translate(0 0)"/><path d="M419.09,596.34a3.26,3.26,0,0,1-2-.72,3,3,0,0,1-1.23-2.82,5.14,5.14,0,0,1,1.21-2.77l-2-1.57a.26.26,0,0,1-.05-.37.27.27,0,0,1,.38-.05l2.18,1.74h0l5,4h0l2.09,1.66a.27.27,0,0,1-.34.42l-1.87-1.49a5,5,0,0,1-2.58,1.84A3.69,3.69,0,0,1,419.09,596.34Zm-1.61-6a4.64,4.64,0,0,0-1.09,2.48,2.45,2.45,0,0,0,1,2.35,2.7,2.7,0,0,0,2.42.52,4.46,4.46,0,0,0,2.29-1.66Z" transform="translate(0 0)"/><path d="M418.93,599.54a6.41,6.41,0,0,1-4.32-1.77,5.59,5.59,0,0,1-2.14-4.82,8.89,8.89,0,0,1,2.36-4.88l.58-5.74.55.2a27.39,27.39,0,0,1,7.77,4.48h0a40.45,40.45,0,0,1,6.63,6.86l.41.52-5.92,1.67a7.37,7.37,0,0,1-4.8,3.38A6.14,6.14,0,0,1,418.93,599.54Zm-2.74-16-.49,4.86-.09.11a8.2,8.2,0,0,0-2.24,4.48,4.64,4.64,0,0,0,1.83,4.06,5.3,5.3,0,0,0,4.69,1.46,6.53,6.53,0,0,0,4.3-3.13l.09-.14,5-1.39a39.58,39.58,0,0,0-6.08-6.18h0A26.57,26.57,0,0,0,416.19,583.58Z" transform="translate(0 0)"/><path class="cls-52" d="M420.3,579.53a2.06,2.06,0,0,0,1.33,2.29,1.52,1.52,0,0,0,1.27-.11,1.46,1.46,0,0,0,.72-1.05,2,2,0,0,0-.26-1.39,1.91,1.91,0,0,0-1.07-.89,1.46,1.46,0,0,0-2,1.15Z" transform="translate(0 0)"/><path class="cls-52" d="M427.94,580.14a1.5,1.5,0,0,0,.09,1.32,2,2,0,0,0,1.08,1,2,2,0,0,0,1.45,0,1.54,1.54,0,0,0,1-.91,1.52,1.52,0,0,0-.09-1.33,1.9,1.9,0,0,0-1.08-1,2,2,0,0,0-1.45,0,1.53,1.53,0,0,0-1,.92Z" transform="translate(0 0)"/><path class="cls-52" d="M432.21,587.18a1.47,1.47,0,0,0-.9.72,1.14,1.14,0,0,0,0,1.05,1.58,1.58,0,0,0,.87.79,1.77,1.77,0,0,0,1.24,0,1.35,1.35,0,0,0,.88-.7,1.14,1.14,0,0,0,0-1.06,1.58,1.58,0,0,0-.87-.77,1.83,1.83,0,0,0-1.24-.07Z" transform="translate(0 0)"/><path d="M432.86,590.32a2.15,2.15,0,0,1-.85-.17,2,2,0,0,1-1.11-1,1.56,1.56,0,0,1,0-1.44h0a1.88,1.88,0,0,1,1.16-.94,2.24,2.24,0,0,1,1.55.07,2,2,0,0,1,1.1,1,1.59,1.59,0,0,1,0,1.47,1.77,1.77,0,0,1-1.15.92A2.07,2.07,0,0,1,432.86,590.32Zm-1.15-2.21a.66.66,0,0,0,0,.64,1.17,1.17,0,0,0,.64.57,1.3,1.3,0,0,0,.93,0,.91.91,0,0,0,.62-.47.69.69,0,0,0,0-.67,1.16,1.16,0,0,0-.63-.55,1.39,1.39,0,0,0-.94,0A1,1,0,0,0,431.71,588.11ZM429.9,583a2.66,2.66,0,0,1-.95-.18,2.38,2.38,0,0,1-1.32-1.19,2,2,0,0,1,1.13-2.86,2.59,2.59,0,0,1,3.09,1.23,2,2,0,0,1,.1,1.69,2,2,0,0,1-1.24,1.17A2.51,2.51,0,0,1,429.9,583Zm-.34-3.48a1.51,1.51,0,0,0-.5.09,1.1,1.1,0,0,0-.7.66,1,1,0,0,0,.07,1h0a1.55,1.55,0,0,0,.84.75,1.6,1.6,0,0,0,1.14,0,1.11,1.11,0,0,0,.64-1.6,1.52,1.52,0,0,0-.85-.76A1.92,1.92,0,0,0,429.56,579.55Zm-7.39,2.81a2.08,2.08,0,0,1-.68-.12,2.48,2.48,0,0,1-1.63-2.79,1.87,1.87,0,0,1,.92-1.36,1.94,1.94,0,0,1,1.66-.14,2.34,2.34,0,0,1,1.31,1.1,2.42,2.42,0,0,1,.32,1.68,1.95,1.95,0,0,1-1.9,1.63Zm-.43-3.63a1,1,0,0,0-1,.88,1.62,1.62,0,0,0,1,1.78,1,1,0,0,0,.9-.07,1,1,0,0,0,.51-.75,1.52,1.52,0,0,0-.2-1.07,1.6,1.6,0,0,0-.83-.7A1.22,1.22,0,0,0,421.74,578.73Z" transform="translate(0 0)"/><path class="cls-39" d="M448.77,522.1A16.48,16.48,0,0,0,435.2,527c-1.5,1.72-2,3.31-1.45,4.79s1.93,2.41,4.17,2.78a16.56,16.56,0,0,0,13.56-4.87c1.5-1.71,2-3.3,1.45-4.79s-1.93-2.41-4.16-2.77Z" transform="translate(0 0)"/><path class="cls-40" d="M444.21,532.4a14.2,14.2,0,0,0,5.67-3.06c1.41-1.32,1.94-2.57,1.59-3.73s-1.48-1.91-3.39-2.23a14.36,14.36,0,0,0-6.42.59A14.14,14.14,0,0,0,436,527q-2.12,2-1.59,3.73c.35,1.16,1.48,1.91,3.39,2.23a14.36,14.36,0,0,0,6.42-.59Z" transform="translate(0 0)"/><path d="M512,546.81l-.12-.12a67.48,67.48,0,0,0-12.57-11l-.57-.38-.28,1.48a139.58,139.58,0,0,0-14.8-5.92h-.12a144.41,144.41,0,0,0-24.56-3.6l-.47,0-.19,9.2a.17.17,0,0,0,0,.07l1.2,8.66,2.84,1.76-3.58-.05-8.92-18.67L438.76,530l-1.46,6.7-3.36-5.62a.41.41,0,0,0-.23-.2.55.55,0,0,0-.31,0,89.35,89.35,0,0,0-10.51,4.66h0q-4,2.07-7.87,4.58h0a113.81,113.81,0,0,0-13.53,10.24l-.13.12,0,.18a52.9,52.9,0,0,0,3,21.5.51.51,0,0,0,.13.18.52.52,0,0,0,.18.1l11.32,2.85,4.32-4.79a.69.69,0,0,0,.1-.19.41.41,0,0,0,0-.22l-1-3.88,6.6,4,6.62-1.7h0l6.41-1.67,7.86-1.24a.53.53,0,0,0,.24-.11.71.71,0,0,0,.13-.22l2.48-9.61,2.45,8,6.41-1.59V563l17.88.92,13.74,2.62.09,0,5.25,1,1.48-1.77.72,7.52,5.11-.38.09,0,6.76-2-1.8-11.47,2.94-2.35a.46.46,0,0,0,.15-.23,33.78,33.78,0,0,0,1-9.84v-.16Zm-1.84,9.63-.26.21-2.15,1.72-.51-3.12-1-.55.73,4.55v0l1.73,10.94L503,571.91l-.31.1-.23,0-3.94.29-.73-7.52,3.72-4.39.5-.59,0,0,.06-.07-.86-.38-.24.29-4,4.75h0l-1.82,2.17-4.15-.8,4.14-7.23.06-.12a.69.69,0,0,0,.05-.13h0l.05-.26,1.23-6.48,0-.06a.37.37,0,0,0,0-.11l2.62-13.78h0a0,0,0,0,1,0,0l.13-.67a67,67,0,0,1,11.74,10.31,33.07,33.07,0,0,1-.89,9l-.06.23Zm-76.75-24.55.37.63L437,538l-3.16,14.52-.38,1.8-1.09,5v0a.5.5,0,0,0,0,.21.06.06,0,0,0,0,0,.34.34,0,0,0,.08.14l.08.09,5.51,6.39-5.52,1.43L426,562.15l-.29-.25v.18a.43.43,0,0,1-.11.32.41.41,0,0,1-.31.16.44.44,0,0,1-.32-.1l0,0,6.46,5.44-5.41,1.4-7.24-4.4h0l-.24-.16-.44-.26s0-.09,0-.14c-.14-.67-.27-1.35-.41-2v0a0,0,0,0,0,0,0v0c-.5-2.49-.9-4.95-1.22-7.39a95.1,95.1,0,0,1-.79-14.1q3.46-2.22,7-4.1l.33,7.81.89-.34-.34-7.93a85.61,85.61,0,0,1,9.7-4.3l.13-.06ZM402.17,551a113.86,113.86,0,0,1,12.58-9.59,97.23,97.23,0,0,0,.79,13.54s0,.06,0,.1l0,.2,0,.29c.27,2,.61,4.05,1,6.09l-6-3.06-.5-.27,0,0a.55.55,0,0,1,.12.14.39.39,0,0,1,.06.15.48.48,0,0,1,0,.29l0,0a.47.47,0,0,1-.28.18h0a.48.48,0,0,1-.33-.07l0,0a.27.27,0,0,0,.08.07l.59.3,6.55,3.36c.14.71.29,1.42.45,2.14a.19.19,0,0,0,.08.16.37.37,0,0,0,.12.13l.72.43,1.18,4.55-3.79,4.21-10.05-2.53-.52-.13c0-.05,0-.1,0-.15A52.14,52.14,0,0,1,402.17,551Zm43.88-6.6h0l-.42,1.33,3.52,8.58-2.73,10.56-.13,0L439.06,566l-5.56-6.44-.2-.22h0l.07-.29,4.56-21v0l1.58-7.19,9.8-1.6L458,547.45l.35,6,0,.54.15,2.7v4.48l-5.8,1.43-2-6.68-.08-.26v0a0,0,0,0,0,0,0l-.07-.2-.51-1.33h0v0h0l-4-9.69Zm13.26-7.06-.12-.81v-.07l.17-8.22A142.56,142.56,0,0,1,483,531.69l.89.26a139.22,139.22,0,0,1,14.37,5.79l-1.37,7.19-.17.9-.94,5-.17.89-1.17,6.15,0,.19-.19.32-4.13,7.23-12.8-2.43,4.84-6.17a.36.36,0,0,0,.09-.24l.05-.66,0-.54.52-7.74a.31.31,0,0,0,0-.19.44.44,0,0,0-.1-.16l0,0L480.33,545l2.76-5.83-.52-.13h0l-2.63,5.55-.42.85,2.39,2.49-.58,8.5v.1L481,557l-4.73,6-16.79-.87v-5.69l-.5-8.62,12.48.17-.94-.9-6.41-.09-3.74-2.33-1-7.33Z" transform="translate(0 0)"/><polygon class="cls-26" points="502.02 559.82 501.52 560.41 502.48 572.03 502.7 572.01 503.01 571.91 502.02 559.82 502.02 559.82"/><polygon class="cls-43" points="502.48 572.03 501.52 560.41 497.8 564.8 498.53 572.32 502.48 572.03 502.48 572.03"/><polygon class="cls-54" points="501.01 559.62 495.15 558.52 491.01 565.75 495.16 566.55 496.98 564.38 496.99 564.37 501.01 559.62 501.01 559.62"/><polygon class="cls-54" points="507.2 555.25 507.71 558.37 509.86 556.65 507.2 555.25 507.2 555.25"/><path class="cls-26" d="M509.86,556.65l.26-.21.06-.23-3.4-1.82-.68-.34.11.65,1,.55,2.66,1.4Z" transform="translate(0 0)"/><path class="cls-26" d="M495.26,558.27a.69.69,0,0,1-.05.13l-.06.12,5.86,1.1.24-.29v-.21L495.31,558l-.05.26Z" transform="translate(0 0)"/><path class="cls-43" d="M506.91,550.29v-1.07L500.69,545l.55,14.08v.21l.86.38.05-.25v0l-.5-12.66,5.25,3.51Z" transform="translate(0 0)"/><path class="cls-41" d="M506.91,549.22v1.07l-5.25-3.51.5,12.66v0l-.05.25-.06.07,0,0,1,12.09,5.66-1.69-1.73-10.94v0l-.73-4.55-.11-.65.68.34,3.4,1.82a33.07,33.07,0,0,0,.89-9,67,67,0,0,0-11.74-10.31l-.13.67a0,0,0,0,0,0,0h0l-2.62,13.78a.37.37,0,0,1,0,.11l0,.06L495.31,558l5.93,1.12L500.69,545l6.22,4.18Z" transform="translate(0 0)"/><path class="cls-55" d="M433.74,532.52l-.37-.63-.13.06a131.64,131.64,0,0,0,.24,22.39l.38-1.8a129.09,129.09,0,0,1-.12-20Z" transform="translate(0 0)"/><path class="cls-43" d="M437,538l-3.28-5.5a129.09,129.09,0,0,0,.12,20L437,538Z" transform="translate(0 0)"/><polygon class="cls-54" points="438.07 566.23 432.56 559.84 426.01 562.15 432.55 567.66 438.07 566.23 438.07 566.23"/><path class="cls-26" d="M418.14,564.51l.44.26L425,562.5l0,0a.46.46,0,0,1-.13-.19l0-.11h0V562l-6.72,2.37s0,.09,0,.14Z" transform="translate(0 0)"/><path class="cls-54" d="M418.83,564.93h0l7.24,4.4,5.41-1.4L425,562.5l-6.45,2.27.24.16Z" transform="translate(0 0)"/><path class="cls-43" d="M424.82,551.35l-.88.35.88,10.3v.15h0l0,.11a.46.46,0,0,0,.13.19.44.44,0,0,0,.32.1.41.41,0,0,0,.31-.16.43.43,0,0,0,.11-.32v-.18l0-.22-.88-10.33Z" transform="translate(0 0)"/><path class="cls-26" d="M432.39,559.57a.5.5,0,0,1,0-.21v0l-6.69,2.36,0,.22.29.25,6.55-2.31-.08-.09a.34.34,0,0,1-.08-.14.06.06,0,0,1,0,0Z" transform="translate(0 0)"/><path class="cls-41" d="M423.88,544.18l-.89.34-.33-7.81q-3.54,1.88-7,4.1a95.1,95.1,0,0,0,.79,14.1c.32,2.44.72,4.9,1.22,7.39v0a0,0,0,0,1,0,0v0c.14.65.27,1.33.41,2l6.72-2.37-.88-10.3.88-.35.88,10.33,6.69-2.36,1.09-5a131.64,131.64,0,0,1-.24-22.39,85.61,85.61,0,0,0-9.7,4.3l.34,7.93Z" transform="translate(0 0)"/><path class="cls-26" d="M415.62,555.52l0-.29,0-.2s0-.07,0-.1l-5.44,3.32,0,0,.5.27,5-3Z" transform="translate(0 0)"/><path class="cls-54" d="M416.62,561.61c-.39-2-.73-4.07-1-6.09l-5,3,6,3.06Z" transform="translate(0 0)"/><path class="cls-41" d="M414.75,541.39A113.86,113.86,0,0,0,402.17,551,52.14,52.14,0,0,0,405,571.55l6.07-4.11-1.36-8.36a.27.27,0,0,1-.08-.07L405,555.79l5.23-3.43.1,1-3.72,2.46,3.51,2.44,5.44-3.32a97.23,97.23,0,0,1-.79-13.54Z" transform="translate(0 0)"/><path class="cls-43" d="M410.3,558.44a.55.55,0,0,0-.12-.14l0,0,0,0-3.51-2.44,3.72-2.46-.1-1L405,555.79l4.65,3.22,0,0a.48.48,0,0,0,.33.07h0a.47.47,0,0,0,.28-.18l0,0a.48.48,0,0,0,0-.29.39.39,0,0,0-.06-.15Z" transform="translate(0 0)"/><path class="cls-26" d="M410.3,559.38l-.59-.3,1.36,8.36L405,571.55c0,.05,0,.1,0,.15l.52.13,5.84-4,.11-.07a.58.58,0,0,0,.1-.12v0a.25.25,0,0,0,0-.12l0-.17-1.3-8Z" transform="translate(0 0)"/><path class="cls-43" d="M417.3,564.88c-.16-.72-.31-1.43-.45-2.14l-6.55-3.36,1.3,8,7.8,2.79-1.18-4.55-.72-.43a.37.37,0,0,1-.12-.13.19.19,0,0,1-.08-.16Z" transform="translate(0 0)"/><polygon class="cls-54" points="415.61 574.36 419.4 570.15 411.4 567.87 405.56 571.83 415.61 574.36 415.61 574.36"/><path class="cls-56" d="M411.6,567.36l0,.17a.25.25,0,0,1,0,.12v0a.58.58,0,0,1-.1.12l-.11.07,8,2.28-7.8-2.79Z" transform="translate(0 0)"/><path class="cls-26" d="M458.4,554l0-.54-7.82,2,.07.2a0,0,0,0,1,0,0v0l.08.26L458.4,554Z" transform="translate(0 0)"/><polygon class="cls-54" points="458.56 556.72 458.4 554.02 450.72 555.95 452.75 562.63 458.56 561.2 458.56 556.72 458.56 556.72"/><path d="M445.2,544.69h0l0,0a.06.06,0,0,0,0,0Z" transform="translate(0 0)"/><polygon class="cls-41" points="442.73 557.03 442.79 557 442.75 556.94 442.73 557.03 442.73 557.03"/><path class="cls-26" d="M445.62,545.7l-.35-.84-3,11.89L433.37,559l-.07.29h0l.2.22,8.83-2.28.21-.06h0a.17.17,0,0,0,.06-.06.21.21,0,0,0,.08-.11l0-.1,2.87-11.24Z" transform="translate(0 0)"/><path class="cls-56" d="M442.79,557l-.06,0a.21.21,0,0,1-.08.11.17.17,0,0,1-.06.06h0l-.21.06,3.95,7.58.13,0L442.79,557Z" transform="translate(0 0)"/><polygon class="cls-43" points="442.75 556.94 442.79 557 446.41 564.84 449.14 554.28 445.62 545.7 442.75 556.94 442.75 556.94"/><polygon class="cls-54" points="442.33 557.28 433.5 559.56 439.06 566 446.28 564.86 442.33 557.28 442.33 557.28"/><path class="cls-43" d="M451.63,540.86l-.32-.84-7.18,1.41,1.06,3.22,0,0h0l0,0,0,.14.35.84.42-1.33h0l-.74-2.26,6.33-1.25Z" transform="translate(0 0)"/><path class="cls-41" d="M451.31,540l.32.84-6.33,1.25.74,2.26h0l4,9.69h0v0h0l.51,1.33,7.82-2-.35-6-8.71-18.22-9.8,1.6L437.93,538v0l-4.56,21,8.88-2.29,3-11.89,0-.14,0,0a.06.06,0,0,1,0,0l-1.06-3.22,7.18-1.41Z" transform="translate(0 0)"/><polygon class="cls-26" points="494.2 558.34 494.39 558.01 494.43 557.83 482.29 555.52 482.25 556.07 494.2 558.34 494.2 558.34"/><path class="cls-54" d="M490.07,565.57l4.13-7.23-11.95-2.27-.05.66a.36.36,0,0,1-.09.24l-4.84,6.17,12.8,2.43Z" transform="translate(0 0)"/><path class="cls-26" d="M481.31,556.52v-.1H459.44V557H481l.34-.44Z" transform="translate(0 0)"/><polygon class="cls-54" points="476.25 562.98 480.97 556.96 459.45 556.96 459.45 562.11 476.25 562.98 476.25 562.98"/><polygon class="cls-43" points="473.02 537.38 473.03 537.38 473.02 537.38 473.02 537.38"/><path class="cls-26" d="M471.64,536.62v.61l1.38.15,9.54,1.64a.37.37,0,0,1-.05-.23l0-.32-10.34-1.78-.56-.07Z" transform="translate(0 0)"/><polygon class="cls-43" points="473.03 537.38 473.02 537.38 471.64 537.23 479.51 545.43 479.93 544.58 473.03 537.38 473.03 537.38"/><polygon class="cls-54" points="460.32 544.65 464.07 546.98 470.48 547.07 459.31 537.32 460.32 544.65 460.32 544.65"/><path class="cls-41" d="M471.64,537.23v-.61l.56.07,10.34,1.78.45-6.78a142.56,142.56,0,0,0-23.64-3.47l-.17,8.22v.07l12.24,10.66v.8l-12.48-.17.5,8.62h21.88l.58-8.5-2.39-2.49-7.87-8.2Z" transform="translate(0 0)"/><polygon class="cls-26" points="459.19 536.51 459.31 537.32 470.48 547.07 471.42 547.98 471.43 547.17 459.19 536.51 459.19 536.51"/><polygon class="cls-43" points="489.67 542.06 489.67 543 496.71 545.83 496.88 544.93 489.67 542.06 489.67 542.06"/><polygon class="cls-43" points="489.32 549.07 489.32 550.01 495.6 551.68 495.77 550.79 489.32 549.07 489.32 549.07"/><path class="cls-41" d="M482.65,547.41l0,0a.44.44,0,0,1,.1.16.31.31,0,0,1,0,.19l-.52,7.74,12.14,2.3,1.17-6.15L489.32,550v-.95l6.45,1.72.94-5-7-2.83v-.94l7.21,2.87,1.37-7.19A139.22,139.22,0,0,0,483.88,532l-.67,7.24-.56,8.22Z" transform="translate(0 0)"/><polygon class="cls-54" points="482.56 539.03 482.56 539.02 473.02 537.38 473.03 537.38 479.93 544.58 482.56 539.03 482.56 539.03"/><path class="cls-43" d="M483.88,532l-.89-.26-.45,6.78,0,.32a.37.37,0,0,0,.05.23h0l.52.13L480.33,545l2.32,2.42.56-8.22.67-7.24Z" transform="translate(0 0)"/><rect class="cls-57" x="473.01" y="537.37" width="0.02" height="0.01"/><path class="cls-58" d="M462.67,529.37c-.82-.07-1.63-.14-2.43-.19l-.15,6.93,1.59,1.38,4.56-7.76c-1.2-.14-2.38-.26-3.57-.36Z" transform="translate(0 0)"/><path class="cls-58" d="M454.8,542.8l-5,8.46,1,2.47,0,0,.22.59.81-.2,4.59-7.82-1.7-3.55Z" transform="translate(0 0)"/><path class="cls-58" d="M469.9,544.66l1.79,1.55a.94.94,0,0,1,.37.24.83.83,0,0,1,.18.25.88.88,0,0,1,.25.56.84.84,0,0,1-.17.6V548a1,1,0,0,1-.27.64.87.87,0,0,1-.65.25l-3.95,0-3.93,6.71h7.56l6.4-10.92-4.7-4.89-2.88,4.94Z" transform="translate(0 0)"/><path class="cls-58" d="M482,532.4c-1.47-.34-3-.65-4.41-.94l-2.8,4.78,6.86,1.18h0v0l.34-5Z" transform="translate(0 0)"/><path class="cls-58" d="M405.82,549.07c-.93.76-1.86,1.54-2.78,2.34-.05.85-.07,1.7-.08,2.54l2.86-4.88Z" transform="translate(0 0)"/><path class="cls-58" d="M438.82,538.16a.17.17,0,0,0,0,.07l-2.31,10.64,10.79-18.4-7,1.15-1.43,6.54Z" transform="translate(0 0)"/><path class="cls-58" d="M431.62,558.64l.95-4.36c-.33-3.62-.52-7.16-.58-10.6L425.94,554l.55,6.45,5.13-1.81Z" transform="translate(0 0)"/><path class="cls-58" d="M418.55,562.12v0h0s0-.05,0-.06l0,.11Z" transform="translate(0 0)"/><polygon class="cls-58" points="423.58 558.02 421.03 562.38 423.87 561.38 423.58 558.02 423.58 558.02"/><path class="cls-58" d="M404.83,568c.2.73.41,1.45.65,2.19l4.61-3.13-1-6.31L404.83,568Z" transform="translate(0 0)"/><path class="cls-58" d="M411.7,556.23l2.88-1.77c-.11-.89-.21-1.78-.29-2.67l-2.59,4.44Z" transform="translate(0 0)"/><polygon class="cls-58" points="476.82 555.52 480.49 555.52 480.95 548.47 476.82 555.52 476.82 555.52"/><path class="cls-58" d="M503.14,545.6l1.86-3.17a58.91,58.91,0,0,0-5.05-4l-2.48,13.06a2.17,2.17,0,0,1,0,.25v0s0,0,0,.06l-1,5.35,3.63-6.2-.23-5.84a.84.84,0,0,1,.2-.61.92.92,0,0,1,.57-.32.84.84,0,0,1,.63.15l1.95,1.3Z" transform="translate(0 0)"/><path class="cls-58" d="M500.08,537.69s0,0,0,0v0Z" transform="translate(0 0)"/><path class="cls-58" d="M508,545.27l-1.52,2.59.92.62a.82.82,0,0,1,.38.56.93.93,0,0,1-.14.69l-.5.74a.81.81,0,0,1-.57.38.91.91,0,0,1-.68-.13l-.77-.53-2.28,3.88c.06,3.95.09,5.95.08,6l.88,10.68,3.84-1.15-1.6-10.16a.41.41,0,0,1,0-.11l-.72-4.47a5.24,5.24,0,0,1-.08-1,.74.74,0,0,1,.11-.37.84.84,0,0,1,.26-.21.61.61,0,0,1,.34-.08,1.11,1.11,0,0,1,.3.06,5,5,0,0,1,.95.37l.25.14a.53.53,0,0,1,.16.09l1.95,1a32.32,32.32,0,0,0,.62-7.33c-.72-.78-1.44-1.53-2.17-2.26Z" transform="translate(0 0)"/><path class="cls-58" d="M483.81,543.6l-.24,3.57-.33,7.63,10.47,2,.85-4.45L489,550.81a.9.9,0,0,1-.63-1.1l0-.87a.85.85,0,0,1,.41-.55.87.87,0,0,1,.69-.09l5.58,1.47.62-3.28-6.36-2.55c-.11-.05-.23-.22-.37-.54s-.17-.51-.12-.63l0-.83a.87.87,0,0,1,.48-.5,1.92,1.92,0,0,1,.49-.08,1.55,1.55,0,0,1,.49.07l5.87,2.36,1-5.43q-4.11-1.9-8.24-3.5l-5.18,8.84Z" transform="translate(0 0)"/><path class="cls-58" d="M432.19,534.15c0-.29,0-.58.05-.86a83.8,83.8,0,0,0-7.77,3.5l.31,7.36a.86.86,0,0,1-.23.64.91.91,0,0,1-.63.29l-.9.25a.82.82,0,0,1-.64-.23.85.85,0,0,1-.29-.62l-.24-5.59-5.17,8.82c.13,2.34.35,4.71.66,7.09.15,1.24.34,2.49.55,3.74l14.3-24.39Z" transform="translate(0 0)"/><polygon class="cls-59" points="454.19 580.16 456.28 587.09 457.81 584.78 461.32 589.32 461.44 585.62 466.31 588.38 466.19 585.59 473.43 588.61 468.87 582.87 472.77 581.44 468.8 578.91 471.84 576.52 466.9 576.47 468.06 573.99 460.16 574.32 454.19 580.16 454.19 580.16"/><path class="cls-60" d="M461.57,590.07l-3.74-4.82-1.64,2.47-2.3-7.63,6.16-6,8.44-.36-1.17,2.5,5.29.06-3.34,2.62,4.1,2.63L469.32,583l5,6.28L466.48,586l.12,2.84-4.9-2.78Zm-3.78-5.75,3.29,4.24.1-3.39,4.84,2.74-.11-2.73,6.66,2.78-4.14-5.21,3.73-1.38-3.82-2.44,2.73-2.15-4.6,0,1.15-2.45-7.34.31-5.78,5.65,1.87,6.23Z" transform="translate(0 0)"/><path class="cls-41" d="M445.54,564.65a4,4,0,0,0,.17,3.8,5.45,5.45,0,0,0,3.42,2.53,7.19,7.19,0,0,0,4.69-.24A5.5,5.5,0,0,0,457,567.9a4,4,0,0,0-.16-3.8,5.47,5.47,0,0,0-3.43-2.53,7.19,7.19,0,0,0-4.67.23,5.56,5.56,0,0,0-3.21,2.85Z" transform="translate(0 0)"/><path d="M451.14,571.71a7.88,7.88,0,0,1-2.13-.3,5.88,5.88,0,0,1-3.69-2.74h0a4.41,4.41,0,0,1-.19-4.2,6.05,6.05,0,0,1,3.45-3.09,7.67,7.67,0,0,1,5-.24,5.9,5.9,0,0,1,3.7,2.74,4.43,4.43,0,0,1,.18,4.21,6,6,0,0,1-3.44,3.07A7.63,7.63,0,0,1,451.14,571.71Zm.25-10a6.64,6.64,0,0,0-2.48.49,5.06,5.06,0,0,0-3,2.62,3.52,3.52,0,0,0,.15,3.39h0a5.07,5.07,0,0,0,3.15,2.32,6.9,6.9,0,0,0,4.4-.22,5.09,5.09,0,0,0,3-2.61,3.54,3.54,0,0,0-.14-3.4A5,5,0,0,0,453.3,562,6.74,6.74,0,0,0,451.39,561.73Z" transform="translate(0 0)"/><path class="cls-61" d="M447.45,565.35a3,3,0,0,0,.13,2.8A4,4,0,0,0,450.1,570a5.27,5.27,0,0,0,3.46-.18,4,4,0,0,0,2.35-2.09,2.9,2.9,0,0,0-.11-2.8,4,4,0,0,0-2.53-1.86,5.24,5.24,0,0,0-3.45.16,4.07,4.07,0,0,0-2.37,2.1Z" transform="translate(0 0)"/><path class="cls-41" d="M451.08,563.42a.94.94,0,0,0,.56.42,1.3,1.3,0,0,0,.78,0,.92.92,0,0,0,.53-.47.65.65,0,0,0,0-.62,1,1,0,0,0-.57-.43,1.17,1.17,0,0,0-.76,0,.9.9,0,0,0-.53.48.65.65,0,0,0,0,.62Z" transform="translate(0 0)"/><path class="cls-29" d="M465.75,569.19a18.22,18.22,0,0,0-8-.49,52.45,52.45,0,0,1,5.58,4.8l2.43-4.31Z" transform="translate(0 0)"/><path class="cls-26" d="M460,579.06a9.69,9.69,0,0,0,3.32-5.56,52.45,52.45,0,0,0-5.58-4.8q-9-6.59-18.43-6.7,1,10,13.4,19.23a10.67,10.67,0,0,0,7.29-2.17Z" transform="translate(0 0)"/><path class="cls-38" d="M463,573.46l1.82-3.23a13.79,13.79,0,0,0-6-.36,39.44,39.44,0,0,1,4.16,3.59Z" transform="translate(0 0)"/><path d="M438.8,561.53l.07.51q1,10.13,13.57,19.55l.12.09h.14a11,11,0,0,0,7.59-2.27,10.18,10.18,0,0,0,3.45-5.74l2.69-4.77-.57-.14a18.73,18.73,0,0,0-8-.53q-9-6.59-18.52-6.68l-.52,0ZM458.63,569a17.59,17.59,0,0,1,6.44.44l-1.95,3.46a52.3,52.3,0,0,0-4.49-3.9Zm-1.15,0,.15.11,2,1.53c1.47,1.16,2.56,2.07,3.25,2.74a9.26,9.26,0,0,1-3.16,5.26,10.27,10.27,0,0,1-6.86,2.08q-11.78-8.85-13-18.33c6,.18,11.93,2.4,17.66,6.61Z" transform="translate(0 0)"/><path class="cls-62" d="M458.64,578.8a7.56,7.56,0,0,0,2.61-4.37,40.38,40.38,0,0,0-4.39-3.78,24.59,24.59,0,0,0-14.49-5.26q.79,7.83,10.54,15.12a8.35,8.35,0,0,0,5.73-1.71Z" transform="translate(0 0)"/><path class="cls-29" d="M459.81,578a13.36,13.36,0,0,0,6-1.08q-3.9-3.9-11.33-5.3c.45,1.41,2.22,3.53,5.3,6.38Z" transform="translate(0 0)"/><path class="cls-38" d="M459.35,578a12.17,12.17,0,0,0,5.14-.81c-2-2.06-5.14-3.49-9.26-4.28.3,1.13,1.68,2.82,4.12,5.09Z" transform="translate(0 0)"/><path d="M453.88,571l.34.76c.69,1.55,2.41,3.61,5.14,6.15l.46.5c2.88,0,4.95-.41,6.24-1.14l.54-.28-.44-.43q-4-4-11.56-5.42l-.72-.14Zm5.93,6.51h-.08a23.44,23.44,0,0,1-4.68-5.37,21,21,0,0,1,10,4.61,15.28,15.28,0,0,1-5.24.76Z" transform="translate(0 0)"/><path class="cls-29" d="M449.2,581.86a10.23,10.23,0,0,0,2.79-4l-5.31-4.41a11.19,11.19,0,0,0,2.52,8.36Z" transform="translate(0 0)"/><path class="cls-38" d="M452.09,577.67l-4.33-3.36a9.42,9.42,0,0,0,2.19,6.91,9.53,9.53,0,0,0,2.14-3.55Z" transform="translate(0 0)"/><path d="M446.36,572.88l-.11.54a11.64,11.64,0,0,0,2.59,8.72l.28.37.36-.29a11.2,11.2,0,0,0,3-4.26l-6.11-5.08Zm5.17,5a10.93,10.93,0,0,1-2.25,3.35,10.75,10.75,0,0,1-2.21-7l4.46,3.68Z" transform="translate(0 0)"/><path class="cls-39" d="M483.67,572.51a4.45,4.45,0,0,0-2.84,3.79,2,2,0,0,0,.73,1.76,1.92,1.92,0,0,0,1.88.21,4,4,0,0,0,2-1.49,4.09,4.09,0,0,0,.88-2.31,2,2,0,0,0-.72-1.77,2,2,0,0,0-1.9-.19Z" transform="translate(0 0)"/><path class="cls-40" d="M485.22,573.49a1.45,1.45,0,0,0-1.4-.15,3,3,0,0,0-1.45,1.1,3,3,0,0,0-.64,1.7,1.37,1.37,0,0,0,1.92,1.44,3,3,0,0,0,1.46-1.09,3.07,3.07,0,0,0,.64-1.7,1.46,1.46,0,0,0-.53-1.3Z" transform="translate(0 0)"/><path class="cls-39" d="M435.38,581.62a6.67,6.67,0,0,1,5.63,2.89,2.1,2.1,0,0,1-1.77,3.45,6.7,6.7,0,0,1-5.63-2.89,2.09,2.09,0,0,1,1.77-3.45Z" transform="translate(0 0)"/><path class="cls-40" d="M435.7,582.34a1.67,1.67,0,0,0-1.42,2.77,5.36,5.36,0,0,0,4.52,2.31,1.68,1.68,0,0,0,1.42-2.76,4.69,4.69,0,0,0-2-1.74,4.83,4.83,0,0,0-2.55-.58Z" transform="translate(0 0)"/><polygon class="cls-59" points="479.27 592.01 477.95 589.88 475.66 590.29 476.98 592.42 479.27 592.01 479.27 592.01"/><path class="cls-60" d="M476.85,592.72l-1.63-2.62,2.87-.52,1.62,2.63Zm-.75-2.23,1,1.64,1.73-.31-1-1.64Z" transform="translate(0 0)"/><polygon class="cls-59" points="484.17 593.85 485.33 592.82 484.52 591.46 483.36 592.49 484.17 593.85 484.17 593.85"/><path class="cls-60" d="M484.11,594.26,483,592.43l1.57-1.38,1.09,1.82Zm-.4-1.72.53.89.75-.66-.53-.89Z" transform="translate(0 0)"/><polygon class="cls-59" points="490.22 592.98 491.18 592.53 490.44 591.97 489.49 592.42 490.22 592.98 490.22 592.98"/><path class="cls-60" d="M490.19,593.3l-1.22-.94,1.5-.71,1.22.94Zm-.19-.83.26.2.4-.19-.26-.2Z" transform="translate(0 0)"/><path class="cls-39" d="M478.29,577.33a3,3,0,0,0-1.62.8,3.12,3.12,0,0,0-1,1.54,1.3,1.3,0,0,0,1.56,1.75,3.13,3.13,0,0,0,1.64-.81,3.21,3.21,0,0,0,1-1.52,1.32,1.32,0,0,0-1.57-1.76Z" transform="translate(0 0)"/><path class="cls-40" d="M479.37,578a1.19,1.19,0,0,0-1.09-.33,2.65,2.65,0,0,0-1.37.68,2.7,2.7,0,0,0-.83,1.26,1.09,1.09,0,0,0,1.3,1.46,2.47,2.47,0,0,0,1.35-.67,2.43,2.43,0,0,0,.83-1.27,1.16,1.16,0,0,0-.19-1.13Z" transform="translate(0 0)"/><path class="cls-63" d="M45.06,558.49a4.3,4.3,0,0,0-.46-8.57h-.15a4.28,4.28,0,0,0-4.13,4.44,4.37,4.37,0,0,0,1.22,2.83c-2.6,5.12-6.58,8.87-12.54,12a20.64,20.64,0,0,1-12.46,2.37,10.64,10.64,0,0,1-7.8-4.51,11.21,11.21,0,0,1-.61-11.85,17.86,17.86,0,0,1,5.2-6.12,40.11,40.11,0,0,1-1-3.9c-11.09,8-9.94,18.89-6.57,24,2.52,3.82,7.64,6.2,13.3,6.2a18.94,18.94,0,0,0,4.59-.54,29.36,29.36,0,0,0,21.41-16.36ZM58.51,549c-5.81-6.8-14.37-10.55-24.16-10.55H33.13a4.21,4.21,0,0,0-3.75-2.29h-.15a4.28,4.28,0,0,0,.15,8.56h.16a4.3,4.3,0,0,0,3.74-2.6h1.38a29.11,29.11,0,0,1,16.28,5,20.43,20.43,0,0,1,8.11,9.79,10.61,10.61,0,0,1-.15,9,11.24,11.24,0,0,1-10.48,6.27,19.7,19.7,0,0,1-7.49-1.6c-.84.76-2.37,2-3.44,2.75a23.55,23.55,0,0,0,9.86,2.37c7.34,0,12.77-4.05,14.83-8.1C64.4,563.15,64.25,555.5,58.51,549ZM19.67,559.79A4.29,4.29,0,0,0,24,563.91h.16a4.28,4.28,0,0,0-.16-8.56H23.8a1.29,1.29,0,0,0-.54.08,28.05,28.05,0,0,1-4-17A20.44,20.44,0,0,1,23.8,526.6c2.22-2.83,6.5-4.21,9.41-4.28,8.1-.16,11.54,9.94,11.77,14,1,.23,2.68.77,3.82,1.15-.91-12.39-8.56-18.81-15.9-18.81-6.88,0-13.23,5-15.75,12.31-3.52,9.79-1.23,19.19,3.06,26.61A3.36,3.36,0,0,0,19.67,559.79Z" transform="translate(0 0)"/><use width="70" height="80" transform="matrix(1.02, 0, 0, -1.02, 306.23, 587.91)" xlink:href="#B"/><use width="75" height="80" transform="matrix(1.02, 0, 0, -1.02, 537.67, 587.91)" xlink:href="#A_6"/><use width="80" height="80" transform="matrix(1.02, 0, 0, -1.02, 642.07, 587.91)" xlink:href="#A_7"/><use width="60" height="80" transform="matrix(1.02, 0, 0, -1.02, 740.94, 587.91)" xlink:href="#A_8"/><use width="205" height="80" transform="matrix(1.02, 0, 0, -1.02, 84.33, 587.91)" xlink:href="#A_9"/></g></g></svg>