<svg xmlns="http://www.w3.org/2000/svg" xmlns:xlink="http://www.w3.org/1999/xlink" viewBox="0 0 800 600"><defs><style>.cls-1{fill:#f7df1e;}.cls-1,.cls-10,.cls-11,.cls-12,.cls-13,.cls-14,.cls-15,.cls-16,.cls-17,.cls-18,.cls-19,.cls-2,.cls-20,.cls-21,.cls-25,.cls-6,.cls-7,.cls-8,.cls-9{fill-rule:evenodd;}.cls-2{fill:#323232;}.cls-3{fill:#599636;}.cls-4{fill:#6cac48;}.cls-5{fill:#c2bfbf;}.cls-6{fill:#8cc84b;}.cls-7{fill:#e44d26;}.cls-21,.cls-26,.cls-8{fill:#fff;}.cls-9{fill:#ebebeb;}.cls-10{fill:#f16529;}.cls-11{fill:#1572b6;}.cls-12{fill:#33a9dc;}.cls-13{fill:#99424f;}.cls-14{fill:#4e8ef7;}.cls-15{fill:#ffa000;}.cls-16{fill:#f57f17;}.cls-17{fill:#ffca28;}.cls-18{fill:#cb3837;}.cls-19{fill:url(#radial-gradient);}.cls-20{fill:#6f95db;}.cls-21{fill-opacity:0.1;}.cls-22{fill:#212529;}.cls-23{fill:#f2f2f2;}.cls-24,.cls-25{fill:#00d8ff;}.cls-27{fill:#00746b;}.cls-28{fill:#2a5953;}.cls-29{fill:#f26d7d;}.cls-30{fill:#b25963;}.cls-31{fill:#ffd064;}.cls-32{fill:#2f211e;}.cls-33{fill:#7cc576;}.cls-34{fill:#6f9b64;}.cls-35{fill:#fff356;}.cls-36{fill:#cbbb4e;}.cls-37{fill:#6f4d4a;}.cls-38{fill:#c25e69;}.cls-39{fill:#c6996d;}.cls-40{fill:#8f6c5e;}.cls-41{fill:#9ddff9;}.cls-42{fill:#86adc0;}.cls-43{fill:#543e3c;}.cls-44{fill:#3a2b29;}.cls-45{fill:#cba357;}.cls-46{fill:#94625e;}.cls-47{fill:#74504d;}.cls-48{fill:#a3555c;}.cls-49{fill:#935a8c;}.cls-50{fill:#674654;}.cls-51{fill:#ffca6d;}.cls-52{fill:#716f75;}.cls-53{fill:#685f63;}.cls-54{fill:#76747a;}.cls-55{fill:#d8f5fc;}.cls-56{fill:#93cae0;}.cls-57{fill:red;}.cls-58{fill:#8ebed3;}.cls-59{fill:#fdf155;}.cls-60{fill:#f90;}.cls-61{fill:#89a9b9;}.cls-62{fill:#cbc4c4;}.cls-63{fill:#764abc;}</style><radialGradient id="radial-gradient" cx="7715.45" cy="8425.69" r="0.5" gradientTransform="translate(-538920.15 -672970.15) scale(69.85 79.88)" gradientUnits="userSpaceOnUse"><stop offset="0" stop-color="#93b4e7"/><stop offset="0.6" stop-color="#b9d1f8"/><stop offset="1" stop-color="#9cb6e0"/></radialGradient><symbol id="A_2" data-name="A 2" viewBox="0 0 35.93 80"><path class="cls-3" d="M17.72,79.78l2.13-4a12.38,12.38,0,0,1,1.61-2,54.9,54.9,0,0,0,5-5.67,48.88,48.88,0,0,0,7.8-15.73A38.32,38.32,0,0,0,35.93,41.7a37.68,37.68,0,0,0-11-27.8A32.19,32.19,0,0,0,21,10.55c-.74,0-1.09.56-1.39,1.09a8.79,8.79,0,0,0-1.09,3.13,15.1,15.1,0,0,0-.35,4v.61c-.06.15-.71,60.15-.45,60.43Z"/><path class="cls-4" d="M17.72,79.92c-.09.17-.18,0-.27,0a4,4,0,0,0-.74-2.4,10.79,10.79,0,0,0-1.91-1.91A41.74,41.74,0,0,1,5.43,63.62,48.05,48.05,0,0,1,0,44.1,65,65,0,0,1,1.6,30.33,41.74,41.74,0,0,1,12.53,13.12a41.26,41.26,0,0,1,3.88-3.31c.39,0,.43.35.5.61a12,12,0,0,1,.39,1.7l.88,6.53-.46,61.27Z"/><path class="cls-5" d="M19.85,7.89a6,6,0,0,0,1.09,2.66,2.94,2.94,0,0,0-1.22,1.13,8.47,8.47,0,0,0-.65,1.44,24.6,24.6,0,0,0-.91,5.62v1.13c-.22-.17-.27-1.65-.27-1.87a41.66,41.66,0,0,0-.78-5.89,5.28,5.28,0,0,0-.7-2.26.94.94,0,0,1,0-.31,25.7,25.7,0,0,0,1.13-7V1.61c0-1,0-.82.83-1.18A3.53,3.53,0,0,0,19.5,0c.26,0,.3.22.3.39l-.13,1.44v4a10.64,10.64,0,0,0,.18,2.05Z"/></symbol><symbol id="A_3" data-name="A 3" viewBox="0 0 70 80"><path class="cls-6" d="M31.84,79.15a6.31,6.31,0,0,0,6.32,0L67,62.25A6.19,6.19,0,0,0,70,57V23.05a6.25,6.25,0,0,0-3.22-5.42L38,.82A6.1,6.1,0,0,0,31.65,1L23,6.17a5.1,5.1,0,0,0-1.67,1.24c.37.51,1,.58,1.56.8a19.75,19.75,0,0,1,3.4,1.65.77.77,0,0,0,.89-.06l7.35-4.41c.53-.31,1.06.11,1.51.37L64.29,22.27a1,1,0,0,1,.51,1V56.77a1.06,1.06,0,0,1-.61,1L35.56,74.56a1,1,0,0,1-1.12,0L5.8,57.81a1,1,0,0,1-.61-1V23.22a1,1,0,0,1,.52-.94l7.65-4.48a5.71,5.71,0,0,1,4.78-.66,3.75,3.75,0,0,1,2.35,3.53V54a.83.83,0,0,0,.88.86h3.68a.88.88,0,0,0,.8-1V20.3c0-3-1.18-6.23-3.84-7.69a11.46,11.46,0,0,0-10.56.3C8.65,14.36,6,16.08,3.22,17.63A6.25,6.25,0,0,0,0,23.05V57a6.21,6.21,0,0,0,3.1,5.37ZM40.2,55.67c4.18.27,8.65.16,12.41-2a9.83,9.83,0,0,0,4.58-8.43.88.88,0,0,0-.95-.67c-1.22,0-2.43,0-3.64,0-.51,0-.81.47-.88.94a5.73,5.73,0,0,1-2.65,4c-2.23,1.16-4.83,1.1-7.26,1.08a9.68,9.68,0,0,1-5.21-1.34,3.5,3.5,0,0,1-1.09-3.82c.39-1,1.46-1.27,2.33-1.56,5-1.36,10.37-1.23,15.31-3a7.28,7.28,0,0,0,4.75-4.37,9.66,9.66,0,0,0-1.53-8.93,12,12,0,0,0-6.47-3.61,30,30,0,0,0-9.77-.43c-3.06.36-6.24,1.19-8.6,3.35a9.54,9.54,0,0,0-2.9,7.38.81.81,0,0,0,.89.74h3.66a.87.87,0,0,0,.88-.88,5.82,5.82,0,0,1,2.06-4c2.48-1.66,5.6-1.55,8.44-1.59,2.35.11,5,.14,6.91,1.75a4,4,0,0,1,1,3.79,3.3,3.3,0,0,1-2.39,2c-5,1.63-10.37,1-15.29,2.88a7.53,7.53,0,0,0-4.7,4.25,8.94,8.94,0,0,0,1.68,9.05c2.2,2.29,5.37,3.18,8.39,3.5Z"/></symbol><symbol id="A" data-name="A" viewBox="0 0 80 80"><path class="cls-1" d="M0,80H80V0H0Z"/><path class="cls-2" d="M36,17V43h7V17C43,7,29,1,21,13l6,4C30,11,36,13,36,17ZM66,34c-4,5.5-9,3-9-.5C57,28,73.5,29,73.5,17c-.5-14-20-13.5-26-3l6,3.5C58,10.5,66,13,66,17c-.5,7-16,3.5-16,16.5-.5,10,14.5,15.5,21.5,4L66,34"/></symbol><symbol id="A_4" data-name="A 4" viewBox="0 0 60 80"><path class="cls-7" d="M60,65H0L5,7.5,30,0,55,7.5,60,65"/><path class="cls-8" d="M7,80V69h3v4h4V69h3V80H14V76H10v4Zm24,0V69h3v6l2.5-4L39,75V69h3V80H39l-2.5-3.5L34,80Zm13,0V69h9v3H47v8Z"/><path class="cls-9" d="M22.37,14.79l-8.22,2.46L13.48,25l-.22,2.54h8l.44-5L30,20V12.5ZM30,47.5H19.52l.65-7.5H30V32.5H12.83L12.17,40l-.65,7.5L10.87,55H30Z"/><path class="cls-10" d="M51.74,27.5l.43,5,.66,7.5.65,7.5.65,7.5.44,5H30V5L45.18,9.55l5.13,1.54L51,18.8l.67,7.7Z"/><path class="cls-8" d="M19,80V77h3.5V69h3v8H29v3Z"/><path class="cls-8" d="M30,47.5H48.48l.65,7.5H30Zm9.17-15H30V40H47.83l-.66-7.5-.43-5L46.52,25l-.67-7.71-8.22-2.46L30,12.5V20l8.3,2.49.44,5Z"/></symbol><symbol id="A_5" data-name="A 5" viewBox="0 0 60 80"><path class="cls-11" d="M60,65H0L5,7.5,30,0,55,7.5,60,65"/><path class="cls-12" d="M51.74,27.5l.43,5,.66,7.5.65,7.5.65,7.5.44,5H30V5L45.18,9.55l5.13,1.54L51,18.8l.67,7.7Z"/><path class="cls-8" d="M22,80H13V69h9v3H16v5h6Zm13,0V77H30l5-5V69H25v3h5l-5,5v3Zm13,0V77H43l5-5V69H38v3h5l-5,5v3Z"/><path class="cls-9" d="M24.93,14l-2.56.77-8.22,2.46L13.48,25l-.22,2.55h8l.44-5,2.56-.77L30,20V12.5ZM11.52,47.5H30V55H10.87Z"/><path class="cls-8" d="M30,20l8.3,2.49.44,5,.43,5H30V40h9.83l.65,7.5H30V55H49.13l-.65-7.5L47.83,40l-.66-7.5-.43-5L46.52,25l-.67-7.71-8.22-2.46L30,12.5Z"/><path class="cls-9" d="M30,32.5H23.33L22.67,40H30Z"/></symbol><symbol id="B" data-name="B" viewBox="0 0 70 80"><path class="cls-19" d="M35,79.88.08,59.91V20L35,0,69.94,20V59.91Z"/><path class="cls-20" d="M35,59.62l-17.32-9.9V29.91L35,20l17.32,9.9V49.72Z"/><path class="cls-21" d="M35,80,0,59.9,35,41,70,59.77Zm0-41.57L0,20.06l35-20L69.88,20.18Z"/></symbol><symbol id="A_6" data-name="A 6" viewBox="0 0 75 80"><path class="cls-13" d="M72.73,40.6a10.46,10.46,0,0,1-8,10L75,80H24.11L34.4,50.54a10.25,10.25,0,0,1-3.2-18.42,28.59,28.59,0,0,0-12.49-9.63,6.86,6.86,0,0,0-3,8.15A10.33,10.33,0,0,1,12.6,50.91,10.56,10.56,0,0,1,1.9,40.53,10.14,10.14,0,0,1,5,33.26l-.5-1C2.9,29.07,1.09,25.45.4,21.4-1,13.29,1.28,6.79,6.75,3.1A17.88,17.88,0,0,1,16.87,0c6.28,0,12.66,3.06,18.82,6,4.39,2.11,8.93,4.31,13.4,5.38,1.65.39,3.36.62,5.18.88,3.68.51,7.47,1,10.89,3a14.64,14.64,0,0,1,6,19.87,10.1,10.1,0,0,1,1.6,5.49Zm-4.66,0a6,6,0,0,0-12,0,5.77,5.77,0,0,0,.78,2.9,6.76,6.76,0,0,0,.67.92,5.16,5.16,0,0,0,.84.77l0,0,.62.42s0,0,0,0,.19.12.28.16l.08,0a2,2,0,0,0,.33.14l.33.14s0,0,.08,0l.28.09.1,0,.33.07h0l.35.07s.08,0,.1,0,.19,0,.29,0h.12l.38,0h.31a1.18,1.18,0,0,0,.26,0h.05a5.67,5.67,0,0,0,.57-.1,5.92,5.92,0,0,0,4.8-5.74ZM30.77,75.37H68.33L59.71,50.7a9.06,9.06,0,0,1-1.07-.3L49.56,68.35l-9.1-17.83a9.64,9.64,0,0,1-1.12.25ZM47.85,42.62a10.26,10.26,0,0,1-3.23,5.56l4.94,9.68,5-9.89a10.35,10.35,0,0,1-3-5.35Zm-12,3.66.34.07h.07l.28,0h.1c.1,0,.17,0,.26,0h.93c.1,0,.17,0,.24,0a.16.16,0,0,0,.12,0,2.56,2.56,0,0,0,.27,0l.09,0,.33-.07h0a1.61,1.61,0,0,0,.29-.09s0,0,.09,0a.78.78,0,0,0,.24-.09l.07,0,.29-.12h0a1.14,1.14,0,0,0,.31-.16h0c.09,0,.19-.12.28-.16s0,0,0,0,.17-.12.27-.17l0,0c.28-.21.55-.44.81-.67l0,0a6.78,6.78,0,0,0,.66-.84,5.6,5.6,0,0,0,1-3.19,6,6,0,0,0-12,0,5.84,5.84,0,0,0,4.53,5.65Zm-23.5.16a5.84,5.84,0,1,0,0-11.68,5.84,5.84,0,1,0,0,11.68ZM67.93,26.36a10.24,10.24,0,0,0-5.18-7.11c-2.61-1.46-5.81-1.92-9.17-2.39-1.84-.25-3.78-.53-5.64-1-5-1.18-9.74-3.5-14.37-5.72-5.93-2.85-11.52-5.54-16.7-5.54a12.79,12.79,0,0,0-7.4,2.29c-5.25,3.52-5,10.13-4.37,13.74.57,3.38,2.17,6.55,3.7,9.59.1.18.17.34.26.53a11.07,11.07,0,0,1,1.65-.42c-.91-4.91,1.67-10,6.69-12.48l.91-.46,1,.34a32.83,32.83,0,0,1,11.47,6.91,31.33,31.33,0,0,1,5,5.72,9.17,9.17,0,0,1,1.65-.12A10.65,10.65,0,0,1,47.7,38h4a10.79,10.79,0,0,1,15.74-6.32,10.29,10.29,0,0,0,.48-5.35Z"/></symbol><symbol id="A_7" data-name="A 7" viewBox="0 0 80 80"><path class="cls-14" d="M73.33,67.71A5.56,5.56,0,0,0,72,64,40,40,0,1,0,64,72a5.56,5.56,0,0,0,3.67,1.38,5.62,5.62,0,0,0,5.62-5.62ZM40,1.35A38.64,38.64,0,0,1,71,63.13,5.61,5.61,0,0,0,63.13,71,38.65,38.65,0,1,1,40,1.35Zm0,22.32A16.33,16.33,0,1,0,56.33,40,16.33,16.33,0,0,0,40,23.67Z"/></symbol><symbol id="A_8" data-name="A 8" viewBox="0 0 60 80"><path class="cls-15" d="M39.4,51.1l-8.32-7.45-7.72,15,4,8.62C28.37,69,30,69,31,67.26L39.4,51.1Z"/><path class="cls-16" d="M31.08,43.65,0,15.82,23.36,58.64Z"/><path class="cls-17" d="M48.5,62.49c1.48,1.38,3,.91,3.41-1L60,16.19,33.18.71A13.47,13.47,0,0,0,29.76,0a13,13,0,0,0-3.14.72L0,15.82Z"/><path class="cls-15" d="M23.36,58.64,0,15.82,10.41,78.4c.38,1.95,1.53,2.14,2.56.42L23.36,58.64Z"/></symbol><symbol id="A_9" data-name="A 9" viewBox="0 0 205 80"><path class="cls-18" d="M0,80H205V11.43H102.5V0H56.94V11.43H0ZM11.39,22.86H34.17V57.14H45.56V22.86H56.94V68.57H11.39ZM68.33,68.57V11.43H91.11V22.86h22.78V68.57ZM91.11,57.14H102.5V34.28H91.11V57.14Zm34.17,11.43V22.86h22.78V57.14h11.39V22.86h11.38V57.14h11.39V22.86h11.39V68.57Z"/><path class="cls-8" d="M11.39,22.86H34.17V57.14H45.56V22.86H56.94V68.57H11.39ZM68.33,68.57V11.43H91.11V22.86h22.78V68.57ZM102.5,34.28H91.11V57.14H102.5Zm22.78,34.29V22.86h22.78V57.14h11.39V22.86h11.38V57.14h11.39V22.86h11.39V68.57Z"/></symbol></defs><g id="Layer_2" data-name="Layer 2"><g id="Layer_1-2" data-name="Layer 1"><rect class="cls-22" width="800" height="600"/><use width="35.93" height="80" transform="matrix(1.04, 0, 0, -1.04, 103.32, 147.47)" xlink:href="#A_2"/><g id="original-wordmark"><path id="path4" class="cls-23" d="M272.34,139.28V73.94h3.55V84.22a13.64,13.64,0,0,0,1.16-1.45,17.57,17.57,0,0,1,16-9.94c8.08-.24,14.64,2.75,18.5,9.94a31.92,31.92,0,0,1,.77,29.29c-3.59,8.06-12.47,12.07-22,10.6a17.78,17.78,0,0,1-14.18-9.37v26Zm3.55-42.22c.31,3.18.43,5.45.79,7.67,1.4,8.73,6.57,13.92,14.67,14.86A16.68,16.68,0,0,0,309.67,109,28.42,28.42,0,0,0,309,85.64a16.33,16.33,0,0,0-17.2-9.5,15.89,15.89,0,0,0-14.21,11.75A79.25,79.25,0,0,0,275.89,97.06Z"/><path id="path6" class="cls-23" d="M387.86,105.94a19.1,19.1,0,0,1-18.67,16.88c-14.86.75-21.84-9.12-22.95-20.5a32.89,32.89,0,0,1,2.9-18.1,20.19,20.19,0,0,1,21-11.27,19.3,19.3,0,0,1,17.13,14.7A97,97,0,0,1,389,98.5H349.89c-.73,10.33,4.82,18.63,12.69,20.63,9.79,2.42,18.17-1.83,21.21-11.14C384.46,105.6,385.69,105.26,387.86,105.94Zm-38-10.74H384.8c-.22-11-7.07-19-16.36-19.09C357.92,76,350.35,83.62,349.89,95.2Z"/><path id="path8" class="cls-23" d="M395.05,106.18h3.43A13.73,13.73,0,0,0,406.54,118a21.11,21.11,0,0,0,18.29-.48,8.23,8.23,0,0,0,4.82-8.09,7.46,7.46,0,0,0-5-7.45c-3.76-1.4-7.77-2.17-11.6-3.4a86.31,86.31,0,0,1-11.68-4.27c-6.18-3-6.56-14.77.43-18.49a24.67,24.67,0,0,1,23.55-.36,12.42,12.42,0,0,1,6.28,12.65h-2.95c0-.15-.26-.27-.26-.41-.36-9.39-8.23-12.29-16.67-11.47a22.35,22.35,0,0,0-7.24,2.2,7.73,7.73,0,0,0,.62,14c3.72,1.35,7.6,2.22,11.42,3.28,3.06.85,6.25,1.4,9.21,2.42a10.86,10.86,0,0,1,7.48,9.82A11.59,11.59,0,0,1,427,120.05c-8.05,4.56-21.32,3.35-27.24-2.41A16.13,16.13,0,0,1,395.05,106.18Z"/><path id="path10" class="cls-23" d="M476.65,88.11h-3.21a9.44,9.44,0,0,0-.21-1.19,10.5,10.5,0,0,0-8.55-10.08,21.06,21.06,0,0,0-13.53.65,8.22,8.22,0,0,0-6,7.84A7.6,7.6,0,0,0,451,93c4.83,1.49,9.77,2.41,14.67,3.76a42.07,42.07,0,0,1,4.68,1.42A12.06,12.06,0,0,1,471,120.6a26.82,26.82,0,0,1-21.71.22,15,15,0,0,1-9.07-14.62h3.13a17.6,17.6,0,0,0,26.78,11.2,8.62,8.62,0,0,0,4.64-8.06,7.46,7.46,0,0,0-5.1-7.41c-3.76-1.4-7.76-2.15-11.6-3.38a86.13,86.13,0,0,1-11.75-4.22c-6-3-6.51-14.62.36-18.34a24.32,24.32,0,0,1,23.94-.26A12.61,12.61,0,0,1,476.65,88.11Z"/><path id="path12" class="cls-23" d="M266.48,121.64a5.52,5.52,0,0,1-6.85-2.6c-3.94-5.89-8.28-11.51-12.45-17.25l-1.81-2.42c-5,6.66-9.94,13.06-14.48,19.69a5.3,5.3,0,0,1-6.51,2.56L243,96.6,225.68,74a5.78,5.78,0,0,1,6.88,2.41c4,5.89,8.49,11.51,12.93,17.47,4.46-5.91,8.88-11.56,13-17.39A5.2,5.2,0,0,1,265,74.06L258.23,83c-3,4-6,8-9.12,11.87a2.41,2.41,0,0,0-.19,3.41c.06.06.12.13.19.19C254.87,106.1,260.59,113.78,266.48,121.64Z"/><path id="path14" class="cls-23" d="M345.66,73.75v3.38a17.5,17.5,0,0,0-18.6,16.31c0,.58,0,1.17,0,1.76v26.54h-3.45V73.94H327v9.8C331.14,76.6,337.58,73.94,345.66,73.75Z"/><path id="path16" class="cls-23" d="M179.69,96.28c.51-2.41.82-5,1.52-7.5,4.18-14.84,21.19-21,32.89-11.82,6.85,5.38,8.56,13,8.23,21.59H183.72c-.63,15.35,10.45,24.61,24.61,19.88a14.69,14.69,0,0,0,9.34-10.4c.75-2.41,2-2.82,4.25-2.12a19.62,19.62,0,0,1-9.37,14.31,22.68,22.68,0,0,1-26.42-3.38,23.78,23.78,0,0,1-5.93-13.94,11.53,11.53,0,0,0-.48-2.42Q179.69,98.34,179.69,96.28Zm4.08-1h34.91c-.21-11.13-7.24-19-16.6-19.09-10.42-.14-17.88,7.58-18.33,19Z"/></g><circle class="cls-24" cx="546.78" cy="106.01" r="6.94"/><path class="cls-25" d="M508.11,106c0,8.81,17.28,15.91,38.74,15.91s38.74-7.1,38.74-15.91-17.28-15.91-38.74-15.91S508.11,97.14,508.11,106Zm3.45,0c0,6.9,15.74,12.45,35.29,12.45s35.28-5.55,35.28-12.45S566.4,93.51,546.85,93.51,511.56,99.06,511.56,106Z"/><path class="cls-25" d="M527.48,139.51c7.63,4.41,22.42-7,33.15-25.6s13.23-37.1,5.59-41.5-22.42,7-33.15,25.59S519.84,135.1,527.48,139.51Zm1.73-3c6,3.45,18.65-7.4,28.42-24.32s12.84-33.34,6.86-36.79-18.65,7.4-28.43,24.33S523.23,133.07,529.21,136.51Z"/><path class="cls-25" d="M566.22,139.51c7.64-4.41,5.14-22.92-5.59-41.51s-25.52-30-33.15-25.6-5.14,22.93,5.59,41.51S558.59,143.92,566.22,139.51Zm-1.73-3c6-3.45,2.92-19.85-6.86-36.78S535.18,72,529.21,75.4s-2.92,19.85,6.86,36.78S558.52,140,564.49,136.51Z"/><use width="70" height="80" transform="matrix(1.04, 0, 0, -1.04, 624.03, 147.47)" xlink:href="#A_3"/><use width="80" height="80" transform="matrix(2.61, 0, 0, -2.61, 295.68, 408.27)" xlink:href="#A"/><use width="60" height="80" transform="matrix(2.13, 0, 0, -2.13, 116.58, 389.07)" xlink:href="#A_4"/><use width="60" height="80" transform="matrix(2.13, 0, 0, -2.13, 555.75, 389.07)" xlink:href="#A_5"/><path class="cls-26" d="M479.93,471.49h0a4,4,0,0,0-2.79-.45h0a4,4,0,0,0-2.46,1.4h0a3,3,0,0,0-.77,2,23,23,0,0,0-6.25,1.74,6.31,6.31,0,0,0-3.19-4.31.57.57,0,0,0-.13-.08l2.27-1.85a3.11,3.11,0,0,0,1.72.55,3.45,3.45,0,0,0,1.36-.18,4.07,4.07,0,0,0,1.16-.65,3.48,3.48,0,0,0,1.33-2.33,3.11,3.11,0,0,0-.74-2.51,3.29,3.29,0,0,0-2.39-1.16h0a3.66,3.66,0,0,0-2.56.86h0a3.44,3.44,0,0,0-1.32,2.31h0a3.07,3.07,0,0,0,.47,2.15l-2.7,2.19a11.29,11.29,0,0,0-3.82-.53,19,19,0,0,0-6.41,1.36c-.72.27-1.42.57-2.12.9a5.56,5.56,0,0,0-1.08-2.29,1.8,1.8,0,0,0-2.34-.65,3.55,3.55,0,0,0-1.76,2.29h0a13.61,13.61,0,0,0-.66,4.21,43.85,43.85,0,0,0-5.51,5,33.32,33.32,0,0,0-10.61,2h50.56a5.13,5.13,0,0,0-.52-.32,12.93,12.93,0,0,0-4.44-1.37,31.85,31.85,0,0,0-6.52-.25,18.42,18.42,0,0,0,.23-2.1,13.59,13.59,0,0,0,0-1.93,21.72,21.72,0,0,1,6.24-1.78,3.39,3.39,0,0,0,1.12,1.22l.14.09.16.09a4,4,0,0,0,2.79.44,4.07,4.07,0,0,0,2.47-1.4,3,3,0,0,0,.72-2.57,2.94,2.94,0,0,0-1.59-2.14Zm-13.32-2.36-.05-.06.05.05Z"/><path class="cls-26" d="M486.72,484.82a2.77,2.77,0,0,0-1.92.32h0a2.27,2.27,0,0,0-.78.72,21.81,21.81,0,0,0-3.12-.21,4.06,4.06,0,0,0-1.73-2.16H428.6a31.65,31.65,0,0,0-5.92,2.93,6.31,6.31,0,0,1,.34-2.37,2.5,2.5,0,0,0,1.15-.34l.05,0,.07,0,.23-.16H419.6a8.16,8.16,0,0,1-.77.58l0,0a6.64,6.64,0,0,1-3.33,1,15.23,15.23,0,0,0,1.12-1.6H395.9a5.4,5.4,0,0,0,.66,1.6,6.21,6.21,0,0,0,3.14,2.42,17.51,17.51,0,0,0,4.57,1.17c.44.06.88.1,1.32.13A14.06,14.06,0,0,0,402.7,491a4.9,4.9,0,0,0-1.79,3.55l-.42.19-1.37.66,1.42.58a9.63,9.63,0,0,1,2.74,1.62,1.53,1.53,0,0,0,.15.64h0a1.87,1.87,0,0,0,.91,1h0a1.81,1.81,0,0,0,1.34.16h0a1.51,1.51,0,0,0,.82-.48,1.58,1.58,0,0,0,.39-1.34l0-.1-.06-.18v0l0-.06v0s0,0,0,0a1.85,1.85,0,0,0-.59-.76h0a2.92,2.92,0,0,0-.32-.21h0A1.82,1.82,0,0,0,405,496a3,3,0,0,1-.25-.6,1.22,1.22,0,0,1,0-.57c.3-.9,1.67-1.65,4.09-2.25l0,.06.7,1.59,1.35,2.53c-.63.38-1.27.77-1.89,1.17l0,0a85.2,85.2,0,0,0-7.63,5.55h81.54a.91.91,0,0,0,0-.17v-.25l-.17-.18a51.28,51.28,0,0,0-9.57-8.34l-.85-.58-.23,1.2q-2.43-1.12-4.86-2.1a61.19,61.19,0,0,0,8.32-2.3q4.8-1.8,5.39-3.74a20.83,20.83,0,0,1,2.73.16,2.14,2.14,0,0,0,.58,1.28h0a2.72,2.72,0,0,0,1.72.91,2.79,2.79,0,0,0,1.92-.33h0a2,2,0,0,0,1.09-1.54h0a2,2,0,0,0-.56-1.79,2.74,2.74,0,0,0-1.72-.91Zm-65.92,2.74.11.08c-.63.45-1.25.93-1.85,1.44l.11.14-.11-.14-.14-.18-.09-.12.09.12c.18-.09.35-.2.52-.3a8.88,8.88,0,0,0,1.36-1Z"/><path class="cls-26" d="M434.52,470a1.89,1.89,0,0,0-.58-1.4,2,2,0,0,0-2.82,0h0a1.89,1.89,0,0,0-.58,1.4.76.76,0,0,0,0,.15l-.52.35a4.35,4.35,0,0,0-1.07-.69,4,4,0,0,0-.79-.27,3.09,3.09,0,0,0-2.63.45h0a3.14,3.14,0,0,0-1.38,2.35,2.14,2.14,0,0,0-.27.09l-.21.08a3,3,0,0,0-.35.18h0a13.57,13.57,0,0,0-2.19,1.42l-.08.06a8.61,8.61,0,0,0-1.82,2,5.92,5.92,0,0,0-.59,1.14,8.92,8.92,0,0,0-.22-2.43,6.11,6.11,0,0,0-3.1-4,19.37,19.37,0,0,0-5.2-1.83h0l-2.9-.68c-1.14-.28-2.1-.55-2.9-.81a14.08,14.08,0,0,1-5-2.66l-1.58-1.35.47,2a12.85,12.85,0,0,1,.06,5.19h0a45.74,45.74,0,0,1-1.33,5.08,29,29,0,0,0-1.16,4.81h0a8.1,8.1,0,0,0,.15,2.86h20.68c.27-.46.53-.94.77-1.45a14,14,0,0,0,1.06-3,2.43,2.43,0,0,0,.39,1l0,.06,0,0a2.69,2.69,0,0,0,1.95,1,2.27,2.27,0,0,0-.07,1.15,8.8,8.8,0,0,1-1.15,1.26h4.92a2.74,2.74,0,0,0,.85-1.11h0v0s0-.08,0-.11a2.32,2.32,0,0,0-.05-1.88,3.38,3.38,0,0,0-.23-.39l0-.05-.08-.08h0a12.56,12.56,0,0,0,2.23-1.82h0a6.8,6.8,0,0,0,.57-.65,3.12,3.12,0,0,0,2.45-.48,3.18,3.18,0,0,0,1.39-2.52,5.48,5.48,0,0,0,0-.7,4.3,4.3,0,0,0-.16-.87h0a4.56,4.56,0,0,0-.18-.52l.54-.42a2,2,0,0,0,.66.11,1.89,1.89,0,0,0,1.4-.58l0,0a1.89,1.89,0,0,0,.57-1.4Zm-7.9,2a1.26,1.26,0,0,1,.24-.22,1.17,1.17,0,0,1,1-.12,4.9,4.9,0,0,1-1.25.34Zm2.38,2.92-.07,0a2.48,2.48,0,0,1,.18-.31v0a.25.25,0,0,0,0-.07h0a4,4,0,0,1,.27-.34,1.19,1.19,0,0,1-.45.73Zm-.06-.1v0Z"/><path class="cls-26" d="M398.79,505.69l-.21.18v.28a40.46,40.46,0,0,0,2.28,16.39.66.66,0,0,0,.2.29,1,1,0,0,0,.24.14h.06l1.89.48h63.58c.42-.68.8-1.36,1.15-2.06a17.81,17.81,0,0,0,1-2.37l1.26.21.73-.86.49,5.08h1.77l2.39-.18h.09l.1,0,5.4-1.62-1.38-8.76,2.05-1.65h0a.63.63,0,0,0,.21-.35,25.7,25.7,0,0,0,.78-7.36H401.4c-.88.7-1.75,1.44-2.61,2.2Z"/><path class="cls-26" d="M413.5,526.56h0a1.68,1.68,0,0,0-.86,1.27h0a2,2,0,0,0,.27,1.51h0a2,2,0,0,0,.3.4l-.49,1.32a17.45,17.45,0,0,0-1.91-.91h0l-.67-.26-.82-.3-.48,4.68a6.89,6.89,0,0,0-1.79,3.79h0a4.48,4.48,0,0,0,1.73,3.92,5,5,0,0,0,4.4,1.34,5.71,5.71,0,0,0,3.77-2.59l4.85-1.37-.61-.79c-.43-.55-.86-1.08-1.3-1.59l1.81-.87a2.15,2.15,0,0,0,.34.17,2,2,0,0,0,1.39.06h0a1.7,1.7,0,0,0,1-.77,32.18,32.18,0,0,0,14.24,3.11,33.27,33.27,0,0,0,14.64-3.21l1.1-.56a33.7,33.7,0,0,0,6.55-4.59,31.27,31.27,0,0,0,5.87-6.88H403.24l6.84,1.72,1.47-1.62a27.39,27.39,0,0,0,1.95,3Zm2.68,3.08.71.69c.31.29.61.57.93.85l-1.69,2.2h0l0,0a.31.31,0,0,1-.09-.07h0c-.5-.4-1.2-.9-2.12-1.51l.5-1.36a1.68,1.68,0,0,0,1.2-.22h0a1.57,1.57,0,0,0,.59-.55Zm2.68,2.41c.74.6,1.51,1.15,2.3,1.68a1.43,1.43,0,0,0-.16.24h0a1.43,1.43,0,0,0-.13,1l-1.95,1,0,0c-.56-.59-1.13-1.14-1.71-1.66l1.69-2.21Z"/><polygon class="cls-26" points="471.5 523.46 471.51 523.59 473.27 523.46 471.5 523.46 471.5 523.46"/><path class="cls-26" d="M419.17,489.22l-.11-.14h0l.11.14Zm-.25-.32-.09-.12h0l.1.12Z"/><path d="M485.21,487.1h-.07a21.59,21.59,0,0,0-5.72-.34.32.32,0,0,1-.36-.31.34.34,0,0,1,.31-.37,21.68,21.68,0,0,1,5.9.36.34.34,0,0,1-.06.67Z"/><path class="cls-27" d="M475.32,490.13c3.68-1.37,5.33-2.75,5-4.12a3.78,3.78,0,0,0-2-2.23,12.53,12.53,0,0,0-4.22-1.29,40.91,40.91,0,0,0-13.52.66l-1.43,10.67a87,87,0,0,0,16.18-3.69Z"/><path class="cls-28" d="M479.84,486.18a3.1,3.1,0,0,0-1.9-1.77,12.7,12.7,0,0,0-4.06-.84,45.35,45.35,0,0,0-13,1.35l-1.37,9.14A95.67,95.67,0,0,0,475.06,490c3.54-1.38,5.14-2.64,4.78-3.79Z"/><path d="M459.14,494.16a.33.33,0,0,1-.33-.29.32.32,0,0,1,.28-.38,87.21,87.21,0,0,0,16.11-3.68c3.42-1.28,5.06-2.56,4.75-3.72a3.43,3.43,0,0,0-1.81-2,12.2,12.2,0,0,0-4.1-1.25,40.75,40.75,0,0,0-13.41.65.34.34,0,0,1-.12-.66,41.31,41.31,0,0,1,13.64-.66,12.73,12.73,0,0,1,4.33,1.33,4.07,4.07,0,0,1,2.13,2.43c.43,1.59-1.26,3.07-5.17,4.53a87.76,87.76,0,0,1-16.25,3.71Z"/><path class="cls-29" d="M487.93,486.18a2.15,2.15,0,0,0-1.32-.69,2.19,2.19,0,0,0-1.48.24,1.51,1.51,0,0,0-.76,1.06,1.47,1.47,0,0,0,.4,1.23,2.34,2.34,0,0,0,2.8.44,1.43,1.43,0,0,0,.36-2.28Z"/><path class="cls-30" d="M487.83,486.85a1.43,1.43,0,0,0-.87-.46,1.46,1.46,0,0,0-1,.17.94.94,0,0,0-.24,1.5,1.43,1.43,0,0,0,.87.46,1.48,1.48,0,0,0,1-.17.92.92,0,0,0,.5-.69,1,1,0,0,0-.27-.81Z"/><path d="M486.5,489.08a3.55,3.55,0,0,1-.46,0,2.47,2.47,0,0,1-1.52-.81,1.76,1.76,0,0,1-.48-1.5,1.8,1.8,0,0,1,.92-1.3,2.52,2.52,0,0,1,1.7-.29,2.48,2.48,0,0,1,1.52.8,1.76,1.76,0,0,1-.45,2.8A2.39,2.39,0,0,1,486.5,489.08Zm-.31-3.29a1.72,1.72,0,0,0-.89.24,1.14,1.14,0,0,0-.59.81,1.12,1.12,0,0,0,.32,1,1.77,1.77,0,0,0,1.12.58,1.79,1.79,0,0,0,1.25-.21,1.09,1.09,0,0,0,.27-1.76,1.84,1.84,0,0,0-1.12-.58h0Z"/><path class="cls-31" d="M476.3,485.73a1.76,1.76,0,0,0-.81-1.44,3.47,3.47,0,0,0-3.9,0,1.7,1.7,0,0,0,0,2.88,3.47,3.47,0,0,0,3.9,0,1.74,1.74,0,0,0,.81-1.44Z"/><path d="M473.54,488a3.42,3.42,0,0,1-2.07-.64,1.9,1.9,0,0,1,0-3.21,3.67,3.67,0,0,1,4.14,0h0a1.89,1.89,0,0,1,0,3.21A3.4,3.4,0,0,1,473.54,488Zm0-4.08a3,3,0,0,0-1.82.56,1.49,1.49,0,0,0,0,2.55,3,3,0,0,0,1.82.56,2.93,2.93,0,0,0,1.83-.56,1.49,1.49,0,0,0,0-2.55h0A2.93,2.93,0,0,0,473.54,483.9Z"/><path class="cls-32" d="M474.05,485.58a.61.61,0,0,0-.3-.5,1.34,1.34,0,0,0-1.44,0,.61.61,0,0,0-.3.5.62.62,0,0,0,.3.51,1.34,1.34,0,0,0,1.44,0,.62.62,0,0,0,.3-.51Z"/><path d="M473,486.5a1.37,1.37,0,0,1-.84-.25.77.77,0,0,1,0-1.33,1.37,1.37,0,0,1,.84-.25,1.35,1.35,0,0,1,.84.25.79.79,0,0,1,.39.66.8.8,0,0,1-.39.67A1.35,1.35,0,0,1,473,486.5Zm0-1.43a1,1,0,0,0-.6.18.37.37,0,0,0,0,.67,1,1,0,0,0,.6.17,1,1,0,0,0,.61-.17.4.4,0,0,0,.21-.34.38.38,0,0,0-.21-.33h0A1,1,0,0,0,473,485.07Z"/><path d="M467.15,477.47a.34.34,0,0,1-.31-.19.34.34,0,0,1,.16-.45,23.42,23.42,0,0,1,8.5-2.24.33.33,0,0,1,.36.31.32.32,0,0,1-.31.36,22.91,22.91,0,0,0-8.25,2.18Zm-4.52-4.86a.34.34,0,0,1-.27-.13.36.36,0,0,1,.05-.48l4.27-3.46a.34.34,0,0,1,.47,0,.34.34,0,0,1,0,.48l-4.26,3.46A.34.34,0,0,1,462.63,472.61Z"/><path class="cls-33" d="M459.1,471.32a18.43,18.43,0,0,0-6.18,1.32,27.49,27.49,0,0,0-2.85,1.26,5.89,5.89,0,0,0-1.11-2.85,1.22,1.22,0,0,0-1.54-.47,3.08,3.08,0,0,0-1.4,1.91,13.63,13.63,0,0,0-.63,4.33,42.31,42.31,0,0,0-5.87,5.33q7.49,8.81,23.7,10.69c.58-1.3,1.13-2.63,1.66-4a8.53,8.53,0,0,0,3.57-.36,2.24,2.24,0,0,0,1.55-1.28,1.29,1.29,0,0,0-.67-1.48,6.33,6.33,0,0,0-3.08-.94,24.73,24.73,0,0,0,1-5.32q.27-5.12-3.1-7a9.82,9.82,0,0,0-5-1.12Z"/><path class="cls-34" d="M462.81,473.7c-2.57-.92-5.54-.59-8.87,1a20,20,0,0,0-8.31,7.52,114.23,114.23,0,0,1,17.59,9.64c.39-.65.7-1.18.92-1.62a13.3,13.3,0,0,0,.72-1.65,6.58,6.58,0,0,0,2.87-.36c.89-.34,1.29-.79,1.2-1.36s-1.29-1.05-3.5-1.1a31,31,0,0,0,.51-3.49,17.16,17.16,0,0,0-.08-4,6.82,6.82,0,0,0-.75-2.37,6,6,0,0,0-1.1-1.38,3.52,3.52,0,0,0-1.2-.77Z"/><path d="M463.22,493.18a.35.35,0,0,1-.14,0,.33.33,0,0,1-.17-.45c.61-1.36,1.15-2.68,1.66-4l.09-.24.25,0a8.26,8.26,0,0,0,3.43-.34,2,2,0,0,0,1.34-1.06c.08-.25.11-.63-.55-1.1a6,6,0,0,0-2.91-.88l-.41,0,.11-.39a24.11,24.11,0,0,0,1-5.25c.18-3.3-.78-5.48-2.92-6.67a9.41,9.41,0,0,0-4.86-1.08A18.35,18.35,0,0,0,453,473a25.27,25.27,0,0,0-2.81,1.25l-.41.22-.08-.46a5.65,5.65,0,0,0-1-2.69c-.5-.59-.89-.5-1.14-.39a2.88,2.88,0,0,0-1.22,1.72,13.57,13.57,0,0,0-.61,4.22V477l-.14.1a42.8,42.8,0,0,0-5.82,5.29.34.34,0,1,1-.5-.46,43.82,43.82,0,0,1,5.78-5.28,14.05,14.05,0,0,1,.65-4.27,3.36,3.36,0,0,1,1.58-2.1,1.53,1.53,0,0,1,1.94.56,5.86,5.86,0,0,1,1.1,2.56,23.76,23.76,0,0,1,2.48-1.07,18.92,18.92,0,0,1,6.29-1.34,10.18,10.18,0,0,1,5.21,1.16c2.36,1.31,3.46,3.77,3.27,7.31a24.84,24.84,0,0,1-.89,5,6,6,0,0,1,2.85,1,1.59,1.59,0,0,1,.8,1.85,2.57,2.57,0,0,1-1.76,1.5,8.77,8.77,0,0,1-3.46.4c-.48,1.26-1,2.51-1.58,3.81A.34.34,0,0,1,463.22,493.18Z"/><path class="cls-33" d="M456.84,483.07l-.44,0a4.87,4.87,0,0,1-3.56-1.67,4,4,0,0,1-.93-3.6,5.31,5.31,0,0,1,2.28-3.31,6.24,6.24,0,0,1,4-1.14h0a5,5,0,0,1,3.56,1.66,4,4,0,0,1,.92,3.61,5.16,5.16,0,0,1-2.26,3.3A6.12,6.12,0,0,1,456.84,483.07Zm1-8.67a5.15,5.15,0,0,0-3,1A4.19,4.19,0,0,0,453,478a3,3,0,0,0,.69,2.68,3.77,3.77,0,0,0,2.8,1.3,5.11,5.11,0,0,0,3.36-1,4.09,4.09,0,0,0,1.82-2.62,3,3,0,0,0-.68-2.69,3.83,3.83,0,0,0-2.81-1.28Z"/><path class="cls-35" d="M462.21,478.43a3.52,3.52,0,0,0-.79-3.15,4.41,4.41,0,0,0-3.19-1.48,5.76,5.76,0,0,0-3.7,1,4.8,4.8,0,0,0-2,3,3.49,3.49,0,0,0,.81,3.14,4.27,4.27,0,0,0,3.18,1.49,5.59,5.59,0,0,0,3.7-1.05,4.6,4.6,0,0,0,2-3Z"/><path class="cls-36" d="M455.37,476.08a4.07,4.07,0,0,0-1.77,2.49,2.92,2.92,0,0,0,.62,2.63,3.54,3.54,0,0,0,2.64,1.24,4.75,4.75,0,0,0,3.12-.88,4,4,0,0,0,1.76-2.48,2.94,2.94,0,0,0-.61-2.64,3.66,3.66,0,0,0-2.65-1.23,4.87,4.87,0,0,0-3.11.87Z"/><path d="M456.87,482.66h-.41a4.57,4.57,0,0,1-3.33-1.56,3.74,3.74,0,0,1-.85-3.32,5,5,0,0,1,2.14-3.09,6,6,0,0,1,3.82-1.08h0a4.6,4.6,0,0,1,3.33,1.55,3.7,3.7,0,0,1,.84,3.32,4.86,4.86,0,0,1-2.12,3.09A5.85,5.85,0,0,1,456.87,482.66Zm1-8.66a5.58,5.58,0,0,0-3.21,1,4.58,4.58,0,0,0-2,2.85,3.27,3.27,0,0,0,.76,3,4.15,4.15,0,0,0,3,1.42,5.5,5.5,0,0,0,3.58-1,4.41,4.41,0,0,0,1.95-2.83,3.31,3.31,0,0,0-.75-3,4.13,4.13,0,0,0-3-1.4Z"/><path class="cls-35" d="M455.53,474.9a1.29,1.29,0,0,0-.55.77.94.94,0,0,0,.19.83,1.14,1.14,0,0,0,.82.38,1.52,1.52,0,0,0,1-.28,1.26,1.26,0,0,0,.54-.77.9.9,0,0,0-.19-.82,1.14,1.14,0,0,0-.82-.38,1.51,1.51,0,0,0-1,.27Z"/><path class="cls-37" d="M456.26,476.9a3,3,0,0,0-1.65.38,1.8,1.8,0,0,0-.91,1.09,1.15,1.15,0,0,0,.36,1.15,2.15,2.15,0,0,0,1.42.55,2.91,2.91,0,0,0,1.64-.39,1.72,1.72,0,0,0,.91-1.08,1.12,1.12,0,0,0-.36-1.16,2.12,2.12,0,0,0-1.41-.54Z"/><path d="M455.63,480.28h-.16a2.4,2.4,0,0,1-1.55-.61,1.31,1.31,0,0,1-.41-1.35,2,2,0,0,1,1-1.22h0a3.25,3.25,0,0,1,1.76-.41,2.34,2.34,0,0,1,1.54.6,1.34,1.34,0,0,1,.41,1.36,1.92,1.92,0,0,1-1,1.21A3.15,3.15,0,0,1,455.63,480.28Zm-.91-2.83a1.61,1.61,0,0,0-.82,1,.92.92,0,0,0,.3.95,2,2,0,0,0,1.29.5,2.86,2.86,0,0,0,1.53-.36,1.55,1.55,0,0,0,.81-1,.92.92,0,0,0-.3-1,1.94,1.94,0,0,0-1.28-.49A2.86,2.86,0,0,0,454.72,477.45Z"/><path class="cls-29" d="M469,464.32a3.06,3.06,0,0,0-2.11.71,2.83,2.83,0,0,0-1.08,1.88,2.43,2.43,0,0,0,.58,2,2.56,2.56,0,0,0,1.92.91,3,3,0,0,0,2.1-.69,2.85,2.85,0,0,0,1.09-1.89,2.44,2.44,0,0,0-.59-2,2.65,2.65,0,0,0-1.91-.92Z"/><path class="cls-38" d="M470.72,466.29a1.94,1.94,0,0,0-1.38-.66,2.13,2.13,0,0,0-1.52.51,2,2,0,0,0-.78,1.35,1.77,1.77,0,0,0,.42,1.43,1.87,1.87,0,0,0,1.38.65,2.18,2.18,0,0,0,1.52-.5,2,2,0,0,0,.78-1.36,1.77,1.77,0,0,0-.42-1.42Z"/><path d="M468.48,470.15h-.19a2.88,2.88,0,0,1-2.15-1,2.8,2.8,0,0,1-.67-2.24,3.16,3.16,0,0,1,1.21-2.1A3.39,3.39,0,0,1,469,464a3,3,0,0,1,2.16,1,2.8,2.8,0,0,1,.67,2.24,3.16,3.16,0,0,1-1.22,2.11A3.28,3.28,0,0,1,468.48,470.15Zm.36-5.49a2.72,2.72,0,0,0-1.74.63h0a2.53,2.53,0,0,0-1,1.67,2.09,2.09,0,0,0,.5,1.71,2.23,2.23,0,0,0,1.68.79,2.59,2.59,0,0,0,1.87-.62,2.45,2.45,0,0,0,1-1.66,2.14,2.14,0,0,0-.5-1.72,2.31,2.31,0,0,0-1.68-.8Zm-1.95.37Z"/><path class="cls-29" d="M477.26,471.71a3.36,3.36,0,0,0-2.06,1.16,2.43,2.43,0,0,0-.58,2,2.34,2.34,0,0,0,1.25,1.67,3.64,3.64,0,0,0,4.4-.79,2.37,2.37,0,0,0,.58-2,2.34,2.34,0,0,0-1.25-1.67,3.33,3.33,0,0,0-2.34-.37Z"/><path class="cls-38" d="M478.09,473.12a2.66,2.66,0,0,0-1.63.47,1.87,1.87,0,0,0-.84,1.25,1.51,1.51,0,0,0,.45,1.32,2.22,2.22,0,0,0,1.49.6,2.59,2.59,0,0,0,1.63-.45,1.88,1.88,0,0,0,.84-1.26,1.46,1.46,0,0,0-.46-1.31,2.18,2.18,0,0,0-1.48-.62Z"/><path d="M477.49,477.33a3.6,3.6,0,0,1-1.79-.47,2.67,2.67,0,0,1-1.41-1.92,2.7,2.7,0,0,1,.64-2.28h0a4,4,0,0,1,4.83-.88,2.71,2.71,0,0,1,1.42,1.91,2.76,2.76,0,0,1-.66,2.3,3.72,3.72,0,0,1-2.26,1.27A4.19,4.19,0,0,1,477.49,477.33Zm-2-4.24a2,2,0,0,0-.5,1.74,2,2,0,0,0,1.08,1.44,3,3,0,0,0,2.11.32,3,3,0,0,0,1.86-1,2.05,2.05,0,0,0,.51-1.74,2,2,0,0,0-1.09-1.44,3,3,0,0,0-2.11-.32A3,3,0,0,0,475.46,473.09Z"/><path class="cls-34" d="M448.55,473a.55.55,0,0,0-.79-.16c-.62.42-1,1.61-1.27,3.6l2.69-1.81a3.81,3.81,0,0,0-.63-1.63Z"/><path class="cls-39" d="M461.8,490.31a29.84,29.84,0,0,0-21.3-8.17,31.81,31.81,0,0,0-21.84,8.17q-9.2,8.19-9.58,19.76a25,25,0,0,0,8.27,19.76A29.86,29.86,0,0,0,438.66,538a31.74,31.74,0,0,0,21.83-8.19q9.21-8.19,9.59-19.76a25,25,0,0,0-8.28-19.76Z"/><path class="cls-40" d="M445.61,482.27a48,48,0,0,1,6.1,3.53,29.84,29.84,0,0,1,4.14,3.49,30.92,30.92,0,0,0-16.35-3.48,27.67,27.67,0,0,0-13.56,4.74,28.92,28.92,0,0,0-9.16,9.87,22.48,22.48,0,0,0-3.14,11.9c0,.19,0,.45,0,.78s0,.64,0,.79l-2.8.94-1.09,3.88,3.4,6.11,2.07-2.25a25.88,25.88,0,0,0,2.22,3.65,35.27,35.27,0,0,0,3,3.46,24.5,24.5,0,0,0,18.27,7.52,27.25,27.25,0,0,0,19.09-7.52,34.77,34.77,0,0,0,4.12-4.48,30.4,30.4,0,0,0,2.95-4.88l2.77.83,1.56-4.35L466,516a27.71,27.71,0,0,0,.45-3.7,34,34,0,0,0-.72-10,18.37,18.37,0,0,0-3.19-6.73l.92-3.67a29.46,29.46,0,0,0-17.87-9.65Z"/><path d="M438.66,538.36a30.32,30.32,0,0,1-21.54-8.28,25.46,25.46,0,0,1-8.38-20c.26-7.77,3.52-14.5,9.69-20a32.3,32.3,0,0,1,22.07-8.26A30.28,30.28,0,0,1,462,490.07a25.4,25.4,0,0,1,8.39,20c-.25,7.78-3.51,14.5-9.7,20A32.27,32.27,0,0,1,438.66,538.36Zm1.84-55.88a31.62,31.62,0,0,0-21.62,8.09c-6,5.37-9.21,11.93-9.46,19.51a24.74,24.74,0,0,0,8.17,19.5,29.64,29.64,0,0,0,21.07,8.1,31.6,31.6,0,0,0,21.61-8.1c6-5.37,9.23-11.94,9.47-19.52a24.77,24.77,0,0,0-8.17-19.5A29.67,29.67,0,0,0,440.5,482.48Z"/><path class="cls-41" d="M430.28,471.8a3.78,3.78,0,0,0-2.1-1.58,2.51,2.51,0,0,0-2.26.31,2.57,2.57,0,0,0-1.1,2,4.06,4.06,0,0,0,2.8,4.11,2.56,2.56,0,0,0,2.27-.3,2.52,2.52,0,0,0,1.09-2,3.76,3.76,0,0,0-.7-2.53Zm-4.58.85a1.77,1.77,0,0,1,2.39-1.63,3.07,3.07,0,0,1,2.06,3,1.76,1.76,0,0,1-2.39,1.63,2.8,2.8,0,0,1-1.52-1.17,2.86,2.86,0,0,1-.54-1.85Z"/><polygon class="cls-42" points="430.93 472.93 430.51 472.04 429.87 472.64 430.06 473.71 430.93 472.93 430.93 472.93"/><path d="M428.5,477a3.2,3.2,0,0,1-.94-.14,3.92,3.92,0,0,1-2.2-1.65,4.06,4.06,0,0,1-.75-2.67,2.76,2.76,0,0,1,1.2-2.14,2.71,2.71,0,0,1,2.43-.33,3.94,3.94,0,0,1,2.21,1.65,4,4,0,0,1,.73,2.67A2.72,2.72,0,0,1,430,476.5,2.58,2.58,0,0,1,428.5,477Zm-1.19-6.67a2.18,2.18,0,0,0-1.27.41,2.33,2.33,0,0,0-1,1.84,3.63,3.63,0,0,0,.67,2.4,3.55,3.55,0,0,0,2,1.49,2.32,2.32,0,0,0,3.11-2.12,3.87,3.87,0,0,0-2.65-3.89h0A2.63,2.63,0,0,0,427.31,470.29Zm1.11,5.69a2.36,2.36,0,0,1-.72-.12,3,3,0,0,1-1.63-1.25,3.06,3.06,0,0,1-.57-2h0a2,2,0,0,1,.86-1.58,2,2,0,0,1,1.79-.23,3.29,3.29,0,0,1,2.2,3.23,2,2,0,0,1-.85,1.6A1.91,1.91,0,0,1,428.42,476Zm-2.52-3.32a2.61,2.61,0,0,0,.51,1.72,2.54,2.54,0,0,0,1.41,1.09,1.62,1.62,0,0,0,1.45-.16,1.56,1.56,0,0,0,.67-1.29,2.85,2.85,0,0,0-1.91-2.81,1.57,1.57,0,0,0-2.13,1.45Z"/><path class="cls-43" d="M423.78,479.86a1.78,1.78,0,0,0-1.34.21,2,2,0,0,0-.93,1.1,1.69,1.69,0,0,0,0,1.21,8.41,8.41,0,0,1-2.29,2.28,8.89,8.89,0,0,0,1.54,2,5.73,5.73,0,0,0,1.4,1,7.25,7.25,0,0,1,.43-4.31,1.73,1.73,0,0,0,1.3-.22,2,2,0,0,0,.91-1.1,1.64,1.64,0,0,0,0-1.34,1.43,1.43,0,0,0-1-.82Z"/><path class="cls-31" d="M408.31,488.28a15.18,15.18,0,0,0-5.13,3.2c-1.26,1.23-1.76,2.4-1.53,3.51a6.22,6.22,0,0,1,2.46-.29q.42-1.87,5.18-2.93a33.33,33.33,0,0,0,4.25,7.68l10.2-4.21a37.16,37.16,0,0,1-5.85-6.6,8.09,8.09,0,0,0,2.85-2,8.89,8.89,0,0,1-1.54-2,7.49,7.49,0,0,1-4.23,1.13,30.22,30.22,0,0,0,2.31,11.35,34.59,34.59,0,0,1-5.22-4.2,27.55,27.55,0,0,1-3.75-4.66Z"/><path class="cls-43" d="M404,497.32a.89.89,0,0,0,0,.64,1.28,1.28,0,0,0,1.47.76.93.93,0,0,0,.64-1.28,1.25,1.25,0,0,0-.6-.64,1.23,1.23,0,0,0-.86-.11,2.49,2.49,0,0,1-.59-2,6.22,6.22,0,0,0-2.46.29,5.18,5.18,0,0,0-.86.35,10.47,10.47,0,0,1,3.22,2Z"/><path class="cls-43" d="M412.35,485.41,408.88,487a7.72,7.72,0,0,1-.57,1.32,27.55,27.55,0,0,0,3.75,4.66,34.59,34.59,0,0,0,5.22,4.2A30.22,30.22,0,0,1,415,485.79a12.18,12.18,0,0,1-2.62-.38Z"/><path class="cls-44" d="M404.34,497.32a.76.76,0,0,0,.26,1.11,1.35,1.35,0,0,0,1.47,0c.37-1.1-.06-1.66-1.29-1.7a2.9,2.9,0,0,1-.75-2h-1.2a4.36,4.36,0,0,0,1.51,2.61Z"/><path class="cls-44" d="M424.46,480.15l-.62-.44-2,.85.79.34a1.75,1.75,0,0,0-.51,1.67,14.87,14.87,0,0,1-1.13,1.69,5.55,5.55,0,0,1-1.33,1.22l1.1,1.35c.25-.08.4-.07.44,0a8.31,8.31,0,0,1,1.12-3.77c2.2.43,2.9-.54,2.11-2.93Z"/><path class="cls-45" d="M402.83,494.71H404c.13-1.36,1.86-2.38,5.17-3l2.67,5.31.85-.5,6.61-3.46a14.36,14.36,0,0,1-2-4.51c2.07-.47,3.22-1,3.44-1.68l-1.1-1.35a5.4,5.4,0,0,1-2.76,1.1,5.83,5.83,0,0,1-2.91-.51l-5.47,2.48a17.45,17.45,0,0,0-4.25,3.15c-1.08,1.15-1.57,2.15-1.47,3Z"/><path d="M423.87,479.53h0a2,2,0,0,0-1.59.25,2.32,2.32,0,0,0-1.08,1.27,2,2,0,0,0-.08,1.28,8.1,8.1,0,0,1-2.1,2,7.14,7.14,0,0,1-4,1.08,11.9,11.9,0,0,1-2.54-.37l-.12,0-3.71,1.67,0,.14a8.81,8.81,0,0,1-.5,1.16,15.16,15.16,0,0,0-5.13,3.22,4.37,4.37,0,0,0-1.67,3.53,5.59,5.59,0,0,0-.63.26l-.68.33.71.3a9.91,9.91,0,0,1,3,1.78,1.16,1.16,0,0,0,.1.65h0a1.55,1.55,0,0,0,.75.81h0a1.52,1.52,0,0,0,1.1.14,1.2,1.2,0,0,0,.84-.67h0a1.25,1.25,0,0,0,0-1.07h0a1.54,1.54,0,0,0-.75-.82,1.67,1.67,0,0,0-.86-.18,2.05,2.05,0,0,1-.41-1.55c.28-1.08,1.82-1.95,4.64-2.6a33.28,33.28,0,0,0,4.18,7.48l.16.21,10.93-4.52L424,495a37.09,37.09,0,0,1-5.56-6.2,8.26,8.26,0,0,0,2.35-1.65A6.48,6.48,0,0,0,422,488l.6.31-.12-.68a6.93,6.93,0,0,1,.32-3.87,2.07,2.07,0,0,0,1.25-.3,2.34,2.34,0,0,0,1.06-1.28h0a2,2,0,0,0-.05-1.61h0a1.78,1.78,0,0,0-1.19-1Zm-20.46,12.19a14.77,14.77,0,0,1,5-3.12l.06,0,.06,0,.06-.11a10.1,10.1,0,0,0,.54-1.23l3.23-1.44a12.12,12.12,0,0,0,2.58.36h0a7.82,7.82,0,0,0,4.23-1.07,9.59,9.59,0,0,0,1.16,1.5,7.9,7.9,0,0,1-2.61,1.76l-.37.17.23.34a36.81,36.81,0,0,0,5.51,6.3l-9.46,3.9a32.93,32.93,0,0,1-4.05-7.38l-.11-.28-.28.07c-3.24.71-5.05,1.73-5.41,3a6.48,6.48,0,0,0-1.86.21,3.89,3.89,0,0,1,1.46-3Zm1,5.17.13.18.23-.05a.9.9,0,0,1,.62.08h0a.9.9,0,0,1,.45.47.64.64,0,0,1,0,.51h0a.56.56,0,0,1-.39.31.93.93,0,0,1-.63-.08.91.91,0,0,1-.44-.47h0a.58.58,0,0,1,0-.41l.06-.22-.16-.14a11.48,11.48,0,0,0-2.69-1.76l.46-.2a6,6,0,0,1,1.73-.22,2.89,2.89,0,0,0,.69,2Zm18.18-16.52a1.47,1.47,0,0,1,1.09-.18,1.09,1.09,0,0,1,.74.63h0a1.31,1.31,0,0,1,0,1.08,1.69,1.69,0,0,1-.76.92,1.42,1.42,0,0,1-1.05.18l-.28-.06-.11.25a7.34,7.34,0,0,0-.56,3.8,6.11,6.11,0,0,1-1.06-.74,9.17,9.17,0,0,1-1.1-1.42,8.88,8.88,0,0,0,2.23-2.26l.1-.14-.06-.17a1.38,1.38,0,0,1,0-1h0a1.66,1.66,0,0,1,.78-.91Z"/><path class="cls-43" d="M415,486.13h0a12.12,12.12,0,0,1-2.58-.36l-3.23,1.44a10.1,10.1,0,0,1-.54,1.23l-.06.11-.06,0a26.67,26.67,0,0,0,3.56,4.37,34.59,34.59,0,0,0,5.22,4.2,30.46,30.46,0,0,1-2.31-11Z"/><path d="M417.28,497.21l0,0A34.59,34.59,0,0,1,412,493a26.87,26.87,0,0,1-3.56-4.38.07.07,0,0,1,.11-.07,27.54,27.54,0,0,0,3.55,4.36,34.66,34.66,0,0,0,5,4.06,30.07,30.07,0,0,1-2.23-10.83.07.07,0,0,1,.06-.07h0a.07.07,0,0,1,.06.07,30.45,30.45,0,0,0,2.3,11,.08.08,0,0,1,0,.08Z"/><path class="cls-46" d="M432.05,470.43l-.36-.31a11.22,11.22,0,0,1-5,2.56,2.12,2.12,0,0,0,1.57,2.13,11.31,11.31,0,0,1,3.93-4l-.13-.36Z"/><path class="cls-29" d="M426.68,472.68c-.65,0-1.12.05-1.43.08a4.92,4.92,0,0,0-1.62.51,9.91,9.91,0,0,0-3.84,3.29c-.79,1.23-.93,2.27-.41,3.13s1.7.93,3.11.54a9.78,9.78,0,0,0,4.28-2.68,4.77,4.77,0,0,0,1-1.39c.11-.3.28-.74.5-1.35a2.12,2.12,0,0,1-1.57-2.13Z"/><path class="cls-47" d="M431.31,471.15v-.49a18,18,0,0,1-4.3,3.19l1.11,1a20,20,0,0,1,3.19-3.74Z"/><path class="cls-48" d="M420.76,479.35a2.17,2.17,0,0,0,2.36.42,6.49,6.49,0,0,0,2.72-1.43,6.68,6.68,0,0,0,1.29-1.4l.53-1a4.26,4.26,0,0,1,.46-1l-1.11-1a2.73,2.73,0,0,1-.72.2,3.57,3.57,0,0,0-1.18.21,10.24,10.24,0,0,0-1.65,1.1,19.47,19.47,0,0,0-2.25,2,1.55,1.55,0,0,0-.45,2Z"/><path d="M428.25,475h-.07a2.29,2.29,0,0,1-1.7-2.32.19.19,0,0,1,.2-.2h0a.2.2,0,0,1,.2.2,1.92,1.92,0,0,0,1.44,1.94.2.2,0,0,1-.07.39Z"/><path d="M421.18,480.77a2.61,2.61,0,0,1-2.06-.85l0-.05c-.59-1-.45-2.15.41-3.5a10.43,10.43,0,0,1,4-3.4,4.81,4.81,0,0,1,1.74-.54q.48-.06,1.44-.09a11,11,0,0,0,4.83-2.49.35.35,0,0,1,.43,0l.36.31a.45.45,0,0,1,.1.14l.13.36a.33.33,0,0,1-.13.39,11.21,11.21,0,0,0-3.81,3.88c-.23.66-.4,1.1-.5,1.34h0a5,5,0,0,1-1.05,1.5,10.15,10.15,0,0,1-4.43,2.77A5.35,5.35,0,0,1,421.18,480.77Zm-1.53-1.28c.58.63,1.48.77,2.75.42a9.53,9.53,0,0,0,4.13-2.6,4.08,4.08,0,0,0,.9-1.29c.1-.24.26-.67.5-1.32v0a11.24,11.24,0,0,1,3.83-4v0l-.08-.07a11.38,11.38,0,0,1-5,2.46h0c-.63,0-1.1.05-1.4.08a4.22,4.22,0,0,0-1.51.48,9.61,9.61,0,0,0-3.71,3.16C419.36,477.85,419.22,478.75,419.65,479.49Z"/><path class="cls-29" d="M422.21,479.19h0a.34.34,0,0,1-.3-.2l-.46-1-.76-.33a.32.32,0,0,1-.2-.25.35.35,0,0,1,.1-.31l.82-.75a.34.34,0,1,1,.46.5l-.43.39.4.17a.33.33,0,0,1,.18.17l.22.49.36-.65a.35.35,0,0,1,.28-.17l1-.06-.35-.4a.31.31,0,0,1-.09-.22v-.77l-.64.3a.35.35,0,0,1-.45-.17.34.34,0,0,1,.17-.45l1.12-.51a.33.33,0,0,1,.32,0,.34.34,0,0,1,.16.29v1.16l.73.82a.34.34,0,0,1,.06.36.31.31,0,0,1-.29.2l-1.52.1L422.5,479A.33.33,0,0,1,422.21,479.19Z"/><path class="cls-29" d="M433.84,470a1.31,1.31,0,1,0-2.62,0,1.28,1.28,0,0,0,.38.93,1.3,1.3,0,0,0,1.86,0,1.28,1.28,0,0,0,.38-.93Z"/><path d="M432.53,471.64a1.66,1.66,0,0,1-1.65-1.66,1.66,1.66,0,0,1,1.65-1.65,1.65,1.65,0,0,1,1.17.48h0a1.62,1.62,0,0,1,.48,1.17,1.59,1.59,0,0,1-.49,1.17A1.56,1.56,0,0,1,432.53,471.64Zm0-2.63a.94.94,0,0,0-.69.29,1,1,0,0,0,0,1.37.94.94,0,0,0,.69.29.91.91,0,0,0,.68-.29.89.89,0,0,0,.29-.69,1,1,0,0,0-.28-.69h0A.94.94,0,0,0,432.53,469Z"/><polygon class="cls-31" points="423.74 475.24 423.17 475.5 421.06 477.43 421.67 477.69 422.18 478.78 422.86 477.55 424.56 477.45 423.74 476.53 423.74 475.24 423.74 475.24"/><polygon class="cls-26" points="423.17 475.5 422.62 475.75 421.67 475.2 421.6 476.56 420.79 477.31 421.06 477.43 423.17 475.5 423.17 475.5"/><path d="M422.18,478.92h0a.15.15,0,0,1-.12-.08l-.49-1-.84-.35a.15.15,0,0,1-.08-.11.14.14,0,0,1,0-.12l.78-.71.06-1.3a.14.14,0,0,1,.07-.11.12.12,0,0,1,.14,0l.89.51.49-.22.57-.26a.15.15,0,0,1,.13,0,.14.14,0,0,1,.06.12v1.24l.78.88a.14.14,0,0,1,0,.14.12.12,0,0,1-.11.08l-1.63.1-.64,1.17A.15.15,0,0,1,422.18,478.92ZM421,477.27l.69.29a.12.12,0,0,1,.07.07l.4.85.55-1a.14.14,0,0,1,.11-.07l1.42-.08-.63-.71a.14.14,0,0,1,0-.09v-1.08l-.38.18h0l-.55.24a.15.15,0,0,1-.13,0l-.76-.44-.05,1.14a.11.11,0,0,1-.05.09Zm2.14-1.77Z"/><path class="cls-41" d="M431,474.33a4.16,4.16,0,0,0,0-.61h-.84c0,.1,0,.21,0,.32a1.76,1.76,0,0,1-2.39,1.63,2.8,2.8,0,0,1-1.52-1.17,2.86,2.86,0,0,1-.54-1.85,1.77,1.77,0,0,1,2.39-1.63l.09,0v-.83a2.51,2.51,0,0,0-2.26.31,2.57,2.57,0,0,0-1.1,2,4.06,4.06,0,0,0,2.8,4.11,2.56,2.56,0,0,0,2.27-.3,2.52,2.52,0,0,0,1.09-2Z"/><path d="M428.5,477a3.2,3.2,0,0,1-.94-.14,3.92,3.92,0,0,1-2.2-1.65,4.06,4.06,0,0,1-.75-2.67,2.76,2.76,0,0,1,1.2-2.14,2.71,2.71,0,0,1,2.43-.33.2.2,0,0,1,.14.25.21.21,0,0,1-.26.14,2.26,2.26,0,0,0-2.08.28,2.33,2.33,0,0,0-1,1.84,3.63,3.63,0,0,0,.67,2.4,3.55,3.55,0,0,0,2,1.49,2.32,2.32,0,0,0,3.11-2.12,3.57,3.57,0,0,0,0-.57.2.2,0,0,1,.18-.22.2.2,0,0,1,.22.19,3.39,3.39,0,0,1,0,.64A2.72,2.72,0,0,1,430,476.5,2.58,2.58,0,0,1,428.5,477Zm-.08-1a2.36,2.36,0,0,1-.72-.12,3,3,0,0,1-1.63-1.25,3.06,3.06,0,0,1-.57-2,2,2,0,0,1,.86-1.58,2,2,0,0,1,1.78-.23l.1,0h0a.21.21,0,0,1,.11.27.2.2,0,0,1-.26.11H428a1.57,1.57,0,0,0-2.13,1.45,2.61,2.61,0,0,0,.51,1.72,2.54,2.54,0,0,0,1.41,1.09,1.62,1.62,0,0,0,1.45-.16,1.56,1.56,0,0,0,.67-1.29,1.29,1.29,0,0,0,0-.28.2.2,0,0,1,.19-.22.21.21,0,0,1,.22.19c0,.12,0,.24,0,.34a2,2,0,0,1-.85,1.6A1.91,1.91,0,0,1,428.42,476Z"/><path class="cls-49" d="M417.74,475.05a5.51,5.51,0,0,0-2.77-3.6,19.57,19.57,0,0,0-5-1.76L407,469c-1.16-.28-2.14-.55-3-.82a14.68,14.68,0,0,1-5.25-2.8,13.64,13.64,0,0,1,.07,5.46,43.5,43.5,0,0,1-1.36,5.18,28.64,28.64,0,0,0-1.13,4.69,6.45,6.45,0,0,0,.72,4A5.77,5.77,0,0,0,400,486.9a16.09,16.09,0,0,0,4.39,1.12,19.5,19.5,0,0,0,4.56.09,7.5,7.5,0,0,0,3.33-1,13.12,13.12,0,0,0,4.5-5.38,10.18,10.18,0,0,0,1-6.72Z"/><path d="M407.06,488.55a21.8,21.8,0,0,1-2.75-.19,16.38,16.38,0,0,1-4.48-1.15,6,6,0,0,1-3-2.27,6.73,6.73,0,0,1-.77-4.26,29.42,29.42,0,0,1,1.15-4.75,45.36,45.36,0,0,0,1.34-5.13,13.19,13.19,0,0,0-.06-5.33l-.25-1,.8.71a14.55,14.55,0,0,0,5.14,2.73c.8.26,1.78.53,2.92.81l.27.06,2.63.61a20,20,0,0,1,5.12,1.8h0a5.91,5.91,0,0,1,2.93,3.82,10.54,10.54,0,0,1-1,6.95,13.34,13.34,0,0,1-4.62,5.51,7.73,7.73,0,0,1-3.48,1C408.33,488.51,407.7,488.55,407.06,488.55Zm-7.71-22.31a14.49,14.49,0,0,1-.11,4.67,44.67,44.67,0,0,1-1.36,5.22,27.89,27.89,0,0,0-1.12,4.63,6.1,6.1,0,0,0,.67,3.83,5.49,5.49,0,0,0,2.66,2,16.37,16.37,0,0,0,4.3,1.1,19.33,19.33,0,0,0,4.48.08,7.18,7.18,0,0,0,3.18-.91,12.74,12.74,0,0,0,4.38-5.24,9.84,9.84,0,0,0,1-6.5,5.17,5.17,0,0,0-2.61-3.38h0a19.53,19.53,0,0,0-4.93-1.72l-2.64-.62-.27-.06c-1.15-.28-2.15-.56-3-.83A16.19,16.19,0,0,1,399.35,466.24Z"/><path class="cls-50" d="M417,477.35a5.63,5.63,0,0,0-2.18-4,7,7,0,0,0-3.66-1.72,33.2,33.2,0,0,1-3.6-.55,24.12,24.12,0,0,1-3.52-1,18.53,18.53,0,0,1-3.71-2.11,10.76,10.76,0,0,1-.16,4.66,34.84,34.84,0,0,1-1.43,4.36,24.14,24.14,0,0,0-1.22,3.95,5.22,5.22,0,0,0,.5,3.48,7.17,7.17,0,0,0,2,2.1,8.21,8.21,0,0,0,3.74,1.29,30.6,30.6,0,0,0,4.51.25,7.43,7.43,0,0,0,3.9-1.16,11.16,11.16,0,0,0,3.39-4.08,9.59,9.59,0,0,0,1.4-5.42Z"/><path class="cls-49" d="M408.7,486.28h-.17a17.21,17.21,0,0,1-4.5-.86,9,9,0,0,1-4.81-3,3.84,3.84,0,0,1-.65-3.87,4.53,4.53,0,0,1,3.15-2.63,9.64,9.64,0,0,1,5.15.11,5.44,5.44,0,0,1,2.1-3.63,4.89,4.89,0,0,1,4-.91,4.25,4.25,0,0,1,3.24,2.56,7.2,7.2,0,0,1-.32,5.65,24.9,24.9,0,0,1-1.4,3c-.13.23-.26.43-.37.61a7.35,7.35,0,0,1-1.83,2,4.65,4.65,0,0,1-.5.32,6.15,6.15,0,0,1-2.75.72ZM404,476.84a6.67,6.67,0,0,0-1.88.26,3.3,3.3,0,0,0-2.36,1.9,2.64,2.64,0,0,0,.5,2.69,7.86,7.86,0,0,0,4.18,2.56,15.85,15.85,0,0,0,4.18.8H409a5,5,0,0,0,2.21-.57,4,4,0,0,0,.38-.24,6.12,6.12,0,0,0,1.52-1.65c.1-.15.21-.32.32-.52a23.23,23.23,0,0,0,1.34-2.83,6,6,0,0,0,.33-4.69,3.09,3.09,0,0,0-2.36-1.87h0a3.63,3.63,0,0,0-3.06.7,4.4,4.4,0,0,0-1.7,3.47l0,.78-.75-.23A11,11,0,0,0,404,476.84Z"/><path class="cls-51" d="M412.82,472a4.24,4.24,0,0,0-3.55.81,5,5,0,0,0-1.93,3.92,9.56,9.56,0,0,0-5.51-.31,3.93,3.93,0,0,0-2.76,2.27,3.23,3.23,0,0,0,.58,3.28,8.37,8.37,0,0,0,4.49,2.78,26.86,26.86,0,0,1,2.94-2.11,25.46,25.46,0,0,1,2.78-1.48,26.47,26.47,0,0,1,5.43-1.78,6.6,6.6,0,0,0,.33-5.17,3.67,3.67,0,0,0-2.8-2.21Z"/><path class="cls-26" d="M415.29,479.33a24.35,24.35,0,0,0-2.41.63l1.05,2.27a23.88,23.88,0,0,0,1.36-2.9Z"/><path class="cls-26" d="M407.08,482.59a26.86,26.86,0,0,0-2.94,2.11,17.09,17.09,0,0,0,4.34.83,4.34,4.34,0,0,0,.51,0l-1.91-2.93Z"/><path class="cls-26" d="M413.58,482.8c.12-.17.23-.36.35-.57L412.88,480a24.4,24.4,0,0,0-3,1.15l2.05,3.49a7,7,0,0,0,1.67-1.8Z"/><path class="cls-26" d="M411.47,484.88a4.08,4.08,0,0,0,.44-.28l-2.05-3.49a25.46,25.46,0,0,0-2.78,1.48l1.91,2.93a5.64,5.64,0,0,0,2.48-.64Z"/><path d="M408.63,485.74h-.15a17.12,17.12,0,0,1-4.4-.83h0a8.7,8.7,0,0,1-4.6-2.85,3.48,3.48,0,0,1-.6-3.48,4.13,4.13,0,0,1,2.89-2.38,9.54,9.54,0,0,1,5.38.23,5.15,5.15,0,0,1,2-3.82,4.46,4.46,0,0,1,3.71-.84,3.91,3.91,0,0,1,2.95,2.33,6.79,6.79,0,0,1-.33,5.32h0a24.14,24.14,0,0,1-1.37,2.92h0a6.5,6.5,0,0,1-.35.57,6.72,6.72,0,0,1-1.72,1.85h0l-.46.29a6,6,0,0,1-2.57.67h-.37Zm-4.06-1.13a16.11,16.11,0,0,0,3.92.72h.13l-1.6-2.46A26.45,26.45,0,0,0,404.57,484.61Zm2.79-1.95,1.73,2.65a5.27,5.27,0,0,0,2.28-.61l.27-.16-1.87-3.17C409,481.75,408.16,482.18,407.36,482.66Zm-3.48-6.36a7.09,7.09,0,0,0-2,.27,3.69,3.69,0,0,0-2.63,2.14,3,3,0,0,0,.55,3.09,8.16,8.16,0,0,0,4.29,2.67,25,25,0,0,1,2.87-2.05h0a23.67,23.67,0,0,1,2.8-1.49h0a28.4,28.4,0,0,1,3.05-1.16h0c.78-.24,1.56-.45,2.33-.61a6.35,6.35,0,0,0,.28-4.9,3.44,3.44,0,0,0-2.65-2.1,4.1,4.1,0,0,0-3.39.77,4.76,4.76,0,0,0-1.85,3.77l0,.26-.25-.08A11.4,11.4,0,0,0,403.88,476.3Zm6.27,4.9,1.82,3.1a6.8,6.8,0,0,0,1.44-1.62,5.39,5.39,0,0,0,.29-.46l-.93-2A26.09,26.09,0,0,0,410.15,481.2Zm3-1.12.79,1.7c.32-.61.66-1.34,1-2.17C414.37,479.74,413.77,479.9,413.16,480.08Z"/><path class="cls-37" d="M403.07,479.43a.84.84,0,0,0,0,1.32,1.26,1.26,0,0,0,.81.28,1.21,1.21,0,0,0,.79-.28.82.82,0,0,0,0-1.32,1.2,1.2,0,0,0-.79-.27,1.26,1.26,0,0,0-.81.27Z"/><path d="M403.88,481.23a1.49,1.49,0,0,1-.94-.32,1.07,1.07,0,0,1-.4-.82,1.05,1.05,0,0,1,.4-.82,1.48,1.48,0,0,1,.94-.31,1.4,1.4,0,0,1,.92.31,1,1,0,0,1,0,1.64A1.41,1.41,0,0,1,403.88,481.23Zm0-1.87a1.05,1.05,0,0,0-.68.23.62.62,0,0,0-.25.5.63.63,0,0,0,.26.51,1.08,1.08,0,0,0,1.33,0,.63.63,0,0,0,0-1A1,1,0,0,0,403.88,479.36Z"/><path class="cls-37" d="M412.82,476.64a1.16,1.16,0,0,0,.16-.82.81.81,0,0,0-.4-.61.83.83,0,0,0-.74,0,1.22,1.22,0,0,0-.64.55,1.19,1.19,0,0,0-.15.82.82.82,0,0,0,.4.62.83.83,0,0,0,.74,0,1.29,1.29,0,0,0,.63-.55Z"/><path d="M411.85,477.46a1,1,0,0,1-.5-.13,1,1,0,0,1-.5-.77,1.37,1.37,0,0,1,.18-1,1.42,1.42,0,0,1,.74-.63,1,1,0,0,1,.91.06,1,1,0,0,1,.5.75h0a1.36,1.36,0,0,1-.18,1,1.44,1.44,0,0,1-.74.64A1.24,1.24,0,0,1,411.85,477.46Zm.31-2.16a.79.79,0,0,0-.25.05,1,1,0,0,0-.53.46,1,1,0,0,0-.13.69.64.64,0,0,0,.31.47.61.61,0,0,0,.56,0,1.05,1.05,0,0,0,.52-.46,1,1,0,0,0,.14-.69.65.65,0,0,0-.62-.55Z"/><path class="cls-48" d="M433.14,469.65a.75.75,0,0,0-.53-.22.77.77,0,0,0-.54.22.77.77,0,0,0,.54,1.31.72.72,0,0,0,.53-.23.75.75,0,0,0,0-1.08Z"/><path d="M418.31,537.34a.34.34,0,0,1-.3-.2.33.33,0,0,1,.15-.45l3.53-1.7a.34.34,0,1,1,.29.61l-3.52,1.7A.42.42,0,0,1,418.31,537.34Zm-2.41-2.21a.4.4,0,0,1-.21-.07.35.35,0,0,1-.06-.48l3.7-4.83a.34.34,0,0,1,.47-.06.35.35,0,0,1,.07.48l-3.7,4.82A.35.35,0,0,1,415.9,535.13Zm-3-2.21-.11,0a.34.34,0,0,1-.2-.44l1.1-3a.35.35,0,0,1,.44-.2.33.33,0,0,1,.2.44l-1.11,3A.34.34,0,0,1,412.87,532.92Z"/><path class="cls-29" d="M415.66,533.88a20.15,20.15,0,0,0-5.78-3.34l-.4,4,1.64,1.31,3.81,3,1.58,1.26,4.11-1.16a29.49,29.49,0,0,0-5-5.12Z"/><path class="cls-41" d="M416.51,540.16l-1.58-1.26a3.61,3.61,0,0,1-2,1.48,2.25,2.25,0,0,1-2-.42,2.08,2.08,0,0,1-.85-2,3.84,3.84,0,0,1,1-2.14l-1.64-1.31a6.59,6.59,0,0,0-1.78,3.58,3.92,3.92,0,0,0,1.5,3.36,4.4,4.4,0,0,0,3.84,1.18,5.26,5.26,0,0,0,3.47-2.51Z"/><path class="cls-52" d="M411.12,535.86a3.84,3.84,0,0,0-1,2.14,2.08,2.08,0,0,0,.85,2,2.25,2.25,0,0,0,2,.42,3.61,3.61,0,0,0,2-1.48l-3.81-3Z"/><path class="cls-42" d="M416,539.65l-1.31-1-3.14-2.5L410.2,535a5.4,5.4,0,0,0-1.46,3,3.19,3.19,0,0,0,1.23,2.77,3.62,3.62,0,0,0,3.17,1,4.35,4.35,0,0,0,2.87-2.08Z"/><path class="cls-38" d="M415.63,539.51l3.43-1a20.57,20.57,0,0,0-7.92-6.57l-.51,3.33,5,4.29Z"/><path class="cls-41" d="M409.29,539.1a.74.74,0,0,0,.24-.55.78.78,0,0,0-.24-.57.76.76,0,0,0-.55-.23.81.81,0,0,0-.57.23.77.77,0,0,0-.23.57.73.73,0,0,0,.23.55.78.78,0,0,0,.57.24.74.74,0,0,0,.55-.24Z"/><path class="cls-53" d="M411.12,535.86a3.84,3.84,0,0,0-1,2.14,2.08,2.08,0,0,0,.85,2,2.25,2.25,0,0,0,2,.42,3.61,3.61,0,0,0,2-1.48l-3.81-3Z"/><path d="M412.37,540.66a2.46,2.46,0,0,1-1.52-.54,2.26,2.26,0,0,1-.93-2.14,4,4,0,0,1,.91-2.09l-1.48-1.18a.21.21,0,0,1,0-.29.2.2,0,0,1,.28,0l1.65,1.31h0l3.81,3h0l1.58,1.26a.2.2,0,0,1,0,.28.21.21,0,0,1-.29,0L415,539.19a3.76,3.76,0,0,1-2,1.39A3,3,0,0,1,412.37,540.66Zm-1.22-4.51a3.51,3.51,0,0,0-.82,1.87,1.86,1.86,0,0,0,.76,1.78,2,2,0,0,0,1.83.38,3.4,3.4,0,0,0,1.73-1.25Z"/><path d="M412.25,543.08a4.82,4.82,0,0,1-3.27-1.34,4.26,4.26,0,0,1-1.62-3.64,6.72,6.72,0,0,1,1.79-3.69l.44-4.34.41.15a20.43,20.43,0,0,1,5.87,3.39h0a30.15,30.15,0,0,1,5,5.18l.31.4-4.48,1.26A5.57,5.57,0,0,1,413.1,543,5,5,0,0,1,412.25,543.08ZM410.18,531l-.38,3.68-.07.08a6.32,6.32,0,0,0-1.69,3.39,3.56,3.56,0,0,0,1.39,3.07,4,4,0,0,0,3.55,1.11,5,5,0,0,0,3.25-2.37l.07-.11,3.74-1.05a29.46,29.46,0,0,0-4.59-4.67h0A20.78,20.78,0,0,0,410.18,531Z"/><path class="cls-52" d="M413.28,528a1.48,1.48,0,0,0,.19,1,1.44,1.44,0,0,0,.82.68,1.11,1.11,0,0,0,1-.08,1.09,1.09,0,0,0,.55-.79,1.51,1.51,0,0,0-.2-1,1.46,1.46,0,0,0-.81-.68,1.13,1.13,0,0,0-1,.07,1.12,1.12,0,0,0-.54.81Z"/><path class="cls-52" d="M419.06,528.41a1.14,1.14,0,0,0,.07,1,1.58,1.58,0,0,0,1.91.76,1.16,1.16,0,0,0,.67-1.69,1.48,1.48,0,0,0-.82-.73,1.5,1.5,0,0,0-1.1,0,1.17,1.17,0,0,0-.73.69Z"/><path class="cls-52" d="M422.29,533.74a1.08,1.08,0,0,0-.68.54.85.85,0,0,0,0,.79,1.22,1.22,0,0,0,.66.6,1.32,1.32,0,0,0,.94,0,1,1,0,0,0,.66-.53.87.87,0,0,0,0-.8,1.22,1.22,0,0,0-.66-.58,1.33,1.33,0,0,0-.94,0Z"/><path d="M422.78,536.11a1.81,1.81,0,0,1-.64-.12,1.59,1.59,0,0,1-.84-.77,1.23,1.23,0,0,1,0-1.09h0a1.41,1.41,0,0,1,.88-.71,1.75,1.75,0,0,1,1.17.05,1.57,1.57,0,0,1,.83.75,1.21,1.21,0,0,1,0,1.11,1.35,1.35,0,0,1-.87.7A1.82,1.82,0,0,1,422.78,536.11Zm-.87-1.67a.51.51,0,0,0,0,.48.89.89,0,0,0,.49.44,1,1,0,0,0,.7,0,.74.74,0,0,0,.47-.36.52.52,0,0,0,0-.5.84.84,0,0,0-.48-.42,1,1,0,0,0-.71,0A.74.74,0,0,0,421.91,534.44Zm-1.37-3.84a2,2,0,0,1-.72-.14,1.81,1.81,0,0,1-1-.89,1.51,1.51,0,0,1,.85-2.17,1.8,1.8,0,0,1,1.33,0,1.73,1.73,0,0,1,1,.89,1.51,1.51,0,0,1,.09,1.28,1.5,1.5,0,0,1-.94.88A1.88,1.88,0,0,1,420.54,530.6Zm-.25-2.63a1,1,0,0,0-.38.07.83.83,0,0,0-.48,1.21h0a1.16,1.16,0,0,0,.64.57,1.22,1.22,0,0,0,.86,0,.81.81,0,0,0,.53-.49.8.8,0,0,0,0-.72,1.13,1.13,0,0,0-.64-.57A1.25,1.25,0,0,0,420.29,528Zm-5.59,2.12a1.63,1.63,0,0,1-.52-.09,1.88,1.88,0,0,1-1.23-2.11,1.44,1.44,0,0,1,.7-1,1.48,1.48,0,0,1,1.25-.1,1.92,1.92,0,0,1,1.23,2.1,1.44,1.44,0,0,1-.72,1A1.38,1.38,0,0,1,414.7,530.09Zm-.33-2.75a.76.76,0,0,0-.38.11.73.73,0,0,0-.37.56,1.22,1.22,0,0,0,.78,1.35.77.77,0,0,0,.68-.05.78.78,0,0,0,.38-.57,1.17,1.17,0,0,0-.15-.81,1.15,1.15,0,0,0-.63-.53A.85.85,0,0,0,414.37,527.34Z"/><path class="cls-39" d="M434.81,484.52a12.48,12.48,0,0,0-10.26,3.68c-1.13,1.3-1.49,2.5-1.09,3.62s1.45,1.82,3.14,2.1a11,11,0,0,0,5.55-.66,11.15,11.15,0,0,0,4.71-3c1.14-1.3,1.5-2.5,1.1-3.63s-1.46-1.82-3.15-2.1Z"/><path class="cls-40" d="M431.36,492.31a10.58,10.58,0,0,0,4.29-2.31q1.61-1.5,1.2-2.82c-.26-.88-1.12-1.45-2.56-1.68a12.16,12.16,0,0,0-9.14,2.75c-1.07,1-1.47,1.94-1.2,2.83s1.12,1.44,2.56,1.68a10.71,10.71,0,0,0,4.85-.45Z"/><path d="M482.59,503.21l-.09-.09a51,51,0,0,0-9.51-8.29l-.42-.29-.22,1.12a104.16,104.16,0,0,0-11.18-4.47h-.1a109.07,109.07,0,0,0-18.57-2.72l-.35,0-.14,6.95v.06l.91,6.54,2.15,1.34-2.71,0-6.75-14.11-8.37,1.36-1.1,5.07-2.54-4.25a.3.3,0,0,0-.18-.15.3.3,0,0,0-.23,0,66.22,66.22,0,0,0-7.95,3.52h0c-2,1-4,2.2-6,3.46h0A85.44,85.44,0,0,0,399,506l-.11.09v.14a40,40,0,0,0,2.27,16.25.33.33,0,0,0,.1.14.47.47,0,0,0,.14.08L410,524.8l3.26-3.62a1.09,1.09,0,0,0,.08-.15.43.43,0,0,0,0-.16l-.76-2.94,5,3.05,5-1.3h0l4.85-1.26,5.94-.94a.31.31,0,0,0,.18-.09.34.34,0,0,0,.1-.16l1.88-7.27,1.85,6,4.85-1.2v.64l13.52.69,10.39,2h.06l4,.76,1.12-1.34.55,5.69,3.86-.29h.07l5.11-1.53-1.36-8.68,2.22-1.77a.32.32,0,0,0,.12-.18,25.44,25.44,0,0,0,.75-7.44v-.12Zm-1.39,7.28-.19.16-1.63,1.3-.38-2.36-.75-.41.55,3.44v0l1.3,8.27-4.27,1.28-.24.08h-.17l-3,.22-.55-5.68,2.81-3.33.37-.44,0,0,0-.06-.64-.28-.19.22-3,3.59h0l-1.38,1.63-3.14-.59,3.13-5.48.05-.08a.45.45,0,0,0,0-.11h0l0-.2.93-4.9,0,0v-.08l2-10.43h0v0l.09-.51a50.9,50.9,0,0,1,8.88,7.8,25,25,0,0,1-.67,6.84l-.05.17Zm-58-18.56.27.48,2.48,4.16-2.38,11-.29,1.36-.83,3.77v0a.43.43,0,0,0,0,.16,0,0,0,0,0,0,0s0,.07.06.11l.06.06,4.17,4.84L422.55,519l-4.94-4.17-.23-.19v.14a.37.37,0,0,1-.08.24.28.28,0,0,1-.23.12.34.34,0,0,1-.25-.08l0,0,4.88,4.11-4.09,1.06-5.47-3.33h0l-.19-.11-.33-.21,0-.1c-.1-.51-.21-1-.31-1.52h0v0h0q-.57-2.83-.93-5.59a71.57,71.57,0,0,1-.59-10.67q2.61-1.68,5.29-3.09l.24,5.9.68-.26-.25-6a65.07,65.07,0,0,1,7.33-3.26l.1,0Zm-23.6,14.43a86.44,86.44,0,0,1,9.52-7.24,72.6,72.6,0,0,0,.6,10.23.25.25,0,0,0,0,.08s0,.09,0,.15a1.77,1.77,0,0,0,0,.21c.2,1.53.45,3.07.75,4.61L406,512.08l-.38-.19h0a.43.43,0,0,1,.09.1.61.61,0,0,1,0,.12.42.42,0,0,1,0,.22l0,0a.36.36,0,0,1-.22.13h0a.32.32,0,0,1-.25,0l0,0,.07,0,.44.23,4.95,2.54c.11.54.23,1.07.34,1.62a.27.27,0,0,0,.06.12.29.29,0,0,0,.1.09l.54.33.89,3.44L409.73,524l-7.59-1.91-.39-.1a.76.76,0,0,1,0-.11,39.72,39.72,0,0,1-2.14-15.56Zm33.19-5h0l-.32,1,2.66,6.49-2.06,8-.1,0-5.46.86-4.2-4.87-.15-.17h0l.05-.22,3.45-15.88h0l1.19-5.44,7.41-1.21,6.59,13.78.26,4.55,0,.42.12,2v3.38l-4.39,1.08-1.54-5-.06-.2h0s0,0,0,0l-.06-.16-.38-1h0l-3-7.33Zm10-5.33-.09-.61v-.06l.13-6.22a108.74,108.74,0,0,1,17.86,2.63l.68.19a108.31,108.31,0,0,1,10.87,4.38l-1,5.44-.13.68-.71,3.75-.13.67-.88,4.65,0,.14-.14.25L466,517.4l-9.68-1.84L460,510.9a.33.33,0,0,0,.06-.19l0-.49,0-.42.4-5.85a.22.22,0,0,0,0-.14.25.25,0,0,0-.08-.12l0,0-1.76-1.82,2.1-4.42-.4-.09h0l-2,4.19-.32.65,1.81,1.88-.43,6.43v.08l-.26.33-3.57,4.55-12.7-.66v-4.3L442.5,504l9.44.13-.71-.68-4.85-.07-2.83-1.76-.77-5.54Z"/><polygon class="cls-26" points="475.07 513.05 474.7 513.49 475.42 522.28 475.59 522.27 475.83 522.19 475.07 513.05 475.07 513.05"/><polygon class="cls-43" points="475.42 522.28 474.7 513.49 471.89 516.82 472.44 522.5 475.42 522.28 475.42 522.28"/><polygon class="cls-54" points="474.31 512.9 469.88 512.07 466.75 517.54 469.89 518.13 471.27 516.5 471.27 516.49 474.31 512.9 474.31 512.9"/><polygon class="cls-54" points="479 509.59 479.38 511.95 481.01 510.65 479 509.59 479 509.59"/><path class="cls-26" d="M481,510.65l.19-.16.05-.17-2.57-1.38-.52-.25.09.49.75.41,2,1.06Z"/><path class="cls-26" d="M470,511.87a.45.45,0,0,1,0,.11l-.05.08,4.43.84.19-.22v-.16l-4.49-.85,0,.2Z"/><path class="cls-43" d="M478.77,505.85V505l-4.7-3.16.42,10.64v.16l.64.28,0-.18v0l-.38-9.57,4,2.66Z"/><path class="cls-41" d="M478.77,505v.81l-4-2.66.38,9.57v0l0,.18,0,.06,0,0,.76,9.14,4.27-1.28-1.3-8.27v0l-.55-3.44-.09-.49.52.25,2.57,1.38a25,25,0,0,0,.67-6.84,50.9,50.9,0,0,0-8.88-7.8l-.09.51v0h0l-2,10.43v.08l0,0-.93,4.9,4.49.85-.42-10.64,4.7,3.16Z"/><path class="cls-55" d="M423.44,492.41l-.27-.48-.1,0a98.29,98.29,0,0,0,.18,16.93l.29-1.36a98.35,98.35,0,0,1-.1-15.13Z"/><path class="cls-43" d="M425.92,496.57l-2.48-4.16a98.35,98.35,0,0,0,.1,15.13l2.38-11Z"/><polygon class="cls-54" points="426.72 517.9 422.55 513.06 417.61 514.81 422.55 518.98 426.72 517.9 426.72 517.9"/><path class="cls-26" d="M411.65,516.59l.33.21,4.88-1.72,0,0a.33.33,0,0,1-.1-.14l0-.08h0v-.11l-5.08,1.79,0,.1Z"/><path class="cls-54" d="M412.17,516.91h0l5.47,3.33,4.09-1.06-4.88-4.11L412,516.8l.19.11Z"/><path class="cls-43" d="M416.7,506.65l-.66.26.66,7.78v.12h0l0,.08a.33.33,0,0,0,.1.14.34.34,0,0,0,.25.08.28.28,0,0,0,.23-.12.37.37,0,0,0,.08-.24v-.3l-.67-7.81Z"/><path class="cls-26" d="M422.42,512.86a.43.43,0,0,1,0-.16v0l-5.05,1.79v.16l.23.19,4.94-1.75-.06-.06s-.05-.08-.06-.11a0,0,0,0,1,0,0Z"/><path class="cls-41" d="M416,501.22l-.68.26-.24-5.9q-2.69,1.41-5.29,3.09a71.57,71.57,0,0,0,.59,10.67q.36,2.76.93,5.59h0v0h0c.1.5.21,1,.31,1.52l5.08-1.79-.66-7.79.66-.26.67,7.81,5.05-1.79.83-3.77a98.29,98.29,0,0,1-.18-16.93,65.07,65.07,0,0,0-7.33,3.26l.25,6Z"/><path class="cls-26" d="M409.75,509.79a1.77,1.77,0,0,1,0-.21c0-.06,0-.11,0-.15a.25.25,0,0,1,0-.08l-4.12,2.51,0,0,.38.19,3.77-2.29Z"/><path class="cls-54" d="M410.5,514.4c-.3-1.54-.55-3.08-.75-4.61L406,512.08l4.52,2.32Z"/><path class="cls-41" d="M409.09,499.12a86.44,86.44,0,0,0-9.52,7.24,39.72,39.72,0,0,0,2.14,15.56l4.59-3.11-1-6.32-.07,0L401.7,510l4-2.59.07.75L402.92,510l2.65,1.84,4.12-2.51a72.6,72.6,0,0,1-.6-10.23Z"/><path class="cls-43" d="M405.72,512a.43.43,0,0,0-.09-.1h0l0,0L402.92,510l2.81-1.86-.07-.75-4,2.59,3.51,2.44,0,0a.32.32,0,0,0,.25,0h0a.36.36,0,0,0,.22-.13l0,0a.42.42,0,0,0,0-.22.61.61,0,0,0,0-.12Z"/><path class="cls-26" d="M405.72,512.72l-.44-.23,1,6.32-4.59,3.11a.76.76,0,0,0,0,.11l.39.1,4.41-3,.09,0a.31.31,0,0,0,.07-.09v0a.27.27,0,0,0,0-.09l0-.13-1-6Z"/><path class="cls-43" d="M411,516.88c-.11-.55-.23-1.08-.34-1.62l-4.95-2.54,1,6,5.9,2.11-.89-3.44-.54-.33a.29.29,0,0,1-.1-.09.27.27,0,0,1-.06-.12Z"/><polygon class="cls-54" points="409.74 524.04 412.6 520.86 406.55 519.13 402.14 522.13 409.74 524.04 409.74 524.04"/><path class="cls-56" d="M406.7,518.75l0,.13a.27.27,0,0,1,0,.09v0a.31.31,0,0,1-.07.09l-.09,0,6.05,1.73-5.9-2.11Z"/><path class="cls-26" d="M442.09,508.67l0-.42-5.92,1.48.06.16s0,0,0,0h0l.06.2,5.81-1.45Z"/><polygon class="cls-54" points="442.21 510.7 442.1 508.67 436.28 510.12 437.82 515.17 442.21 514.09 442.21 510.7 442.21 510.7"/><path d="M432.11,501.61h0l0,0a0,0,0,0,0,0,0Z"/><polygon class="cls-41" points="430.24 510.94 430.29 510.92 430.26 510.87 430.24 510.94 430.24 510.94"/><path class="cls-26" d="M432.43,502.37l-.27-.63-2.28,9-6.71,1.73-.05.22h0l.15.17,6.67-1.72.16,0,0,0,.05,0a.26.26,0,0,0,.05-.09l0-.07,2.17-8.5Z"/><path class="cls-56" d="M430.29,510.92l-.05,0a.26.26,0,0,1-.05.09l-.05,0,0,0-.16,0,3,5.73.1,0-2.74-5.92Z"/><polygon class="cls-43" points="430.26 510.87 430.29 510.92 433.03 516.84 435.09 508.86 432.43 502.37 430.26 510.87 430.26 510.87"/><polygon class="cls-54" points="429.94 511.13 423.27 512.85 427.47 517.72 432.93 516.86 429.94 511.13 429.94 511.13"/><path class="cls-43" d="M437,498.72l-.25-.64-5.43,1.06.8,2.44,0,0h0v0l0,.11.27.63.32-1h0l-.57-1.71,4.8-.94Z"/><path class="cls-41" d="M436.73,498.08l.25.64-4.8.94.57,1.71h0l3,7.33h0l.38,1,5.92-1.48-.26-4.55-6.59-13.78-7.41,1.21-1.19,5.44h0l-3.45,15.88,6.71-1.73,2.28-9,0-.11v0a0,0,0,0,1,0,0l-.8-2.44,5.43-1.06Z"/><polygon class="cls-26" points="469.17 511.93 469.31 511.68 469.34 511.54 460.15 509.8 460.13 510.22 469.17 511.93 469.17 511.93"/><path class="cls-54" d="M466,517.4l3.13-5.47-9-1.71,0,.49a.33.33,0,0,1-.06.19l-3.67,4.66L466,517.4Z"/><path class="cls-26" d="M459.42,510.56v-.08H442.88v.41h16.27l.26-.33Z"/><polygon class="cls-54" points="455.59 515.44 459.16 510.89 442.89 510.89 442.89 514.78 455.59 515.44 455.59 515.44"/><polygon class="cls-43" points="453.15 496.08 453.15 496.08 453.15 496.08 453.15 496.08"/><path class="cls-26" d="M452.11,495.51V496l1,.11,7.21,1.24a.33.33,0,0,1,0-.17l0-.24-7.81-1.35-.42-.05Z"/><polygon class="cls-43" points="453.15 496.08 453.15 496.08 452.11 495.97 458.05 502.17 458.37 501.52 453.15 496.08 453.15 496.08"/><polygon class="cls-54" points="443.55 501.58 446.38 503.34 451.23 503.4 442.78 496.04 443.55 501.58 443.55 501.58"/><path class="cls-41" d="M452.11,496v-.46l.42.05,7.81,1.35.34-5.13a108.74,108.74,0,0,0-17.86-2.63l-.13,6.22v.06l9.25,8.06v.6L442.5,504l.38,6.52h16.55l.43-6.43-1.81-1.88-5.94-6.2Z"/><polygon class="cls-26" points="442.69 495.43 442.78 496.04 451.23 503.4 451.94 504.09 451.94 503.49 442.69 495.43 442.69 495.43"/><polygon class="cls-43" points="465.74 499.62 465.74 500.33 471.06 502.47 471.19 501.79 465.74 499.62 465.74 499.62"/><polygon class="cls-43" points="465.48 504.92 465.48 505.63 470.22 506.89 470.35 506.22 465.48 504.92 465.48 504.92"/><path class="cls-41" d="M460.43,503.66l0,0a.25.25,0,0,1,.08.12.22.22,0,0,1,0,.14l-.4,5.85,9.19,1.74.88-4.65-4.74-1.26v-.71l4.87,1.3.71-3.75-5.32-2.14v-.71l5.45,2.17,1-5.44A108.31,108.31,0,0,0,461.36,492l-.51,5.48-.42,6.21Z"/><polygon class="cls-54" points="460.37 497.33 460.37 497.32 453.15 496.08 453.15 496.08 458.37 501.52 460.37 497.33 460.37 497.33"/><path class="cls-43" d="M461.36,492l-.68-.19-.34,5.13,0,.24a.33.33,0,0,0,0,.17h0l.4.09-2.1,4.42,1.76,1.82.42-6.21.51-5.48Z"/><rect class="cls-57" x="453.14" y="496.07" width="0.01" height="0.01"/><path class="cls-58" d="M445.32,490l-1.84-.14-.11,5.24,1.21,1.05,3.44-5.88-2.7-.27Z"/><path class="cls-58" d="M439.37,500.18l-3.75,6.39.77,1.87s0,0,0,0l.17.44.61-.15,3.46-5.91-1.28-2.68Z"/><path class="cls-58" d="M450.79,501.58l1.35,1.18a.61.61,0,0,1,.28.18.62.62,0,0,1,.14.19.68.68,0,0,1,.19.42.65.65,0,0,1-.13.45v.1a.73.73,0,0,1-.21.48.63.63,0,0,1-.49.19l-3,0-3,5.07h5.72l4.84-8.25-3.55-3.7-2.18,3.73Z"/><path class="cls-58" d="M460,492.31c-1.11-.25-2.23-.49-3.34-.7l-2.11,3.6,5.19.9h0v0l.26-3.78Z"/><path class="cls-58" d="M402.33,504.92q-1.05.85-2.1,1.77,0,1-.06,1.92l2.16-3.69Z"/><path class="cls-58" d="M427.29,496.67a.09.09,0,0,0,0,.05l-1.75,8,8.16-13.91-5.32.87-1.08,4.94Z"/><path class="cls-58" d="M421.85,512.15l.71-3.29q-.37-4.11-.43-8l-4.58,7.81.42,4.88,3.88-1.38Z"/><path class="cls-58" d="M412,514.79v0h0a.09.09,0,0,1,0,0l0,.09Z"/><polygon class="cls-58" points="415.76 511.69 413.83 514.98 415.98 514.23 415.76 511.69 415.76 511.69"/><path class="cls-58" d="M401.58,519.19c.15.56.32,1.11.49,1.66l3.49-2.36-.77-4.77-3.21,5.47Z"/><path class="cls-58" d="M406.78,510.33,409,509c-.08-.67-.16-1.35-.22-2l-2,3.35Z"/><polygon class="cls-58" points="456.02 509.8 458.8 509.8 459.15 504.47 456.02 509.8 456.02 509.8"/><path class="cls-58" d="M475.92,502.3l1.41-2.4a44.89,44.89,0,0,0-3.82-3.06l-1.88,9.87a1.23,1.23,0,0,1,0,.19h0a.09.09,0,0,0,0,0l-.77,4,2.74-4.68-.17-4.42a.64.64,0,0,1,.15-.46.69.69,0,0,1,.43-.24.68.68,0,0,1,.48.11l1.47,1Z"/><path class="cls-58" d="M473.61,496.32a0,0,0,0,1,0,0v0Z"/><path class="cls-58" d="M479.61,502.05,478.46,504l.69.47a.65.65,0,0,1,.29.43.74.74,0,0,1-.1.52L479,506a.63.63,0,0,1-.42.29.68.68,0,0,1-.52-.11l-.58-.4-1.72,2.94c0,3,.06,4.5.06,4.52l.66,8.08,2.91-.87-1.21-7.69a.19.19,0,0,1,0-.08l-.55-3.38a5.3,5.3,0,0,1-.06-.77.55.55,0,0,1,.09-.28.53.53,0,0,1,.19-.16.58.58,0,0,1,.26-.06l.22,0a4.5,4.5,0,0,1,.73.29l.18.1.12.07,1.48.79a24.79,24.79,0,0,0,.47-5.54c-.55-.59-1.09-1.16-1.64-1.71Z"/><path class="cls-58" d="M461.31,500.78l-.18,2.7-.26,5.77,7.92,1.5.64-3.37-4.2-1.15a.62.62,0,0,1-.41-.31.67.67,0,0,1-.06-.52v-.66a.65.65,0,0,1,.31-.41.63.63,0,0,1,.52-.07l4.22,1.12.47-2.48L465.48,501c-.09,0-.17-.17-.28-.41a.75.75,0,0,1-.09-.48l0-.63a.65.65,0,0,1,.36-.37,1.17,1.17,0,0,1,.38-.07.87.87,0,0,1,.36.06l4.44,1.78.78-4.11c-2.08-.95-4.16-1.84-6.24-2.64l-3.91,6.68Z"/><path class="cls-58" d="M422.27,493.64c0-.22,0-.44.05-.65a59.21,59.21,0,0,0-5.88,2.65l.23,5.56a.66.66,0,0,1-.17.49.67.67,0,0,1-.48.21l-.68.19a.6.6,0,0,1-.48-.17.63.63,0,0,1-.22-.47l-.18-4.23-3.91,6.67c.1,1.77.26,3.56.5,5.36.11.94.25,1.88.41,2.83l10.81-18.44Z"/><polygon class="cls-59" points="438.91 528.43 440.49 533.67 441.65 531.92 444.3 535.35 444.39 532.56 448.08 534.64 447.99 532.54 453.46 534.82 450.01 530.48 452.96 529.4 449.96 527.48 452.26 525.68 448.52 525.64 449.39 523.76 443.43 524.01 438.91 528.43 438.91 528.43"/><path class="cls-60" d="M444.49,535.92l-2.83-3.65-1.24,1.88-1.74-5.78,4.66-4.56,6.38-.27-.88,1.9,4,0-2.53,2,3.1,2-3.06,1.12,3.76,4.74-5.91-2.46.1,2.15-3.71-2.1Zm-2.86-4.34,2.49,3.2.08-2.57,3.66,2.08-.09-2.06,5,2.1-3.13-4,2.82-1-2.89-1.85,2.06-1.62-3.47,0,.87-1.86-5.56.23-4.37,4.28,1.42,4.71Z"/><path class="cls-41" d="M432.37,516.7a3,3,0,0,0,.13,2.88,4.12,4.12,0,0,0,2.58,1.91,5.54,5.54,0,0,0,3.55-.18,4.19,4.19,0,0,0,2.41-2.15,3,3,0,0,0-.12-2.87,4.08,4.08,0,0,0-2.59-1.91,5.38,5.38,0,0,0-3.54.17,4.15,4.15,0,0,0-2.42,2.15Z"/><path d="M436.61,522a6,6,0,0,1-1.62-.23,4.45,4.45,0,0,1-2.79-2.07h0a3.35,3.35,0,0,1-.14-3.18,4.58,4.58,0,0,1,2.61-2.33,5.74,5.74,0,0,1,3.75-.18,4.43,4.43,0,0,1,2.79,2.07,3.33,3.33,0,0,1,.14,3.18,4.48,4.48,0,0,1-2.6,2.32A5.74,5.74,0,0,1,436.61,522Zm.19-7.55a5.2,5.2,0,0,0-1.88.37,3.88,3.88,0,0,0-2.24,2,2.69,2.69,0,0,0,.11,2.57h0a3.82,3.82,0,0,0,2.38,1.75,5.14,5.14,0,0,0,3.33-.17,3.79,3.79,0,0,0,2.23-2,2.64,2.64,0,0,0-.11-2.57,3.8,3.8,0,0,0-2.38-1.75A5.23,5.23,0,0,0,436.8,514.49Z"/><path class="cls-61" d="M433.82,517.23a2.22,2.22,0,0,0,.09,2.12,3,3,0,0,0,1.9,1.41,4.06,4.06,0,0,0,2.62-.13,3,3,0,0,0,1.78-1.58,2.18,2.18,0,0,0-.09-2.13,3,3,0,0,0-1.91-1.4,4,4,0,0,0-2.61.12,3.06,3.06,0,0,0-1.78,1.59Z"/><path class="cls-41" d="M436.56,515.77a.69.69,0,0,0,.42.32.92.92,0,0,0,.59,0,.67.67,0,0,0,.4-.35.49.49,0,0,0,0-.47.72.72,0,0,0-.43-.32.89.89,0,0,0-.58,0,.71.71,0,0,0-.4.36.49.49,0,0,0,0,.47Z"/><path class="cls-29" d="M447.65,520.13a13.7,13.7,0,0,0-6.06-.36,37.27,37.27,0,0,1,4.22,3.63l1.84-3.27Z"/><path class="cls-26" d="M443.3,527.6a7.3,7.3,0,0,0,2.51-4.2,37.27,37.27,0,0,0-4.22-3.63,23.71,23.71,0,0,0-13.93-5.08q.75,7.54,10.13,14.55a8.07,8.07,0,0,0,5.51-1.64Z"/><path class="cls-38" d="M445.6,523.36l1.37-2.44a10.32,10.32,0,0,0-4.52-.27,29.37,29.37,0,0,1,3.15,2.71Z"/><path d="M427.27,514.34l.06.39q.74,7.65,10.26,14.78l.09.07h.11a8.33,8.33,0,0,0,5.73-1.72,7.67,7.67,0,0,0,2.61-4.34l2-3.6-.42-.11a14.24,14.24,0,0,0-6.07-.4,23.85,23.85,0,0,0-14-5l-.39,0Zm15,5.68a13.62,13.62,0,0,1,4.88.33L445.66,523a37.48,37.48,0,0,0-3.4-3Zm-.87,0,.12.09,1.52,1.15c1.1.88,1.93,1.56,2.45,2.07a7,7,0,0,1-2.39,4,7.8,7.8,0,0,1-5.18,1.58q-8.91-6.7-9.86-13.87a23.59,23.59,0,0,1,13.34,5Z"/><path class="cls-62" d="M442.28,527.4a5.75,5.75,0,0,0,2-3.3,28.58,28.58,0,0,0-3.32-2.86,18.59,18.59,0,0,0-11-4q.6,5.93,8,11.44a6.37,6.37,0,0,0,4.34-1.3Z"/><path class="cls-29" d="M443.16,526.79a10.12,10.12,0,0,0,4.56-.81q-3-3-8.57-4,.51,1.59,4,4.82Z"/><path class="cls-38" d="M442.81,526.76a9.21,9.21,0,0,0,3.89-.61,13,13,0,0,0-7-3.24q.35,1.27,3.11,3.85Z"/><path d="M438.68,521.53l.25.57a17,17,0,0,0,3.89,4.66l.35.37a10.31,10.31,0,0,0,4.72-.85l.4-.22-.33-.32q-3-3-8.74-4.11l-.54-.1Zm4.48,4.92h-.06a17.84,17.84,0,0,1-3.54-4.05,15.83,15.83,0,0,1,7.56,3.48,11.57,11.57,0,0,1-4,.57Z"/><path class="cls-29" d="M435.13,529.72a7.87,7.87,0,0,0,2.12-3l-4-3.33a8.49,8.49,0,0,0,1.9,6.32Z"/><path class="cls-38" d="M437.32,526.55,434.05,524a7.12,7.12,0,0,0,1.66,5.22,7.21,7.21,0,0,0,1.61-2.68Z"/><path d="M433,522.93l-.08.4a8.81,8.81,0,0,0,1.95,6.6l.21.28.28-.22a8.5,8.5,0,0,0,2.26-3.22L433,522.93Zm3.91,3.76a8.34,8.34,0,0,1-1.7,2.53,8.19,8.19,0,0,1-1.68-5.32l3.38,2.79Z"/><path class="cls-39" d="M461.2,522.64a3.38,3.38,0,0,0-2.15,2.87,1.5,1.5,0,0,0,.55,1.33A1.48,1.48,0,0,0,461,527a3.09,3.09,0,0,0,1.49-1.13,3,3,0,0,0,.66-1.74,1.51,1.51,0,0,0-.54-1.34,1.5,1.5,0,0,0-1.44-.15Z"/><path class="cls-40" d="M462.37,523.38a1.09,1.09,0,0,0-1.05-.11,2.36,2.36,0,0,0-1.1.83,2.3,2.3,0,0,0-.49,1.29,1,1,0,0,0,1.46,1.09,2.23,2.23,0,0,0,1.1-.83,2.26,2.26,0,0,0,.48-1.28,1.09,1.09,0,0,0-.4-1Z"/><path class="cls-39" d="M424.69,529.53a5,5,0,0,1,4.25,2.18,1.58,1.58,0,0,1-1.34,2.61,5,5,0,0,1-4.25-2.18,1.74,1.74,0,0,1-.22-1.75,1.76,1.76,0,0,1,1.56-.86Z"/><path class="cls-40" d="M424.93,530.08a1.26,1.26,0,0,0-1.07,2.09,3.46,3.46,0,0,0,1.48,1.3,3.61,3.61,0,0,0,1.93.45,1.39,1.39,0,0,0,1.24-.69,1.36,1.36,0,0,0-.17-1.4,3.42,3.42,0,0,0-1.48-1.31,3.55,3.55,0,0,0-1.93-.44Z"/><polygon class="cls-59" points="457.88 537.39 456.88 535.78 455.14 536.09 456.14 537.7 457.88 537.39 457.88 537.39"/><path class="cls-60" d="M456,537.93l-1.23-2,2.17-.39,1.23,2Zm-.56-1.69.76,1.24,1.31-.24-.77-1.24Z"/><polygon class="cls-59" points="461.58 538.78 462.46 538 461.85 536.98 460.97 537.75 461.58 538.78 461.58 538.78"/><path class="cls-60" d="M461.53,539.09l-.82-1.38,1.19-1.05.82,1.38Zm-.3-1.3.4.67.57-.5-.4-.67Z"/><polygon class="cls-59" points="466.16 538.12 466.88 537.78 466.32 537.36 465.6 537.7 466.16 538.12 466.16 538.12"/><path class="cls-60" d="M466.13,538.36l-.92-.71,1.13-.53.93.71Zm-.14-.62.19.15.31-.15-.2-.15Z"/><path class="cls-39" d="M457.14,526.29a2.21,2.21,0,0,0-1.23.61,2.33,2.33,0,0,0-.77,1.16,1,1,0,0,0,1.19,1.32,2.31,2.31,0,0,0,1.23-.61,2.44,2.44,0,0,0,.76-1.15,1.09,1.09,0,0,0-.18-1,1.05,1.05,0,0,0-1-.29Z"/><path class="cls-40" d="M458,526.82a.88.88,0,0,0-.83-.25,2,2,0,0,0-1,.51,2.06,2.06,0,0,0-.63,1,.9.9,0,0,0,.15.86.89.89,0,0,0,.83.24,2,2,0,0,0,1-.5,1.82,1.82,0,0,0,.62-1,.86.86,0,0,0-.14-.85Z"/><path class="cls-63" d="M129.55,512a3.25,3.25,0,0,0-.35-6.48h-.12a3.24,3.24,0,0,0-3.12,3.36,3.36,3.36,0,0,0,.93,2.14c-2,3.87-5,6.7-9.49,9.07a15.65,15.65,0,0,1-9.42,1.8,8.08,8.08,0,0,1-5.9-3.41,8.51,8.51,0,0,1-.46-9,13.66,13.66,0,0,1,3.93-4.62c-.23-.75-.58-2-.75-2.95-8.38,6.07-7.52,14.28-5,18.15,1.91,2.9,5.78,4.69,10.06,4.69a14.24,14.24,0,0,0,3.47-.41A22.18,22.18,0,0,0,129.55,512Zm10.17-7.17c-4.39-5.15-10.87-8-18.27-8h-.92a3.18,3.18,0,0,0-2.84-1.73h-.11a3.24,3.24,0,0,0,.11,6.47h.12a3.25,3.25,0,0,0,2.83-2h1A22.08,22.08,0,0,1,134,503.42a15.55,15.55,0,0,1,6.13,7.4,8,8,0,0,1-.12,6.83,8.5,8.5,0,0,1-7.92,4.74,14.83,14.83,0,0,1-5.67-1.22,32.88,32.88,0,0,1-2.6,2.09,18,18,0,0,0,7.46,1.79c5.55,0,9.65-3.07,11.22-6.13C144.17,515.57,144.06,509.78,139.72,504.87ZM110.35,513a3.25,3.25,0,0,0,3.24,3.12h.11a3.24,3.24,0,0,0-.11-6.47h-.12a.93.93,0,0,0-.4.06,21.19,21.19,0,0,1-3-12.84,15.53,15.53,0,0,1,3.41-9c1.68-2.14,4.92-3.18,7.11-3.24,6.13-.11,8.73,7.52,8.91,10.58.75.18,2,.58,2.89.87-.7-9.37-6.48-14.22-12-14.22-5.2,0-10,3.75-11.91,9.3-2.66,7.41-.92,14.52,2.31,20.13A2.56,2.56,0,0,0,110.35,513Z"/><use width="70" height="80" transform="matrix(0.77, 0, 0, -0.77, 327.03, 534.29)" xlink:href="#B"/><use width="75" height="80" transform="matrix(0.77, 0, 0, -0.77, 502.03, 534.29)" xlink:href="#A_6"/><use width="80" height="80" transform="matrix(0.77, 0, 0, -0.77, 580.98, 534.29)" xlink:href="#A_7"/><use width="60" height="80" transform="matrix(0.77, 0, 0, -0.77, 655.73, 534.29)" xlink:href="#A_8"/><use width="205" height="80" transform="matrix(0.77, 0, 0, -0.77, 159.24, 534.29)" xlink:href="#A_9"/></g></g></svg>